<?xml version="1.0" standalone="no"?>
<!DOCTYPE svg PUBLIC "-//W3C//DTD SVG 1.1//EN" "http://www.w3.org/Graphics/SVG/1.1/DTD/svg11.dtd" >
<svg>
<metadata>
Created by FontForge 20090914 at Mon Mar 10 22:40:56 2014
 By www-data
\251 M. Klein   2003,oct,5th
</metadata>
<defs>
<font id="OldSansBlack" horiz-adv-x="611" >
  <font-face 
    font-family="OldSansBlack"
    font-weight="500"
    font-stretch="normal"
    units-per-em="1000"
    panose-1="2 0 6 3 4 0 0 2 0 4"
    ascent="800"
    descent="-200"
    x-height="530.998"
    cap-height="733"
    bbox="-186 -240.003 1011 987"
    underline-thickness="50"
    underline-position="-75"
    unicode-range="U+0005-U+E062"
  />
<missing-glyph horiz-adv-x="1000" 
 />
    <glyph glyph-name=".notdef" horiz-adv-x="1000" 
 />
    <glyph glyph-name="breve" horiz-adv-x="278" 
d="M260 609c17.333 12 30.8301 28.833 40.4971 50.5s16.167 49.5 19.5 83.5h-87c-3.33301 -17.333 -7.66602 -30.166 -12.999 -38.499s-11.666 -14.5 -18.999 -18.5c-19.333 -8.66699 -40 -13 -62 -13s-42.667 4.33301 -62 13c-7.33301 4 -13.666 10.167 -18.999 18.5
s-9.66602 21.166 -12.999 38.499h-87c3.33301 -34 9.66602 -61.833 18.999 -83.5s22.666 -38.5 39.999 -50.5c32.667 -22.667 73.334 -34 122.001 -34c48 0 88.333 11.333 121 34z" />
    <glyph glyph-name="dotaccent" horiz-adv-x="278" 
d="M69 585h142v138h-142v-138z" />
    <glyph glyph-name="ring" horiz-adv-x="278" 
d="M223 609c23.333 23.333 35 51.333 35 84c0 16.667 -3.16699 32.167 -9.5 46.5s-14.833 26.833 -25.5 37.5s-23.167 19.167 -37.5 25.5s-29.833 9.5 -46.5 9.5s-32.167 -3.16699 -46.5 -9.5s-26.833 -14.833 -37.5 -25.5s-19.167 -23.167 -25.5 -37.5
s-9.5 -29.833 -9.5 -46.5s3.16699 -32.167 9.5 -46.5s14.833 -26.833 25.5 -37.5s23.167 -19.167 37.5 -25.5s29.833 -9.5 46.5 -9.5c32.667 0 60.667 11.667 84 35zM170 724c8 -8 12 -18.333 12 -31s-4 -23 -12 -31s-18.333 -12 -31 -12c-12 0 -22.167 4.16699 -30.5 12.5
s-12.5 18.5 -12.5 30.5s4.16699 22.167 12.5 30.5s18.5 12.5 30.5 12.5c12.667 0 23 -4 31 -12z" />
    <glyph glyph-name="hungarumlaut" unicode="&#xa;" horiz-adv-x="278" 
d="M265 575l151 168h-185l-87 -168h121zM71 575l151 168h-185l-87 -168h121z" />
    <glyph glyph-name="ogonek" horiz-adv-x="278" 
d="M218 -209c13.333 6 26.333 12.499 39 19.499s26.667 16.167 42 27.5l-30 55l-21 -14c-8 -5.33301 -16.5 -10.333 -25.5 -15s-18 -8.66699 -27 -12s-17.5 -5 -25.5 -5c-12 0 -22 2.83301 -30 8.5s-12 15.167 -12 28.5c0 16 5.16699 30.167 15.5 42.5
s22.833 23.333 37.5 33s30 18 46 25s30 12.5 42 16.5v33c-51.333 -8 -93 -17.167 -125 -27.5s-56.667 -22.5 -74 -36.5c-34.667 -27.333 -52 -60 -52 -98c0 -17.333 3.16699 -32.166 9.5 -44.499s15 -22.5 26 -30.5s23.5 -14 37.5 -18s28.667 -6 44 -6c28 0 55.667 6 83 18z
" />
    <glyph glyph-name="caron" horiz-adv-x="278" 
d="M206 575l132 168h-141l-58 -75l-58 75h-141l132 -168h134z" />
    <glyph glyph-name="dotlessi" unicode="&#xd;" horiz-adv-x="278" 
d="M66 -11h146v542h-146v-542z" />
    <glyph glyph-name="fraction" horiz-adv-x="167" 
d="M-73 -21l427 765h-114l-426 -765h113z" />
    <glyph glyph-name="fi" horiz-adv-x="556" 
d="M357 605h144v138h-144v-138zM357 -11h146v542h-146v-542zM219 409h105v122h-105v40c0 23.333 5.5 37.5 16.5 42.5s27.167 7.5 48.5 7.5h39v122h-94c-54.667 0 -94.5 -11.833 -119.5 -35.5s-37.5 -63.167 -37.5 -118.5v-58h-71v-122h72v-420h146v420z" />
    <glyph glyph-name="fl" horiz-adv-x="556" 
d="M357 -11h147l-1 111v633h-146v-744zM219 409h105v122h-105v48c0 19.333 6 31.166 18 35.499s26.333 6.5 43 6.5h43v122h-91c-57.333 0 -98.333 -12.167 -123 -36.5s-37 -65.166 -37 -122.499v-53h-71v-122h72v-420h146v420z" />
    <glyph glyph-name="Lslash" horiz-adv-x="556" 
d="M66 -11h476v138h-317v211l160 65v123l-160 -65v272h-159v-337l-77 -31v-123l77 31v-284z" />
    <glyph glyph-name="lslash" horiz-adv-x="278" 
d="M212 372l77 39v125l-77 -39v236h-146v-309l-77 -39v-125l77 39v-310h146v383z" />
    <glyph glyph-name="Zcaron" horiz-adv-x="556" 
d="M5 -11h536v138h-342l338 481v125h-509v-138h304l-327 -474v-132zM325 750l132 168h-141l-58 -75l-58 75h-141l132 -168h134z" />
    <glyph glyph-name="zcaron" horiz-adv-x="444" 
d="M7 -11h431v122h-242l239 316v104h-408l-1 -122h221l-240 -317v-103zM278 575l132 168h-141l-58 -75l-58 75h-141l132 -168h134z" />
    <glyph glyph-name="space" unicode=" " horiz-adv-x="305" 
 />
    <glyph glyph-name="exclam" unicode="!" horiz-adv-x="333" 
d="M224 233l28 500h-172l28 -500h116zM86 -11h161v164h-161v-164z" />
    <glyph glyph-name="quotedbl" unicode="&#x22;" horiz-adv-x="333" 
d="M186 439v294h134v-294h-134zM13 439v294h134v-294h-134z" />
    <glyph glyph-name="numbersign" unicode="#" 
d="M466 410h95v112h-80l28 211h-117l-28 -211h-74l28 211h-117l-28 -211h-93v-112h78l-14 -98h-94v-112h79l-28 -211h117l28 211h74l-28 -211h117l28 211h94v112h-79zM275 410h74l-14 -98h-74z" />
    <glyph glyph-name="dollar" unicode="$" 
d="M498 42c47.333 37.333 70.999 91.666 70.999 162.999c0 64.667 -25 114.667 -75 150c-44 30.667 -92.667 55.667 -146 75v179c23.333 -5.33301 44.333 -15.666 63 -30.999s36.334 -31 53.001 -47l94 92l-49.5 44.001s-30.5 23.5 -46.5 32.5s-33 16.167 -51 21.5
s-39 9.33301 -63 12v72h-96v-73c-26.667 -3.33301 -52.834 -10.166 -78.501 -20.499s-48.5 -23.833 -68.5 -40.5s-36.167 -36.834 -48.5 -60.501s-18.5 -50.5 -18.5 -80.5c0 -60.667 21.333 -107.334 64 -140.001c34 -26 84 -52 150 -78v-198c-28 7.33301 -51.5 19 -70.5 35
s-35.833 36.333 -50.5 61l-104 -89c30 -40 62.833 -70.333 98.5 -91s77.834 -33.667 126.501 -39v-122h96v121c63.333 6 113.333 23.333 150 52zM251.999 611l0.00195312 -145c-8 3.33301 -16.667 7.33301 -26 12s-17.833 10 -25.5 16s-14.167 13 -19.5 21s-8 17 -8 27
c0 10.667 2.5 20 7.5 28s11.167 14.833 18.5 20.5s15.666 10 24.999 13s18.666 5.5 27.999 7.5zM394.001 249c27.333 -15.333 41.002 -35.001 41.002 -59.001c0 -13.333 -2.5 -24.5 -7.5 -33.5s-11.5 -16.667 -19.5 -23s-17.333 -11.333 -28 -15s-21.334 -6.5 -32.001 -8.5
v164c19.333 -9.33301 34.666 -17.666 45.999 -24.999z" />
    <glyph glyph-name="percent" unicode="%" horiz-adv-x="889" 
d="M810 45c38 36.667 57.001 81.333 57.001 134c0 26 -5 50.667 -15 74s-23.833 43.833 -41.5 61.5s-38.167 31.5 -61.5 41.5s-48 15 -74 15s-50.5 -5 -73.5 -15s-43.333 -23.5 -61 -40.5s-31.667 -37 -42 -60s-15.5 -47.5 -15.5 -73.5c0 -26.667 5 -51.667 15 -75
s23.667 -43.833 41 -61.5s37.666 -31.5 60.999 -41.5s48.333 -15 75 -15c51.333 0 96.333 18.667 135 56zM288.001 -21.001l429 764h-110l-428 -764h109zM350.001 406.999c38 36.667 57.001 81.333 57.001 134c0 26 -5 50.667 -15 74s-23.833 43.833 -41.5 61.5
s-38.167 31.5 -61.5 41.5s-48 15 -74 15s-50.5 -5 -73.5 -15s-43.333 -23.5 -61 -40.5s-31.667 -37 -42 -60s-15.5 -47.5 -15.5 -73.5c0 -26.667 5 -51.667 15 -75s23.667 -43.833 41 -61.5s37.666 -31.667 60.999 -42s48.333 -15.5 75 -15.5c52.667 0 97.667 19 135 57z
M726.002 229.998c14 -14 20.998 -30.668 20.998 -50.001s-7 -36.166 -21 -50.499s-30.667 -21.5 -50 -21.5s-36.166 6.66699 -50.499 20s-21.5 30 -21.5 50s7 37 21 51s31 21 51 21c18.667 0 35.334 -6.66699 50.001 -20zM266 591.997c14 -14 20.999 -30.667 20.999 -50
s-7 -36.333 -21 -51s-30.667 -22 -50 -22s-36.166 6.83301 -50.499 20.5s-21.5 30.5 -21.5 50.5s7 37.167 21 51.5s31 21.5 51 21.5c19.333 0 36 -7 50 -21z" />
    <glyph glyph-name="ampersand" unicode="&#x26;" horiz-adv-x="667" 
d="M555 -10c12 -3.33301 25.1709 -6 39.5039 -8s31.166 -3 50.499 -3v137c-14.667 1.33301 -29.834 5 -45.501 11s-33.834 15.667 -54.501 29c19.333 28.667 36.166 58.167 50.499 88.5s27.166 62.166 38.499 95.499l-131 35c-8.66699 -23.333 -18 -46 -28 -68
s-21.667 -43.667 -35 -65c-15.333 14 -32 31.333 -50 52s-37.667 45 -59 73c28 20.667 55.333 46 82 76c34.667 38 52 80.667 52 128c0 50.667 -18.667 92 -56 124c-36 32 -78.333 48 -127 48c-27.333 0 -52.833 -4.16699 -76.5 -12.5s-44.167 -20.166 -61.5 -35.499
s-31 -34.166 -41 -56.499s-15 -47.833 -15 -76.5c0 -17.333 1.33301 -33.333 4 -48s6.33398 -28.667 11.001 -42s10.5 -26.5 17.5 -39.5s15.167 -26.5 24.5 -40.5c-35.333 -23.333 -63.5 -50.333 -84.5 -81s-31.5 -68 -31.5 -112c0 -60.667 19.667 -112.667 59 -156
c40 -42.667 101 -64 183 -64c38 0 71.333 6.16699 100 18.5s57 30.166 85 53.499c13.333 -11.333 28.833 -23 46.5 -35s35.167 -20.667 52.5 -26zM313.004 622c9.33301 -11.333 13.998 -27.334 13.998 -48.001c0 -10 -2.33301 -19.833 -7 -29.5s-10.667 -19 -18 -28
s-15.166 -17.333 -23.499 -25s-16.166 -14.167 -23.499 -19.5l-3 5c-17.333 30 -26 61.667 -26 95c0 20.667 5.33301 37.334 16 50.001c10.667 11.333 22 17 34 17c14.667 0 27 -5.66699 37 -17zM315.002 181.999c5.33301 -5.33301 11.333 -11 18 -17s13.667 -12.667 21 -20
c-24.667 -18.667 -51.667 -28 -81 -28c-11.333 0 -22.5 2.5 -33.5 7.5s-20.833 11.667 -29.5 20s-15.667 17.833 -21 28.5s-8 21.667 -8 33c0 19.333 3.83301 34.333 11.5 45s18.167 21.667 31.5 33l47.5 -55.5c15 -17 29.5 -32.5 43.5 -46.5z" />
    <glyph glyph-name="quotesingle" unicode="'" horiz-adv-x="222" 
d="M44 439h134v294h-134v-294z" />
    <glyph glyph-name="parenleft" unicode="(" horiz-adv-x="333" 
d="M182 -95l152 -0.00195312c-52.667 60.667 -92.667 125.5 -120 194.5s-41 143.833 -41 224.5s13.667 155.5 41 224.5s67.333 133.833 120 194.5h-152c-15.333 -19.333 -30.333 -42.666 -45 -69.999s-30.667 -59 -48 -95c-33.333 -76 -50 -160.667 -50 -254
s16.667 -178 50 -254c17.333 -36 33.333 -67.667 48 -95s29.667 -50.666 45 -69.999z" />
    <glyph glyph-name="parenright" unicode=")" horiz-adv-x="333" 
d="M245 71c32.667 73.333 49 157.67 49 253.003s-16.333 179.666 -49 252.999c-16.667 36.667 -32.334 68.667 -47.001 96s-29.667 50.666 -45 69.999h-152c52 -60.667 91.5 -125.5 118.5 -194.5s40.5 -143.833 40.5 -224.5s-13.5 -155.5 -40.5 -224.5
s-66.5 -133.833 -118.5 -194.5h152c15.333 19.333 30.333 42.666 45 69.999s30.334 59.333 47.001 96z" />
    <glyph glyph-name="asterisk" unicode="*" horiz-adv-x="500" 
d="M308 521l146 20l-39 117l-129 -69l27 144h-124l27 -144l-129 69l-39 -117l146 -20l-107 -100l101 -74l63 133l63 -133l101 74z" />
    <glyph glyph-name="plus" unicode="+" horiz-adv-x="600" 
d="M363 198h207v128h-207v205h-128v-205h-206v-128h206v-208h128v208z" />
    <glyph glyph-name="comma" unicode="," horiz-adv-x="305" 
d="M164 -161l68 159v155h-160v-164h56l-51 -150h87z" />
    <glyph glyph-name="hyphen" unicode="-" horiz-adv-x="333" 
d="M33 195h267v130h-267v-130z" />
    <glyph glyph-name="period" unicode="." horiz-adv-x="305" 
d="M72 -11h160v164h-160v-164z" />
    <glyph glyph-name="slash" unicode="/" horiz-adv-x="278" 
d="M89 -21l232 764h-132l-232 -764h132z" />
    <glyph glyph-name="zero" unicode="0" 
d="M511 82c45.333 67.333 68 160.331 68 278.998c0 44.667 -4 89.834 -12 135.501s-22.333 86.667 -43 123s-48.667 66 -84 89s-80.333 34.5 -135 34.5s-99.667 -11.5 -135 -34.5s-63.333 -52.667 -84 -89s-35 -77.333 -43 -123s-12 -90.834 -12 -135.501
c0 -45.333 4 -90.666 12 -135.999s22.333 -86.166 43 -122.499s48.667 -66 84 -89s80.333 -34.5 135 -34.5c91.333 0 160 34.333 206 103zM397 549.998c20 -43.333 30 -106.333 30 -189c0 -83.333 -10 -146.333 -30 -189c-18.667 -42 -49.334 -63 -92.001 -63
s-73.334 21 -92.001 63c-20 42.667 -30 105.667 -30 189c0 82.667 10 145.667 30 189c18.667 42 49.334 63 92.001 63s73.334 -21 92.001 -63z" />
    <glyph glyph-name="one" unicode="1" 
d="M135 -11h375v122h-113v632h-115c-21.333 -20 -47 -33.167 -77 -39.5s-59 -9.83301 -87 -10.5v-106h129v-476h-112v-122z" />
    <glyph glyph-name="two" unicode="2" 
d="M509 378c30 42 44.9961 90 44.9961 144c0 36 -6.66699 67.833 -20 95.5s-31.166 50.667 -53.499 69s-48.5 32.333 -78.5 42s-62 14.5 -96 14.5c-65.333 0 -122 -19 -170 -57c-24 -19.333 -43.333 -41.666 -58 -66.999s-25.334 -56 -32.001 -92l137 -31
c6.66699 34 19.834 62 39.501 84s47.834 33 84.501 33c28 0 50.667 -7.33301 68 -22s26 -36.667 26 -66c0 -16 -5.16699 -32.5 -15.5 -49.5s-22.666 -33.667 -36.999 -50s-29.5 -31.5 -45.5 -45.5s-29.667 -25.333 -41 -34l-74.5 -62l-65.5 -57
c-21.333 -18 -38.5 -35.833 -51.5 -53.5s-21.5 -35.5 -25.5 -53.5v-131h508v134h-323c11.333 10.667 23 21 35 31l37 30l110.5 91c37.667 31.333 69.834 65.666 96.501 102.999z" />
    <glyph glyph-name="three" unicode="3" 
d="M478 41c50 40.667 75 95.3301 75 163.997c0 42 -9.5 79.333 -28.5 112s-48.167 57.334 -87.5 74.001c29.333 16 52 37.5 68 64.5s24 57.167 24 90.5c0 60 -23.333 108 -70 144c-45.333 35.333 -105.333 53 -180 53c-47.333 0 -90.5 -10.333 -129.5 -31
s-73.833 -48.334 -104.5 -83.001l102 -93c19.333 22 39.666 40.333 60.999 55s47.333 22 78 22c11.333 0 22.5 -1.66699 33.5 -5s20.667 -8.16602 29 -14.499s15.166 -14.333 20.499 -24s8 -20.834 8 -33.501c0 -29.333 -13 -51 -39 -65
c-27.333 -15.333 -72.666 -23 -135.999 -23h-19v-130h24c18 0 38.333 -0.833008 61 -2.5s43.834 -6.16699 63.501 -13.5s36.167 -18.166 49.5 -32.499s20 -34.166 20 -59.499c0 -32 -11 -56.833 -33 -74.5s-48.333 -26.5 -79 -26.5c-40 0 -71.667 9.66699 -95 29
c-13.333 10.667 -24 21 -32 31s-15.333 21.667 -22 35l-123 -69c10.667 -22.667 24.167 -42.667 40.5 -60s36.5 -33.666 60.5 -48.999c49.333 -31.333 105.333 -47 168 -47c78.667 0 142.667 20.667 192 62z" />
    <glyph glyph-name="four" unicode="4" 
d="M485 155h101v122h-101v456h-159l-313 -436v-142h325v-166h147v166zM338 555v-278h-193z" />
    <glyph glyph-name="five" unicode="5" 
d="M491 50c49.333 46.667 74.002 112.001 74.002 196.001c0 69.333 -22 128.666 -66 177.999c-45.333 50 -99.666 75 -162.999 75c-21.333 0 -42.166 -1.66699 -62.499 -5s-39.833 -11.333 -58.5 -24l8 129h293v134h-411l-29 -404l123 -23
c11.333 20 25.166 35.5 41.499 46.5s36.166 16.5 59.499 16.5c18.667 0 35.167 -3.33301 49.5 -10s26.166 -15.834 35.499 -27.501s16.333 -25.167 21 -40.5s7 -32 7 -50s-2.33301 -35 -7 -51s-11.834 -30 -21.501 -42s-21.667 -21.333 -36 -28s-31.166 -10 -50.499 -10
c-34 0 -62.333 9 -85 27c-12.667 10 -22.334 19.333 -29.001 28s-11.667 19.334 -15 32.001l-129 -67c22.667 -50.667 56 -88.5 100 -113.5s93 -37.5 147 -37.5c43.333 0 82 5.83301 116 17.5s63.333 29.5 88 53.5z" />
    <glyph glyph-name="six" unicode="6" 
d="M499 47c50 46 75.001 105 75.001 177c0 36 -5.5 69.167 -16.5 99.5s-26.833 56.5 -47.5 78.5s-45.667 39.333 -75 52s-62.333 19 -99 19c-25.333 0 -50.333 -3.5 -75 -10.5s-47.334 -18.167 -68.001 -33.5c8.66699 52.667 23 91.667 43 117
c33.333 44 74.333 66.333 123 67c24.667 0.666992 47.334 -4.5 68.001 -15.5s39.667 -24.833 57 -41.5l68 126c-29.333 19.333 -59.666 34.333 -90.999 45s-64.666 16 -99.999 16c-99.333 0 -178 -38 -236 -114c-58 -74.667 -87 -177.667 -87 -309
c0 -56.667 6.16699 -106.167 18.5 -148.5s31.166 -77.833 56.499 -106.5c51.333 -57.333 116.666 -86 195.999 -86c77.333 0 140.666 22.667 189.999 68zM393.001 312c19.333 -20.667 29 -50.332 29 -88.999c0 -32.667 -8.83301 -59.834 -26.5 -81.501
s-43.5 -32.5 -77.5 -32.5c-24.667 0 -44.667 4.5 -60 13.5s-27.666 21 -36.999 36s-16.333 31.833 -21 50.5s-8.33398 38 -11.001 58c12.667 23.333 28.667 41.833 48 55.5s43 20.5 71 20.5c19.333 0 35.833 -2.66699 49.5 -8s25.5 -13 35.5 -23z" />
    <glyph glyph-name="seven" unicode="7" 
d="M263 -11l302 657v87h-518v-134h341l-292 -610h167z" />
    <glyph glyph-name="eight" unicode="8" 
d="M504 36c52.667 39.333 79 90.334 79 153.001c0 46.667 -11.833 86.167 -35.5 118.5s-55.5 58.166 -95.5 77.499c32.667 19.333 58.167 42.166 76.5 68.499s27.5 59.166 27.5 98.499c0 34.667 -7.33301 64.167 -22 88.5s-34 44.166 -58 59.499s-50.833 26.333 -80.5 33
s-59.5 10 -89.5 10c-30.667 0 -61.167 -3.16699 -91.5 -9.5s-57.5 -17 -81.5 -32s-43.333 -34.833 -58 -59.5s-22 -55 -22 -91c0 -38.667 9.5 -71.167 28.5 -97.5s44.167 -49.166 75.5 -68.499c-41.333 -21.333 -73.5 -47.666 -96.5 -78.999s-34.5 -71 -34.5 -119
c0 -61.333 26.667 -111.666 80 -150.999c52.667 -38 118.667 -57 198 -57c80 0 146.667 19 200 57zM380 603.001c16 -12 24.002 -30.001 24.002 -54.001c0 -20 -11.667 -41.333 -35 -64c-23.333 -21.333 -44.833 -32.5 -64.5 -33.5s-41.834 9.16699 -66.501 30.5
c-21.333 19.333 -32 42.333 -32 69c0 14 2.83301 25.667 8.5 35s13.167 16.5 22.5 21.5s19.833 8.5 31.5 10.5s23.5 3 35.5 3c17.333 0 32.166 -1.66699 44.499 -5s22.833 -7.66602 31.5 -12.999zM378.002 274c18 -14 31.166 -27.5 39.499 -40.5s12.5 -26.167 12.5 -39.5
c0 -18 -3.66699 -33 -11 -45s-16.833 -21.5 -28.5 -28.5s-25 -12 -40 -15s-30.167 -4.5 -45.5 -4.5c-14.667 0 -29.5 1.5 -44.5 4.5s-28.5 8 -40.5 15s-21.833 16.5 -29.5 28.5s-11.5 26.667 -11.5 44c0 27.333 13.333 54 40 80c28 24.667 53.333 38.667 76 42
c9.33301 -0.666992 20.833 -4.16699 34.5 -10.5s29.834 -16.5 48.501 -30.5z" />
    <glyph glyph-name="nine" unicode="9" 
d="M476 96c56.667 76.667 84.9961 179.003 84.9961 307.003c0 56 -6.16699 105.167 -18.5 147.5s-31.166 77.833 -56.499 106.5c-51.333 57.333 -116.666 86 -195.999 86c-38 0 -73.167 -5.66699 -105.5 -17s-60.333 -27.666 -84 -48.999s-42.167 -47.5 -55.5 -78.5
s-20 -66.167 -20 -105.5c0 -34.667 5.66699 -66.834 17 -96.501s27.166 -55.5 47.499 -77.5s45 -39.167 74 -51.5s61.167 -18.5 96.5 -18.5c28 0 54 3.5 78 10.5s47.333 18.5 70 34.5c-4 -22.667 -10 -44.834 -18 -66.501s-18.667 -41.167 -32 -58.5
s-29.666 -31.5 -48.999 -42.5s-42.333 -16.833 -69 -17.5c-25.333 -0.666992 -48.166 4.66602 -68.499 15.999s-39.166 24.666 -56.499 39.999l-68 -125c30 -19.333 60.667 -34.333 92 -45s65 -16 101 -16c99.333 0 178 39 236 117zM378.996 561.003
c13.333 -22 23.999 -56.668 31.999 -104.001c-10.667 -23.333 -26.167 -42.166 -46.5 -56.499s-43.833 -21.5 -70.5 -21.5c-37.333 0 -66.166 9.83301 -86.499 29.5s-30.5 48.167 -30.5 85.5c0 34.667 8.5 63.167 25.5 85.5s43.833 33.5 80.5 33.5
c41.333 0 73.333 -17.333 96 -52z" />
    <glyph glyph-name="colon" unicode=":" horiz-adv-x="305" 
d="M72 -11h160v164h-160v-164zM62 289h160v164h-160v-164z" />
    <glyph glyph-name="semicolon" unicode=";" horiz-adv-x="305" 
d="M164 -161l68 159v155h-160v-164h56l-51 -150h87zM62 289h160v164h-160v-164z" />
    <glyph glyph-name="less" unicode="&#x3c;" horiz-adv-x="600" 
d="M29 207l541 -232v135l-354 150l354 150v135l-541 -232v-106z" />
    <glyph glyph-name="equal" unicode="=" horiz-adv-x="600" 
d="M29 306v128h543v-128h-543zM29 86v128h543v-128h-543z" />
    <glyph glyph-name="greater" unicode="&#x3e;" horiz-adv-x="600" 
d="M29 -25l541 232v106l-541 232v-135l354 -150l-354 -150v-135z" />
    <glyph glyph-name="question" unicode="?" horiz-adv-x="444" 
d="M387 490c14.667 27.333 22.001 54.001 22.001 80.001c0 46 -16.667 86.333 -50 121c-32.667 34.667 -80.334 52 -143.001 52c-58.667 0 -106.5 -14.833 -143.5 -44.5s-62.167 -73.167 -75.5 -130.5l137 -38c2.66699 17.333 6.16699 31.333 10.5 42
s10.166 19.667 17.499 27c14 14.667 28.667 22 44 22c12.667 0 24.834 -3.83301 36.501 -11.5s17.5 -18.5 17.5 -32.5c0 -8 -1.5 -16.333 -4.5 -25s-6.66699 -17.334 -11 -26.001s-9 -17 -14 -25s-9.83301 -15 -14.5 -21l-30 -41c-10 -14 -19 -28.5 -27 -43.5
s-14.5 -30.5 -19.5 -46.5s-7.5 -32.667 -7.5 -50v-67h132v48c0 26 7.33301 49.667 22 71s30 41.333 46 60c11.333 12.667 21.5 25.5 30.5 38.5s17.167 26.5 24.5 40.5zM119.001 -10.999h161v164h-161v-164z" />
    <glyph glyph-name="at" unicode="@" horiz-adv-x="800" 
d="M680 218c56 58.667 83.999 128.331 83.999 208.998c0 86 -32.667 160 -98 222c-65.333 63.333 -148.666 95 -249.999 95c-106 0 -196.333 -38.333 -271 -115c-74 -77.333 -111 -165.666 -111 -264.999c0 -102.667 36 -192.334 108 -269.001
c73.333 -77.333 167 -116 281 -116l1 95c-32.667 0 -65.834 7.83301 -99.501 23.5s-63.834 36.5 -90.501 62.5c-52.667 52.667 -79 119.334 -79 200.001c0 78.667 25.667 145.334 77 200.001c52 54 113.333 81 184 81c69.333 0 126.333 -21.333 171 -64
c45.333 -41.333 68 -90 68 -146c0 -51.333 -9.33301 -95.333 -28 -132c-10 -19.333 -18.833 -32.666 -26.5 -39.999s-14.167 -11 -19.5 -11c-0.666992 0 -1.66699 0.666992 -3 2s-3.66602 2.66602 -6.99902 3.99902c-2 2 -3 4.33301 -3 7c0 2 1 5.66699 3 11l57 273h-113
l-5 -24c-12.667 14 -29.667 24.833 -51 32.5s-41 11.5 -59 11.5c-66.667 0 -119 -26 -157 -78c-38 -51.333 -57 -107 -57 -167c0 -56 18 -101.333 54 -136s73.667 -52 113 -52c18.667 0 35.834 3.66699 51.501 11s30.167 17.333 43.5 30c4 -12 10.833 -22.167 20.5 -30.5
s21.167 -12.5 34.5 -12.5c62.667 0 121.667 29.333 177 88zM457.999 420.997c12 -13.333 18 -29.3291 18 -47.9961c0 -14 -2.16699 -27.667 -6.5 -41s-10.5 -25.333 -18.5 -36s-18 -19.334 -30 -26.001s-25.333 -10 -40 -10c-23.333 0 -39.833 7.66699 -49.5 23
s-14.5 33.666 -14.5 54.999c0 13.333 2.33301 26.166 7 38.499s11 23.166 19 32.499s17.833 16.833 29.5 22.5s24.5 8.5 38.5 8.5c19.333 0 35 -6.33301 47 -19z" />
    <glyph glyph-name="A" unicode="A" 
d="M452 -11h161l-212 745h-188l-215 -745h160l43 156h211zM309 545l68 -264h-140z" />
    <glyph glyph-name="B" unicode="B" horiz-adv-x="667" 
d="M545 40c48.667 34 73 87.668 73 161.001c0 43.333 -8 80 -24 110c-15.333 28 -44 51.333 -86 70c30.667 15.333 54 36.666 70 63.999s24 58 24 92c0 38 -7.16699 69.667 -21.5 95s-33.5 45.5 -57.5 60.5s-51.5 25.5 -82.5 31.5s-62.833 9 -95.5 9h-278v-744h271
c91.333 0 160.333 17 207 51zM419 578.001c15.333 -13.333 23 -33.333 23 -60c0 -12.667 -2.5 -23.5 -7.5 -32.5s-11.5 -16.5 -19.5 -22.5s-17.333 -10.5 -28 -13.5s-21.667 -4.5 -33 -4.5h-127v154h123c30.667 0 53.667 -7 69 -21zM433 289.001
c16.667 -14.667 25 -38.001 25 -70.001c0 -35.333 -8.66699 -60.166 -26 -74.499s-43 -21.5 -77 -21.5h-128v188h126c35.333 0 62 -7.33301 80 -22z" />
    <glyph glyph-name="C" unicode="C" 
d="M495 29c23.333 16.667 43.832 37.6689 61.499 63.002s33.834 57 48.501 95l-150 39c-7.33301 -16 -15 -30.667 -23 -44s-17 -24.833 -27 -34.5s-21.833 -17.167 -35.5 -22.5s-30.167 -8 -49.5 -8c-49.333 0 -84.666 19.667 -105.999 59
c-23.333 40.667 -35 100.667 -35 180c0 14.667 0.5 31 1.5 49s3.16699 36.167 6.5 54.5s8.16602 36.166 14.499 53.499s14.5 32.833 24.5 46.5s22.5 24.667 37.5 33s32.5 12.5 52.5 12.5c34.667 0 61.334 -10 80.001 -30s33.334 -45.333 44.001 -76l146 35
c-12.667 43.333 -27.5 78.5 -44.5 105.5s-37.167 47.5 -60.5 61.5c-46 28 -99.333 42 -160 42c-56 0 -103.333 -10.667 -142 -32s-69.834 -49.833 -93.501 -85.5s-40.667 -76.5 -51 -122.5s-15.5 -93.333 -15.5 -142c0 -49.333 5.16699 -96.833 15.5 -142.5
s27.166 -86.334 50.499 -122.001s54.333 -64.167 93 -85.5s86 -32 142 -32c70.667 0 129 16.667 175 50z" />
    <glyph glyph-name="D" unicode="D" horiz-adv-x="667" 
d="M566 86c30 32 52 70.8301 66 116.497s21 98.167 21 157.5c0 56.667 -6.66699 107.834 -20 153.501s-34 84.834 -62 117.501s-63.5 57.834 -106.5 75.501s-94.167 26.5 -153.5 26.5h-244v-744h246c110.667 0 195 32.333 253 97zM447 536.997
c14.667 -19.333 25.8359 -43.5 33.5029 -72.5s11.5 -63.167 11.5 -102.5c0 -32 -2.66699 -62.167 -8 -90.5s-14.833 -53.333 -28.5 -75s-32.334 -38.667 -56.001 -51s-53.834 -18.5 -90.501 -18.5h-82v468h84c61.333 0 106.666 -19.333 135.999 -58z" />
    <glyph glyph-name="E" unicode="E" 
d="M73 -11h511v138h-352v181l248 1v136h-248v150h340v138h-499v-744z" />
    <glyph glyph-name="F" unicode="F" horiz-adv-x="556" 
d="M226 595h323v138h-482v-744h159v319l242 1l-1 136h-241v150z" />
    <glyph glyph-name="G" unicode="G" horiz-adv-x="667" 
d="M494 -11l122.998 0.000976562v387h-293v-138h137c-3.33301 -32.667 -16 -60 -38 -82c-25.333 -26 -58.666 -39 -99.999 -39c-30 0 -54.5 8 -73.5 24s-33.667 36 -44 60s-17.333 49.833 -21 77.5s-5.5 52.834 -5.5 75.501c0 22 1.5 47.5 4.5 76.5s9.5 56.5 19.5 82.5
s24.167 47.833 42.5 65.5s42.833 26.5 73.5 26.5c38.667 0 67.834 -8.83301 87.501 -26.5s37.167 -43.5 52.5 -77.5l148 39c-13.333 40 -29 72.667 -47 98s-39.333 45.666 -64 60.999c-48.667 29.333 -101 44 -157 44c-59.333 0 -109.5 -10.833 -150.5 -32.5
s-74 -50.667 -99 -87s-43 -78.333 -54 -126s-16.5 -97.834 -16.5 -150.501c0 -48 5.5 -94.167 16.5 -138.5s28.5 -83.5 52.5 -117.5s55 -61.167 93 -81.5s84 -30.5 138 -30.5c36 0 67.667 5 95 15s54 27.667 80 53v-58z" />
    <glyph glyph-name="H" unicode="H" horiz-adv-x="722" 
d="M486 -11h161v744h-161v-287h-252v287h-161v-744h161v310h252v-310z" />
    <glyph glyph-name="I" unicode="I" horiz-adv-x="333" 
d="M86 -11h160v744h-160v-744z" />
    <glyph glyph-name="J" unicode="J" horiz-adv-x="444" 
d="M316 33c36.667 36 54.998 90 54.998 162v538h-159v-545c0 -7.33301 -0.666992 -15.166 -2 -23.499s-3.66602 -16 -6.99902 -23s-8 -12.833 -14 -17.5s-13.667 -7 -23 -7c-19.333 0 -34.166 5.66699 -44.499 17s-19.833 24.666 -28.5 39.999l-113 -84
c23.333 -36 49.333 -63.333 78 -82s65 -28 109 -28c63.333 0 113 17.667 149 53z" />
    <glyph glyph-name="K" unicode="K" horiz-adv-x="667" 
d="M489 -11h179l-244 461l214 283h-185l-226 -298v298h-160v-744h160v223l88 111z" />
    <glyph glyph-name="L" unicode="L" horiz-adv-x="556" 
d="M67 -11h473v138h-314v606h-159v-744z" />
    <glyph glyph-name="M" unicode="M" horiz-adv-x="833" 
d="M621 -11h142v744h-215l-133 -478l-132 478h-213v-744h142v506l143 -506h121l145 507v-507z" />
    <glyph glyph-name="N" unicode="N" horiz-adv-x="722" 
d="M503 -11h149v744h-152v-466l-269 466h-161v-744h152v488z" />
    <glyph glyph-name="O" unicode="O" horiz-adv-x="667" 
d="M568 81c53.333 66 80 159.332 80 279.999c0 51.333 -5.5 100.166 -16.5 146.499s-29 87 -54 122s-57.333 62.667 -97 83s-88.5 30.5 -146.5 30.5s-107 -10.167 -147 -30.5s-72.5 -48 -97.5 -83s-43 -75.667 -54 -122s-16.5 -95.166 -16.5 -146.499
s5.5 -100.166 16.5 -146.499s29 -87 54 -122s57.5 -62.667 97.5 -83s89 -30.5 147 -30.5c102 0 180 34 234 102zM450 544.999c25.333 -41.333 38 -102.666 38 -183.999s-12.667 -142.666 -38 -183.999c-24 -40 -62.667 -60 -116 -60c-54 0 -93 20 -117 60
c-25.333 41.333 -38 102.666 -38 183.999s12.667 142.666 38 183.999c24 40 63 60 117 60c53.333 0 92 -20 116 -60z" />
    <glyph glyph-name="P" unicode="P" 
d="M528 338c47.333 38.667 71 94.667 71 168c0 41.333 -6.83301 76.5 -20.5 105.5s-32.5 52.5 -56.5 70.5s-52.167 31 -84.5 39s-67.5 12 -105.5 12h-275v-744h160v292h114c85.333 0 151 19 197 57zM411 577c8.66699 -6.66699 15.333 -15.832 20 -27.499
s7 -26.834 7 -45.501s-3.33301 -33.834 -10 -45.501s-15.5 -20.667 -26.5 -27s-23.667 -10.666 -38 -12.999s-29.5 -3.5 -45.5 -3.5h-101v184h101c43.333 0 74.333 -7.33301 93 -22z" />
    <glyph glyph-name="Q" unicode="Q" horiz-adv-x="667" 
d="M499 -4c17.333 -21.333 39.498 -36.833 66.498 -46.5s60.5 -14.5 100.5 -14.5v137c-23.333 2 -41.666 5 -54.999 9s-23.666 9 -30.999 15c45.333 65.333 68 153.666 68 264.999c0 51.333 -5.5 100.166 -16.5 146.499s-29 87 -54 122s-57.333 62.667 -97 83
s-88.5 30.5 -146.5 30.5s-107 -10.167 -147 -30.5s-72.5 -48 -97.5 -83s-43 -75.667 -54 -122s-16.5 -95.166 -16.5 -146.499s5.5 -100.166 16.5 -146.499s29 -87 54 -122s57.5 -62.667 97.5 -83s89 -30.5 147 -30.5c64 0 114.667 11 152 33zM476.998 248
c-17.333 23.333 -38.501 41.6689 -63.501 55.002s-55.5 21.666 -91.5 24.999v-144c18.667 -3.33301 34.5 -9.33301 47.5 -18s24.5 -20 34.5 -34c-15.333 -10 -38.666 -15 -69.999 -15c-54 0 -93 20 -117 60c-25.333 41.333 -38 102.666 -38 183.999
s12.667 142.666 38 183.999c24 40 63 60 117 60c53.333 0 92 -20 116 -60c25.333 -41.333 38 -102.666 38 -183.999c0 -46 -3.66699 -83.667 -11 -113z" />
    <glyph glyph-name="R" unicode="R" horiz-adv-x="667" 
d="M464 -11h178.001l-162 327c41.333 14.667 73.166 38.167 95.499 70.5s33.5 70.5 33.5 114.5c0 38 -5.83301 71.5 -17.5 100.5s-28 53.167 -49 72.5s-46.5 34 -76.5 44s-63.333 15 -100 15h-299v-744h159v294h102zM421.001 576
c8.66699 -7.33301 15.332 -17.001 19.999 -29.001s7 -26.667 7 -44c0 -19.333 -3.66699 -34.666 -11 -45.999s-17 -20 -29 -26s-25.667 -9.83301 -41 -11.5s-30.666 -2.5 -45.999 -2.5h-95v182h111c38.667 0 66.667 -7.66699 84 -23z" />
    <glyph glyph-name="S" unicode="S" 
d="M500 37c46.667 40 70.001 96.3369 70.001 169.004c0 67.333 -23.667 118.666 -71 153.999c-44.667 34.667 -95.334 61.667 -152.001 81c-40 14 -76 30 -108 48c-15.333 8.66699 -26.166 17.667 -32.499 27s-9.5 19 -9.5 29c0 12.667 2.83301 23.5 8.5 32.5s13 16 22 21
s19 8.66699 30 11s21.833 3.5 32.5 3.5c33.333 0 59.166 -8.83301 77.499 -26.5s33.5 -40.834 45.5 -69.501l147 45c-14.667 34 -31 62 -49 84s-38.667 40 -62 54c-46.667 28.667 -99.334 43 -158.001 43c-70 0 -128.333 -19.333 -175 -58s-70 -87.667 -70 -147
c0 -60 20 -107 60 -141c38 -31.333 95.667 -61.666 173 -90.999c39.333 -14.667 73 -31.334 101 -50.001c25.333 -16.667 38 -37.334 38 -62.001c0 -16.667 -3 -30.5 -9 -41.5s-14.167 -19.667 -24.5 -26s-22.166 -10.833 -35.499 -13.5s-27 -4 -41 -4
c-20 0 -37.833 2.83301 -53.5 8.5s-29.5 13.5 -41.5 23.5s-22.667 22.167 -32 36.5s-18 30.166 -26 47.499l-133 -58c15.333 -36 33 -65.5 53 -88.5s43.667 -41.833 71 -56.5c51.333 -28.667 104 -43 158 -43c84 0 149.333 19.333 196 58z" />
    <glyph glyph-name="T" unicode="T" horiz-adv-x="556" 
d="M357 596h189v137h-536v-137h188v-607h159v607z" />
    <glyph glyph-name="U" unicode="U" horiz-adv-x="722" 
d="M574 54c49.333 50 73.999 122.332 73.999 216.999v462h-159v-460c0 -57.333 -9.66699 -97.666 -29 -120.999c-9.33301 -11.333 -22.166 -20 -38.499 -26s-37.166 -9 -62.499 -9c-47.333 0 -80 12 -98 36c-19.333 23.333 -29 64 -29 122v458h-159v-469
c0 -92 25.167 -162.5 75.5 -211.5s121.166 -73.5 212.499 -73.5c92.667 0 163.667 25 213 75z" />
    <glyph glyph-name="V" unicode="V" horiz-adv-x="556" 
d="M363 -11l198 744h-160l-126 -501l-120 501h-159l197 -744h170z" />
    <glyph glyph-name="W" unicode="W" horiz-adv-x="833" 
d="M671 -11l154 744h-151l-91 -447l-87 447h-160l-94 -447l-84 447h-152l156 -744h158l96 474l97 -474h158z" />
    <glyph glyph-name="X" unicode="X" horiz-adv-x="556" 
d="M391 -11h175l-201 381l189 363h-175l-101 -209l-101 209h-175l189 -363l-201 -381h175l113 231z" />
    <glyph glyph-name="Y" unicode="Y" horiz-adv-x="556" 
d="M358 287l205 446h-168l-117 -269l-117 269h-168l206 -449v-295h159v298z" />
    <glyph glyph-name="Z" unicode="Z" horiz-adv-x="556" 
d="M5 -11h536v138h-342l338 481v125h-509v-138h304l-327 -474v-132z" />
    <glyph glyph-name="bracketleft" unicode="[" horiz-adv-x="333" 
d="M41 -95h256v82h-126v674h126v82h-256v-838z" />
    <glyph glyph-name="backslash" unicode="\" horiz-adv-x="278" 
d="M189 -21h132l-232 764h-132z" />
    <glyph glyph-name="bracketright" unicode="]" horiz-adv-x="333" 
d="M36 -95h256v838h-256v-82h126v-674h-126v-82z" />
    <glyph glyph-name="asciicircum" unicode="^" horiz-adv-x="600" 
d="M415 337h134l-192 396h-114l-191 -396h134l114 248z" />
    <glyph glyph-name="underscore" unicode="_" horiz-adv-x="500" 
d="M-11 -136h522v72h-522v-72z" />
    <glyph glyph-name="grave" unicode="`" horiz-adv-x="278" 
d="M114 575h126l-108 168h-187z" />
    <glyph glyph-name="a" unicode="a" horiz-adv-x="500" 
d="M320 -11l130.003 -0.00195312v22l3.5 2.5c2.33301 1.66699 2.83301 4.5 1.5 8.5c-2.66699 11.333 -4 26 -4 44v256c0 74.667 -16.167 129.834 -48.5 165.501s-86.5 53.5 -162.5 53.5c-43.333 0 -83.166 -8.83301 -119.499 -26.5s-66.166 -45.167 -89.499 -82.5l98 -74
c14 21.333 29.167 38.166 45.5 50.499s38.166 18.5 65.499 18.5c18 0 33.333 -4.33301 46 -13s19 -22.667 19 -42v-31c-16.667 -1.33301 -31.334 -3.33301 -44.001 -6c-34.667 -6.66699 -68.5 -15 -101.5 -25s-63.833 -26.333 -92.5 -49
c-40 -33.333 -60 -77.666 -60 -132.999c0 -22 3.66699 -42 11 -60s17.666 -33.667 30.999 -47s29.166 -23.666 47.499 -30.999s38.5 -11 60.5 -11c30 0 57.167 3.83301 81.5 11.5s49.166 19.5 74.499 35.5zM305.003 235.998l-0.000976562 -94.001
c-13.333 -10.667 -29.5 -21.5 -48.5 -32.5s-37.5 -16.5 -55.5 -16.5c-15.333 0 -27.166 4.5 -35.499 13.5s-12.5 20.833 -12.5 35.5c0 17.333 5.5 31.5 16.5 42.5s24.333 19.833 40 26.5s32.167 11.834 49.5 15.501z" />
    <glyph glyph-name="b" unicode="b" horiz-adv-x="556" 
d="M479 63c38 56 57 125.668 57 209.001c0 76 -20.333 139.667 -61 191c-42 52 -94.667 78 -158 78c-20.667 0 -41.667 -4 -63 -12s-39.666 -18.667 -54.999 -32v236h-146v-744h117l11 47c21.333 -18.667 42 -32.834 62 -42.501s44.333 -14.5 73 -14.5
c69.333 0 123.666 28 162.999 84zM361 379.001c9.33301 -14 16.3369 -30.834 21.0039 -50.501s7 -42.5 7 -68.5c0 -17.333 -1.33301 -35.333 -4 -54s-7.83398 -35.667 -15.501 -51s-18.334 -28.166 -32.001 -38.499s-31.167 -15.5 -52.5 -15.5c-19.333 0 -35 3.5 -47 10.5
s-25 16.833 -39 29.5v240c11.333 10 24.166 18.833 38.499 26.5s29.166 11.5 44.499 11.5c34.667 0 61 -13.333 79 -40z" />
    <glyph glyph-name="c" unicode="c" horiz-adv-x="500" 
d="M377 10c16.667 10.667 32.6699 25.001 48.0029 43.001s31.333 41.667 48 71l-113 64l-20 -32.5c-6.66699 -10.333 -14.167 -19.5 -22.5 -27.5s-17.666 -14.5 -27.999 -19.5s-22.5 -7.5 -36.5 -7.5c-33.333 0 -57 12.667 -71 38c-15.333 27.333 -23 67.666 -23 120.999
c0 54 7.66699 94.333 23 121c13.333 25.333 36.333 38 69 38c14 0 25.833 -2.16699 35.5 -6.5s18.167 -10.166 25.5 -17.499s13.666 -16 18.999 -26s10.333 -20.667 15 -32l123 48c-11.333 30.667 -24.333 55.834 -39 75.501s-32.334 35.167 -53.001 46.5
c-39.333 22.667 -81.666 34 -126.999 34c-72.667 0 -130.334 -25.333 -173.001 -76s-64 -119.334 -64 -206.001c0 -38 4.66699 -73.833 14 -107.5s23.666 -63.334 42.999 -89.001s44.166 -46 74.499 -61s66.166 -22.5 107.499 -22.5c50.667 0 92.334 10.333 125.001 31z" />
    <glyph glyph-name="d" unicode="d" horiz-adv-x="556" 
d="M377 -11l127.001 -0.000976562v744h-147v-236c-16 13.333 -34.5 24 -55.5 32s-41.833 12 -62.5 12c-62.667 0 -115 -26 -157 -78c-40.667 -51.333 -61 -114.666 -61 -189.999c0 -88.667 19 -159.334 57 -212.001c38.667 -54.667 92.667 -82 162 -82
c26 0 49.667 4.83301 71 14.5s41.666 22.834 60.999 39.501zM357.001 380.999v-240.001c-13.333 -12 -26 -21.667 -38 -29s-27.333 -11 -46 -11c-22 0 -39.833 5 -53.5 15s-24.5 22.667 -32.5 38s-13.333 32.5 -16 51.5s-4 37.167 -4 54.5s1.33301 35.333 4 54
s8 35.834 16 51.501s18.833 28.5 32.5 38.5s31.5 15 53.5 15c15.333 0 30.333 -3.66699 45 -11s27.667 -16.333 39 -27z" />
    <glyph glyph-name="e" unicode="e" horiz-adv-x="500" 
d="M376 5c18.667 8.66699 36.166 20.499 52.499 35.499s32.5 34.5 48.5 58.5l-108 68c-14.667 -19.333 -30.5 -35.166 -47.5 -47.499s-38.167 -18.5 -63.5 -18.5c-20 0 -36 3.66699 -48 11s-21.5 17 -28.5 29s-12 25.667 -15 41s-5.5 31 -7.5 47h314v70
c0 35.333 -6.16699 67.333 -18.5 96s-28.5 54.334 -48.5 77.001c-41.333 46 -93.666 69 -156.999 69c-41.333 0 -76.833 -7.66699 -106.5 -23s-54.167 -35.833 -73.5 -61.5s-33.5 -55.5 -42.5 -89.5s-13.5 -69.667 -13.5 -107c0 -36.667 4.5 -71.834 13.5 -105.501
s22.833 -63.5 41.5 -89.5s42.667 -46.833 72 -62.5s64.333 -23.5 105 -23.5c52 0 95.667 8.66699 131 26zM310.999 400.999c14.667 -16.667 23 -38.666 25 -65.999h-176c2 12.667 4.83301 24.667 8.5 36s8.83398 21.166 15.501 29.499s15.167 14.833 25.5 19.5
s23.166 7 38.499 7c26.667 0 47.667 -8.66699 63 -26z" />
    <glyph glyph-name="f" unicode="f" horiz-adv-x="333" 
d="M219 409h105v122h-105v47c0 20 6 32.167 18 36.5s26.667 6.5 44 6.5h41v122h-92c-56.667 0 -97.167 -12.5 -121.5 -37.5s-36.5 -65.5 -36.5 -121.5v-53h-71v-122h72v-420h146v420z" />
    <glyph glyph-name="g" unicode="g" horiz-adv-x="500" 
d="M74 35c-23.333 -7.33301 -41.332 -19.501 -53.999 -36.501s-19 -38.167 -19 -63.5c0 -30 8.66699 -54 26 -72s38.5 -31.667 63.5 -41s51.667 -15.5 80 -18.5s53.166 -4.5 74.499 -4.5c65.333 0 122.666 14.333 171.999 43c52.667 30.667 79 69 79 115
c0 30 -5 54.5 -15 73.5s-23.5 34 -40.5 45s-36.333 18.833 -58 23.5s-44.167 8.16699 -67.5 10.5s-46.666 4 -69.999 5s-45 3.5 -65 7.5c-10.667 2 -17.667 4.83301 -21 8.5s-5 7.83398 -5 12.501s3.5 8.5 10.5 11.5s14.833 5 23.5 6s17 1.66699 25 2s13.333 0.5 16 0.5
c30 0 58.333 3.16699 85 9.5s49.667 16.666 69 30.999s34.666 33 45.999 56s17 51.167 17 84.5c0 31.333 -7 59.666 -21 84.999c9.33301 4 21.333 6 36 6h37v106c-25.333 0 -49.833 -2 -73.5 -6s-44.5 -16 -62.5 -36c-37.333 28 -78.666 42 -123.999 42
c-28 0 -55 -4.16699 -81 -12.5s-49 -20.666 -69 -36.999s-36 -36.166 -48 -59.499s-18 -50 -18 -80c0 -28 5.83301 -53.667 17.5 -77s28.167 -43.666 49.5 -60.999c-18 -10.667 -34.333 -23.834 -49 -39.501s-22 -35.167 -22 -58.5c0 -33.333 18.667 -60.333 56 -81z
M290.001 404.999c14 -14 20.999 -32 20.999 -54c0 -19.333 -7.16699 -36.5 -21.5 -51.5s-31.5 -22.5 -51.5 -22.5c-21.333 0 -40 6.66699 -56 20s-24 31.333 -24 54c0 23.333 7.33301 41.833 22 55.5s33.667 20.5 57 20.5c20.667 0 38.334 -7.33301 53.001 -22zM319 -15.001
c16 -5.33301 26.835 -11.001 32.502 -17.001s8.5 -12 8.5 -18c0 -9.33301 -3.83301 -17 -11.5 -23s-16.834 -10.667 -27.501 -14s-21.5 -5.83301 -32.5 -7.5s-19.5 -2.5 -25.5 -2.5c-25.333 0 -46.333 1.16699 -63 3.5s-29.667 5.5 -39 9.5
c-16 8.66699 -24 20.334 -24 35.001c0 13.333 7 25 21 35c9.33301 7.33301 26.666 12 51.999 14c24 -1.33301 45 -3.33301 63 -6s33.333 -5.66699 46 -9z" />
    <glyph glyph-name="h" unicode="h" horiz-adv-x="556" 
d="M356 -11l146 -0.00390625v365c0 26 -3.16699 50.5 -9.5 73.5s-16 42.833 -29 59.5s-29.667 29.834 -50 39.501s-44.833 14.5 -73.5 14.5c-25.333 0 -50.166 -5.16699 -74.499 -15.5s-46.5 -23.166 -66.5 -38.499v246h-146v-744h146v382
c14 14.667 29.833 26.334 47.5 35.001s36.834 13 57.501 13c19.333 0 32.666 -6 39.999 -18c3.33301 -7.33301 6.16602 -16.666 8.49902 -27.999s3.5 -25.333 3.5 -42v-342z" />
    <glyph glyph-name="i" unicode="i" horiz-adv-x="278" 
d="M66 605h144v138h-144v-138zM66 -11h146v542h-146v-542z" />
    <glyph glyph-name="j" unicode="j" horiz-adv-x="278" 
d="M79 605h144v138h-144v-138zM186 -164c26 25.333 39.0039 66.667 39.0039 124v571h-146v-556c0 -5.33301 -0.333008 -11 -1 -17s-2.33398 -11.333 -5.00098 -16s-6.16699 -8.5 -10.5 -11.5s-9.83301 -4.16699 -16.5 -3.5l-54 4v-122
c13.333 -3.33301 26.166 -5.83301 38.499 -7.5s25.5 -2.5 39.5 -2.5c25.333 0 47.666 3 66.999 9s35.666 15.333 48.999 28z" />
    <glyph glyph-name="k" unicode="k" horiz-adv-x="500" 
d="M359 -11h157l-169 336l163 206h-170l-141 -184v386h-146v-744h146v167l49 57z" />
    <glyph glyph-name="l" unicode="l" horiz-adv-x="278" 
d="M66 -11h146v744h-146v-744z" />
    <glyph glyph-name="m" unicode="m" horiz-adv-x="833" 
d="M633 -11l145.998 0.00195312v390c0 21.333 -2.83301 41.666 -8.5 60.999s-14.334 36.5 -26.001 51.5s-26.167 27 -43.5 36s-37.666 13.5 -60.999 13.5c-36 0 -68 -5.5 -96 -16.5s-54.667 -28.5 -80 -52.5c-14.667 23.333 -33.667 40.666 -57 51.999
s-48.666 17 -75.999 17c-28.667 0 -54.167 -4 -76.5 -12s-44.166 -21 -65.499 -39v41h-136v-542h146v380l18 15c7.33301 6 15.166 11.5 23.499 16.5s16.833 9.33301 25.5 13s16.667 5.5 24 5.5c18.667 0 32.167 -5 40.5 -15s12.5 -24 12.5 -42v-373h146v380l18 15
c7.33301 6 15.333 11.5 24 16.5s17.167 9.33301 25.5 13s15.833 5.5 22.5 5.5c18.667 0 32.334 -5 41.001 -15s13 -24 13 -42v-373z" />
    <glyph glyph-name="n" unicode="n" horiz-adv-x="556" 
d="M356 -11l146.001 -0.00292969v365c0 26 -3.16699 50.5 -9.5 73.5s-16 42.833 -29 59.5s-29.667 29.834 -50 39.501s-44.833 14.5 -73.5 14.5c-28 0 -54.667 -5.16699 -80 -15.5s-49 -23.5 -71 -39.5v45h-136v-542h146v382c14 14.667 29.833 26.334 47.5 35.001
s36.834 13 57.501 13c19.333 0 32.666 -6 39.999 -18c3.33301 -7.33301 6.16602 -16.666 8.49902 -27.999s3.5 -25.333 3.5 -42v-342z" />
    <glyph glyph-name="o" unicode="o" horiz-adv-x="500" 
d="M424 57c42.667 51.333 64 119 64 203s-21.333 151.667 -64 203c-43.333 52 -101.333 78 -174 78s-130.334 -26 -173.001 -78c-42.667 -51.333 -64 -119 -64 -203s21.333 -151.667 64 -203c42.667 -52 100.334 -78 173.001 -78s130.667 26 174 78zM319 381
c15.333 -27.333 22.999 -67.665 22.999 -120.998c0 -15.333 -0.833008 -32.333 -2.5 -51s-5.66699 -36 -12 -52s-15.666 -29.333 -27.999 -40s-28.833 -16 -49.5 -16s-37 5.5 -49 16.5s-21.167 24.5 -27.5 40.5s-10.333 33.167 -12 51.5s-2.5 35.166 -2.5 50.499
s0.833008 32.166 2.5 50.499s5.66699 35.5 12 51.5s15.5 29.5 27.5 40.5s28.333 16.5 49 16.5c32 0 55 -12.667 69 -38z" />
    <glyph glyph-name="p" unicode="p" horiz-adv-x="556" 
d="M474 57c41.333 51.333 62 115.001 62 191.001c0 87.333 -19.333 157.666 -58 210.999c-38.667 54.667 -92.667 82 -162 82c-23.333 0 -45 -4 -65 -12s-39 -19 -57 -33v35h-141v-732h146v225c16 -14 34.333 -25 55 -33s41.667 -12 63 -12c62.667 0 115 26 157 78z
M361 379.001c9.33301 -14 16.335 -30.832 21.002 -50.499s7 -42.5 7 -68.5c0 -17.333 -1.5 -35.333 -4.5 -54s-8.33301 -35.834 -16 -51.501s-18.334 -28.5 -32.001 -38.5s-31.5 -15 -53.5 -15c-16 0 -31.167 3.83301 -45.5 11.5s-27.166 16.5 -38.499 26.5v240
c13.333 12.667 26.166 22.5 38.499 29.5s28.166 10.5 47.499 10.5c34 0 59.333 -13.333 76 -40z" />
    <glyph glyph-name="q" unicode="q" horiz-adv-x="556" 
d="M358 -201l146 0.000976562v732h-118l-11 -46c-20 17.333 -40.333 31 -61 41s-45 15 -73 15c-40.667 0 -75 -8.83301 -103 -26.5s-50.667 -40.5 -68 -68.5s-29.833 -59.333 -37.5 -94s-11.5 -69.334 -11.5 -104.001c0 -76 20.333 -139.667 61 -191
c42 -52 94.333 -78 157 -78c20 0 41 4 63 12s40.667 18.667 56 32v-224zM357 379.001v-239.001c-10.667 -10 -23 -19 -37 -27s-28.667 -12 -44 -12c-22.667 0 -41 4.83301 -55 14.5s-25 22.167 -33 37.5s-13.5 32.5 -16.5 51.5s-4.5 37.5 -4.5 55.5
c0 17.333 1.33301 35.333 4 54s8 35.834 16 51.501s18.833 28.5 32.5 38.5s31.5 15 53.5 15c18.667 0 34 -3.66699 46 -11s24.667 -17 38 -29z" />
    <glyph glyph-name="r" unicode="r" horiz-adv-x="333" 
d="M299 389l29.999 -2v154c-32 0 -60.167 -5.33301 -84.5 -16s-45.5 -29.334 -63.5 -56.001v62h-136v-542h146v327c6.66699 14.667 20.334 30.334 41.001 47.001c22.667 18 45 26.667 67 26z" />
    <glyph glyph-name="s" unicode="s" horiz-adv-x="444" 
d="M365 22c38 30 57.0029 68.668 57.0029 116.001c0 46 -12.333 84.333 -37 115c-12.667 14.667 -27.167 26.667 -43.5 36s-33.333 17.166 -51 23.499l-53.5 18.5c-18 6 -35.333 13.667 -52 23c-16 9.33301 -24 20.333 -24 33c0 16.667 6.33301 27.5 19 32.5s26 7.5 40 7.5
c19.333 0 37.166 -6.5 53.499 -19.5s30.5 -26.5 42.5 -40.5l95 83c-28.667 32 -58.334 55.167 -89.001 69.5s-67.334 21.5 -110.001 21.5c-24 0 -47.167 -3.5 -69.5 -10.5s-41.833 -17.333 -58.5 -31s-30 -30.5 -40 -50.5s-15 -43 -15 -69c0 -52 16.333 -90.333 49 -115
c32 -23.333 67 -42 105 -56l52.5 -21c14.333 -6 25.5 -11.333 33.5 -16c13.333 -7.33301 20 -18 20 -32c0 -8.66699 -2 -16 -6 -22s-9.16699 -10.833 -15.5 -14.5s-13.333 -6.33398 -21 -8.00098s-15.167 -2.5 -22.5 -2.5c-12.667 0 -24.667 2.33301 -36 7
s-21.833 10.834 -31.5 18.501s-18.667 16.167 -27 25.5s-15.5 19 -21.5 29l-101 -76c17.333 -24 34.166 -43.5 50.499 -58.5s33.833 -26.833 52.5 -35.5c36 -16 73.333 -24 112 -24c58.667 0 106.334 14.333 143.001 43z" />
    <glyph glyph-name="t" unicode="t" horiz-adv-x="333" 
d="M269 -19c7.33301 0.666992 15 1.5 23 2.5s17.667 2.83301 29 5.5v125l-36 -9c-10.667 -2.66699 -21.667 -4 -33 -4c-10 0 -18 1.33301 -24 4s-9 9.66699 -9 21v283h102v122h-102v172h-146v-172h-72v-122h72v-301c0 -44 12.333 -76.5 37 -97.5s58 -31.5 100 -31.5
c12 0 23 0.166992 33 0.5s18.667 0.833008 26 1.5z" />
    <glyph glyph-name="u" unicode="u" horiz-adv-x="556" 
d="M367 -11l135 -0.00195312v542h-146v-383c-12.667 -13.333 -28 -24.5 -46 -33.5s-36.667 -13.5 -56 -13.5c-21.333 0 -35.333 5.66699 -42 17c-8.66699 12 -13 33 -13 63v350h-146v-369c0 -26 3.16699 -50.167 9.5 -72.5s16.333 -41.666 30 -57.999
s30.667 -29.166 51 -38.499s44.5 -14 72.5 -14c29.333 0 56 5.5 80 16.5s47.667 24.167 71 39.5v-46z" />
    <glyph glyph-name="v" unicode="v" horiz-adv-x="444" 
d="M293 -11l156 542h-148l-80 -321l-78 321h-147l151 -542h146z" />
    <glyph glyph-name="w" unicode="w" horiz-adv-x="667" 
d="M532 -11l138 542h-140l-66 -289l-64 289h-133l-67 -290l-63 290h-141l139 -542h130l68 292l69 -292h130z" />
    <glyph glyph-name="x" unicode="x" horiz-adv-x="444" 
d="M301 -11h158l-164 281l152 261h-160l-67 -131l-66 131h-163l153 -261l-159 -281h159l77 149z" />
    <glyph glyph-name="y" unicode="y" horiz-adv-x="444" 
d="M277 -15l174 546h-148l-82 -293l-79 293h-148l158 -505l1 -18c-6 -22.667 -14.333 -42.667 -25 -60c-5.33301 -8 -13 -14.5 -23 -19.5s-23.667 -6.83301 -41 -5.5l-65 5v-124l71 -5c28.667 -2 54.167 2 76.5 12s42 23.833 59 41.5s31.333 38.167 43 61.5
s21.167 47 28.5 71z" />
    <glyph glyph-name="z" unicode="z" horiz-adv-x="444" 
d="M7 -11h431v122h-242l239 316v104h-408l-1 -122h221l-240 -317v-103z" />
    <glyph glyph-name="braceleft" unicode="{" horiz-adv-x="333" 
d="M212 -95l77 -0.00585938v82h-62c-11.333 0 -19.166 4.5 -23.499 13.5s-6.5 18.167 -6.5 27.5v186c0 22.667 -3.66699 43.834 -11 63.501s-21.666 35.167 -42.999 46.5c21.333 11.333 35.666 26.833 42.999 46.5s11 40.834 11 63.501v186c0 9.33301 2.16699 18.5 6.5 27.5
s12.166 13.5 23.499 13.5h62v82h-77c-25.333 0 -47.666 -3.16699 -66.999 -9.5s-34.666 -16.166 -45.999 -29.499c-21.333 -25.333 -32 -55 -32 -89v-199c0 -14 -5.33301 -26 -16 -36c-5.33301 -5.33301 -12 -9.16602 -20 -11.499s-19.667 -3.5 -35 -3.5v-82
c15.333 0 27 -1.16699 35 -3.5s14.667 -6.16602 20 -11.499c10.667 -10 16 -22 16 -36v-199c0 -34 10.667 -63.667 32 -89c11.333 -13.333 26.666 -23.166 45.999 -29.499s41.666 -9.5 66.999 -9.5z" />
    <glyph glyph-name="bar" unicode="|" horiz-adv-x="222" 
d="M46 -21h130v764h-130v-764z" />
    <glyph glyph-name="braceright" unicode="}" horiz-adv-x="333" 
d="M282 268c5.33301 5.33301 11.833 9.16797 19.5 11.501s18.834 3.5 33.501 3.5v82c-14.667 0 -25.834 1.16699 -33.501 3.5s-14.167 6.16602 -19.5 11.499c-10.667 10 -16 22 -16 36v199c0 34 -10.667 63.667 -32 89c-21.333 26 -58.333 39 -111 39h-77v-82h61
c11.333 0 19 -4.5 23 -13.5s6 -18.167 6 -27.5v-186c0 -22 3.5 -43 10.5 -63s20.833 -35.667 41.5 -47c-20.667 -11.333 -34.5 -27 -41.5 -47s-10.5 -41 -10.5 -63v-186c0 -9.33301 -2 -18.5 -6 -27.5s-11.667 -13.5 -23 -13.5h-61v-82h77c52.667 0 89.667 13 111 39
c21.333 25.333 32 55 32 89v199c0 14 5.33301 26 16 36z" />
    <glyph glyph-name="asciitilde" unicode="~" horiz-adv-x="600" 
d="M488 192c21.333 17.333 39.334 39.667 54.001 67l-45 116c-14.667 -23.333 -25.834 -40.333 -33.501 -51s-14.167 -18 -19.5 -22c-10.667 -8.66699 -22.667 -13 -36 -13c-16.667 0 -33.167 3.5 -49.5 10.5s-33 14.833 -50 23.5s-34.833 16.5 -53.5 23.5
s-38.334 10.5 -59.001 10.5c-33.333 0 -61.166 -9 -83.499 -27s-40.833 -41 -55.5 -69l46 -117c13.333 24 23.833 41.333 31.5 52s14.167 18 19.5 22c10.667 8.66699 23 13 37 13c16.667 0 33.167 -3.5 49.5 -10.5s33 -14.833 50 -23.5s34.833 -16.5 53.5 -23.5
s38.667 -10.5 60 -10.5c32.667 0 60.667 9.66699 84 29z" />
    <glyph glyph-name="exclamdown" unicode="&#xa1;" horiz-adv-x="333" 
d="M86 388h161v164h-161v-164zM81 -192h172l-28 500h-116z" />
    <glyph glyph-name="cent" unicode="&#xa2;" 
d="M437 505l49.002 133.999h-82l-38 -105c-18 4.66699 -37.333 7 -58 7c-72.667 0 -130.334 -25.333 -173.001 -76s-64 -119.334 -64 -206.001c0 -42 5.16699 -80.167 15.5 -114.5s26.166 -64.166 47.499 -89.499c10.667 -13.333 25.667 -26.666 45 -39.999l-55 -151h82
l44 121c16 -4 36 -6 60 -6c28.667 0 53.667 3 75 9s40.666 15.167 57.999 27.5s33 27.5 47 45.5s27.667 39 41 63l-113 64l-20 -32.5c-6.66699 -10.333 -14.167 -19.5 -22.5 -27.5s-17.666 -14.5 -27.999 -19.5s-22.5 -7.5 -36.5 -7.5h-11
c-3.33301 0 -6.33301 0.333008 -9 1l97 268c2.66699 -4.66699 5.16699 -9.5 7.5 -14.5l8.5 -18.5l123 48c-20.667 57.333 -50.667 97.333 -90 120zM231.002 159.999c-9.33301 26 -14 59.333 -14 100c0 54 7.66699 94.333 23 121c13.333 25.333 36.333 38 69 38
c7.33301 0 12.333 -0.333008 15 -1z" />
    <glyph glyph-name="sterling" unicode="&#xa3;" 
d="M527 44c15.333 21.333 26.998 47.0039 34.998 77.0039s12.667 66 14 108h-142c-1.33301 -26 -3.66602 -46 -6.99902 -60s-7.66602 -24.667 -12.999 -32c-9.33301 -13.333 -26 -20 -50 -20c-18.667 0 -36.667 3.5 -54 10.5s-33.666 15.167 -48.999 24.5
c9.33301 23.333 15.666 48.166 18.999 74.499s5.33301 51.833 6 76.5h116v116h-133c-4.66699 16.667 -8.33398 33.167 -11.001 49.5s-3.66699 33.166 -3 50.499c0 13.333 1.16699 25.666 3.5 36.999s6.33301 21.333 12 30s13.167 15.334 22.5 20.001s21.666 7 36.999 7
c16.667 0 30.334 -2.66699 41.001 -8s19.167 -12.833 25.5 -22.5s10.833 -20.834 13.5 -33.501s5 -26.334 7 -41.001h141c0 38.667 -5 72 -15 100s-25 52.333 -45 73c-39.333 41.333 -94.333 62 -165 62c-34.667 0 -66.167 -4.16699 -94.5 -12.5
s-52.5 -21.166 -72.5 -38.499s-35.5 -39.333 -46.5 -66s-16.5 -58 -16.5 -94c0 -36.667 3.66699 -74.334 11 -113.001h-79v-116h96c0.666992 -13.333 1.5 -25.666 2.5 -36.999s1.16699 -22.333 0.5 -33s-2.5 -21.5 -5.5 -32.5s-7.83301 -22.833 -14.5 -35.5
c-6 -11.333 -14.5 -20.333 -25.5 -27s-26.833 -11.334 -47.5 -14.001v-145c32 0 59.833 4 83.5 12s46.834 23.667 69.501 47c31.333 -21.333 62.833 -36.5 94.5 -45.5s66.5 -13.5 104.5 -13.5c57.333 0 102 21.667 134 65z" />
    <glyph glyph-name="currency" unicode="&#xa4;" 
d="M503 86l77 76.999l-51 53c14.667 22 25 45.167 31 69.5s9 49.5 9 75.5c0 52.667 -13.333 101.334 -40 146.001l51 52l-77 77l-53 -51c-22 14.667 -45.167 25.167 -69.5 31.5s-49.5 9.5 -75.5 9.5c-52 0 -100.667 -13.667 -146 -41l-52 51l-79 -77l53 -52
c-27.333 -44 -41 -92.667 -41 -146c0 -26 3.16699 -51.167 9.5 -75.5s16.833 -47.5 31.5 -69.5l-53 -53l79 -77l52 51c44 -27.333 92.667 -41 146 -41c26 0 51.167 3.33301 75.5 10s47.5 17 69.5 31zM399 455.999c26 -27.333 39.001 -59 39.001 -95
c0 -18.667 -3.5 -36.167 -10.5 -52.5s-16.5 -30.5 -28.5 -42.5s-26.167 -21.5 -42.5 -28.5s-33.833 -10.5 -52.5 -10.5s-36 3.5 -52 10.5s-30 16.5 -42 28.5s-21.5 26.167 -28.5 42.5s-10.5 33.833 -10.5 52.5s3.5 36.167 10.5 52.5s16.5 30.5 28.5 42.5
s26.167 21.5 42.5 28.5s33.833 10.5 52.5 10.5c35.333 0 66.666 -13 93.999 -39z" />
    <glyph glyph-name="yen" unicode="&#xa5;" 
d="M467 469l134 264h-149l-147 -296l-146 296h-149l134 -264h-87v-116h146l23 -46h-169v-116h180v-202h136v202h180v116h-168l23 46h145v116h-86z" />
    <glyph glyph-name="brokenbar" unicode="&#xa6;" horiz-adv-x="222" 
d="M46 439h130v304h-130v-304zM46 -21h130v304h-130v-304z" />
    <glyph glyph-name="section" unicode="&#xa7;" horiz-adv-x="500" 
d="M424 181c24.667 24 37 54.666 37 91.999c0 23.333 -6.33301 45.666 -19 66.999c-9.33301 16.667 -21.333 33.5 -36 50.5s-30.334 33.667 -47.001 50s-33.334 31.833 -50.001 46.5l-44 40l-15.5 16c-5.66699 6 -11 12.333 -16 19s-9.16699 13.834 -12.5 21.501
s-5 15.167 -5 22.5c0 13.333 3.83301 22.666 11.5 27.999s17.834 8 30.501 8c18 0 34 -6.33301 48 -19s25.333 -26 34 -40l85 66c-13.333 16 -26.166 30 -38.499 42s-25.333 21.833 -39 29.5s-28.834 13.334 -45.501 17.001s-35.667 5.5 -57 5.5
c-18.667 0 -36.667 -2.66699 -54 -8s-32.833 -13.333 -46.5 -24s-24.5 -23.667 -32.5 -39s-12 -33.333 -12 -54c0 -22 3 -42 9 -60s16.667 -35 32 -51c-30.667 -7.33301 -55.167 -22.5 -73.5 -45.5s-27.5 -50.5 -27.5 -82.5c0 -23.333 6.33301 -45.666 19 -66.999
c8.66699 -16.667 20.5 -33.5 35.5 -50.5s30.833 -33.667 47.5 -50s33.334 -31.833 50.001 -46.5l44 -40l15.5 -16c5.66699 -6 11 -12.333 16 -19s9.16699 -13.834 12.5 -21.501s5 -15.167 5 -22.5c0 -13.333 -3.83301 -22.666 -11.5 -27.999s-17.834 -8 -30.501 -8
c-18 0 -34 6.33301 -48 19s-25.333 26 -34 40l-85 -66c13.333 -16 26.166 -30 38.499 -42s25.333 -21.833 39 -29.5s28.834 -13.334 45.501 -17.001s35.667 -5.5 57 -5.5c18.667 0 36.667 2.66699 54 8s32.833 13.166 46.5 23.499s24.5 23.333 32.5 39s12 33.834 12 54.501
c0 22 -3.16699 41.833 -9.5 59.5s-17.166 34.834 -32.499 51.501c24 4.66699 45.667 16.667 65 36zM336 283.999c6 -8 9 -15.999 9 -23.999c0 -11.333 -2 -18.833 -6 -22.5s-11.667 -5.5 -23 -5.5h-7c-18.667 6 -35 16.667 -49 32c-15.333 17.333 -31.5 34.166 -48.5 50.499
s-32.5 34.166 -46.5 53.499c-6 8 -9 16 -9 24c0 11.333 2 18.833 6 22.5s11.667 5.5 23 5.5h7c17.333 -4.66699 33.333 -15.334 48 -32.001c16 -17.333 32.5 -34.166 49.5 -50.499s32.5 -34.166 46.5 -53.499z" />
    <glyph glyph-name="dieresis" unicode="&#xa8;" horiz-adv-x="278" 
d="M164 585h142v138h-142v-138zM-26 585h142v138h-142v-138z" />
    <glyph glyph-name="copyright" unicode="&#xa9;" horiz-adv-x="800" 
d="M678 84c76.667 76.667 115 169.334 115 278.001s-38.333 201.334 -115 278.001s-169.334 115 -278.001 115s-201.334 -38.333 -278.001 -115s-115 -169.334 -115 -278.001s38.333 -201.334 115 -278.001s169.334 -115 278.001 -115s201.334 38.333 278.001 115zM603 565
c56 -57.333 84 -125 84 -203c0 -78.667 -28 -146.334 -84 -203.001c-57.333 -56 -125 -84 -203 -84c-78.667 0 -146.334 28 -203.001 84c-56 56.667 -84 124.334 -84 203.001c0 78 28 145.667 84 203c56.667 56 124.334 84 203.001 84c78 0 145.667 -28 203 -84zM538 181
c18 15.333 32.665 33.666 43.998 54.999s19.666 48.333 24.999 81h-113c-3.33301 -25.333 -11 -43.166 -23 -53.499s-30.667 -15.5 -56 -15.5c-16 0 -29.833 3.66699 -41.5 11s-21.167 16.833 -28.5 28.5s-12.833 24.5 -16.5 38.5s-5.5 28 -5.5 42
c0 14.667 1.66699 28.667 5 42s8.66602 25.333 15.999 36s16.666 19.167 27.999 25.5s25.333 9.5 42 9.5c22 0 40 -5 54 -15s22.667 -26.333 26 -49h109c-5.33301 31.333 -13.166 57.333 -23.499 78s-24.166 38.334 -41.499 53.001c-33.333 28.667 -73.333 43 -120 43
c-34 0 -64.667 -5.5 -92 -16.5s-50.666 -26.333 -69.999 -46s-34.333 -43.334 -45 -71.001s-16 -58.167 -16 -91.5c0 -34 5.33301 -65 16 -93s25.834 -52 45.501 -72s43.334 -35.5 71.001 -46.5s58.5 -16.5 92.5 -16.5c42.667 0 82 14.333 118 43z" />
    <glyph glyph-name="ordfeminine" unicode="&#xaa;" horiz-adv-x="300" 
d="M287 425l4.00293 -0.00195312c2.66699 0 3.66699 1.33301 3 4c-2 6.66699 -3 15 -3 25v153c0 48.667 -11.5 83.5 -34.5 104.5s-58.5 31.5 -106.5 31.5c-30 0 -56.833 -5.5 -80.5 -16.5s-43.834 -29.167 -60.501 -54.5l70 -49c9.33301 13.333 19.166 23.833 29.499 31.5
s24.166 11.5 41.499 11.5c9.33301 0 18 -2 26 -6s12 -11.667 12 -23v-14c-14.667 -2 -28.5 -4 -41.5 -6s-25.5 -4.66699 -37.5 -8s-24 -7.66602 -36 -12.999s-24.333 -12.666 -37 -21.999c-27.333 -20 -41 -47.667 -41 -83c0 -29.333 9.83301 -52.333 29.5 -69
s43.5 -25 71.5 -25c35.333 0 68.333 8.66699 99 26l4 -20h88v22zM188.003 549.998l-0.000976562 -48c-8.66699 -6 -18.667 -12.167 -30 -18.5s-22.333 -9.5 -33 -9.5c-8 0 -14.667 2 -20 6s-8 10.333 -8 19s2.66699 15.667 8 21c8.66699 8 19.334 14.167 32.001 18.5
s24.667 7.5 36 9.5z" />
    <glyph glyph-name="guillemotleft" unicode="&#xab;" horiz-adv-x="556" 
d="M367 89l-128 171l128 171h140l-131 -171l131 -171h-140zM164 89l-128 171l128 171h140l-131 -171l131 -171h-140z" />
    <glyph glyph-name="logicalnot" unicode="&#xac;" horiz-adv-x="600" 
d="M442 84h128v350h-541v-128h413v-222z" />
    <glyph glyph-name="registered" unicode="&#xae;" horiz-adv-x="800" 
d="M678 84c76.667 76.667 115 169.334 115 278.001s-38.333 201.334 -115 278.001s-169.334 115 -278.001 115s-201.334 -38.333 -278.001 -115s-115 -169.334 -115 -278.001s38.333 -201.334 115 -278.001s169.334 -115 278.001 -115s201.334 38.333 278.001 115zM603 565
c56 -57.333 84 -125 84 -203c0 -78.667 -28 -146.334 -84 -203.001c-57.333 -56 -125 -84 -203 -84c-78.667 0 -146.334 28 -203.001 84c-56 56.667 -84 124.334 -84 203.001c0 78 28 145.667 84 203c56.667 56 124.334 84 203.001 84c78 0 145.667 -28 203 -84zM545 354
c22.667 20.667 34 49.999 34 87.999c0 28 -4.83301 50.833 -14.5 68.5s-22.667 31.334 -39 41.001s-35.5 16.167 -57.5 19.5s-45 5 -69 5h-161v-428h110v170h24l95 -170h115l-107 177c28 3.33301 51.333 13 70 29zM457 476.999c3.33301 -2 6.16602 -5 8.49902 -9
s3.5 -9.66699 3.5 -17c0 -18.667 -6.16699 -30.5 -18.5 -35.5s-26.166 -7.5 -41.499 -7.5h-61v78h65c20 0 34.667 -3 44 -9z" />
    <glyph glyph-name="macron" unicode="&#xaf;" horiz-adv-x="278" 
d="M-45 607h369v96h-369v-96z" />
    <glyph glyph-name="degree" unicode="&#xb0;" horiz-adv-x="400" 
d="M309 480c30 30 45 66.333 45 109c0 21.333 -4 41.333 -12 60s-19 35 -33 49s-30.333 25 -49 33s-38.667 12 -60 12s-41.333 -4 -60 -12s-35 -19 -49 -33s-25 -30.333 -33 -49s-12 -38.667 -12 -60s4 -41.333 12 -60s19 -35 33 -49s30.333 -25 49 -33s38.667 -12 60 -12
c42.667 0 79 15 109 45zM249 638c13.333 -14.667 19.999 -30.999 19.999 -48.999c0 -19.333 -6.66699 -35.666 -20 -48.999s-29.666 -20 -48.999 -20s-35.666 6.66699 -48.999 20s-20 29.666 -20 48.999s6.66699 35.666 20 48.999s29.666 20 48.999 20
c18 0 34.333 -6.66699 49 -20z" />
    <glyph glyph-name="plusminus" unicode="&#xb1;" horiz-adv-x="600" 
d="M364 269h206v130h-206v132h-130v-132h-205v-130h205v-132h130v132zM29 -11h541v130h-541v-130z" />
    <glyph glyph-name="twosuperior" unicode="&#xb2;" horiz-adv-x="366" 
d="M2 281l353.001 -0.00195312v89h-212c16 12.667 32.167 24.834 48.5 36.501l48.5 34.5l42 31.5c14 11 26.333 23.167 37 36.5s19.334 27.833 26.001 43.5s10 33.167 10 52.5c0 24 -5 44.667 -15 62s-23.167 31.5 -39.5 42.5s-34.833 19.167 -55.5 24.5
s-41.334 8 -62.001 8c-45.333 0 -84.333 -11.333 -117 -34c-17.333 -12 -31.166 -26.167 -41.499 -42.5s-17.833 -36.833 -22.5 -61.5l99 -20c5.33301 22.667 14.666 40.167 27.999 52.5s31.666 18.5 54.999 18.5c15.333 0 29.166 -3.66699 41.499 -11
s18.5 -19.666 18.5 -36.999c0 -9.33301 -3.5 -19 -10.5 -29s-15.5 -19.833 -25.5 -29.5s-20.167 -18.5 -30.5 -26.5s-18.833 -14.333 -25.5 -19l-51 -36.5c-16 -11.667 -31 -23.167 -45 -34.5s-25.667 -22.5 -35 -33.5s-15.666 -22.167 -18.999 -33.5v-84z" />
    <glyph glyph-name="threesuperior" unicode="&#xb3;" horiz-adv-x="366" 
d="M310 313c35.333 25.333 52.999 59.3281 52.999 101.995c0 26 -6.33301 48.5 -19 67.5s-30.667 33.833 -54 44.5c17.333 10 31 23 41 39s15 34 15 54c0 22.667 -5.5 41.834 -16.5 57.501s-25 28.334 -42 38.001s-35.667 16.5 -56 20.5s-39.833 6 -58.5 6
c-33.333 0 -63.333 -6.33301 -90 -19s-51.667 -30.667 -75 -54l75 -61c13.333 14 27.166 25.333 41.499 34s31.833 13 52.5 13c6 0 12.5 -0.666992 19.5 -2s13.333 -3.66602 19 -6.99902s10.5 -7.66602 14.5 -12.999s6 -11.666 6 -18.999
c0 -12.667 -4.66699 -22.334 -14 -29.001s-20.166 -11.5 -32.499 -14.5s-25 -4.66699 -38 -5s-23.5 -0.5 -31.5 -0.5h-16v-87h20c9.33301 0 21.333 -0.333008 36 -1s28.834 -3 42.501 -7s25.334 -10 35.001 -18s14.5 -19.333 14.5 -34c0 -10 -2.16699 -18.5 -6.5 -25.5
s-10 -12.667 -17 -17s-14.833 -7.66602 -23.5 -9.99902s-17 -3.5 -25 -3.5c-44.667 0 -78.334 19 -101.001 57l-90 -44c18.667 -33.333 45.5 -58.333 80.5 -75s70.833 -25 107.5 -25c54.667 0 99 12.667 133 38z" />
    <glyph glyph-name="acute" unicode="&#xb4;" horiz-adv-x="278" 
d="M164 575l169 168h-187l-108 -168h126z" />
    <glyph glyph-name="mu" unicode="&#xb5;" horiz-adv-x="556" 
d="M367 -11h135v542h-146v-383c-12.667 -13.333 -28 -24.5 -46 -33.5s-36.667 -13.5 -56 -13.5c-21.333 0 -35.333 5.66699 -42 17c-8.66699 12 -13 33 -13 63v350h-146v-732h146v181l16 -1c28 -2 54.833 3.16699 80.5 15.5s49.5 25.833 71.5 40.5v-46z" />
    <glyph glyph-name="paragraph" unicode="&#xb6;" horiz-adv-x="620" 
d="M524 627l73 -0.00195312v106h-362c-32.667 0 -62.667 -3.5 -90 -10.5s-50.833 -18.167 -70.5 -33.5s-35 -35.166 -46 -59.499s-16.5 -54.166 -16.5 -89.499c0 -29.333 5.16699 -55 15.5 -77s24.333 -40.667 42 -56s38.5 -27 62.5 -35s49.667 -12.667 77 -14v-437h124v706
h67v-706h124v706z" />
    <glyph glyph-name="periodcentered" unicode="&#xb7;" horiz-adv-x="305" 
d="M72 177h160v164h-160v-164z" />
    <glyph glyph-name="periodcentered" unicode="&#x2219;" horiz-adv-x="305" 
d="M72 177h160v164h-160v-164z" />
    <glyph glyph-name="cedilla" unicode="&#xb8;" horiz-adv-x="278" 
d="M228 -211c26.667 19.333 39.999 44.998 39.999 76.998c0 14.667 -2.66699 27.5 -8 38.5s-12.5 20 -21.5 27s-19.667 12.333 -32 16s-25.166 5.5 -38.499 5.5l-12 -2l41 60h-80l-67 -102l30 -31l49 7c8 0 14.833 -1.16699 20.5 -3.5s8.5 -8.16602 8.5 -17.499
c0 -13.333 -3.5 -21.666 -10.5 -24.999s-16.833 -5 -29.5 -5c-16 0 -30.333 1.83301 -43 5.5l-42 12.5l-27 -61c20 -8 40.167 -15.167 60.5 -21.5s41.5 -9.5 63.5 -9.5c39.333 0 72 9.66699 98 29z" />
    <glyph glyph-name="onesuperior" unicode="&#xb9;" horiz-adv-x="366" 
d="M58 281h262.001v82h-77v379h-83c-15.333 -12.667 -33.333 -20.667 -54 -24s-40.334 -5.33301 -59.001 -6v-72h87v-277h-76v-82z" />
    <glyph glyph-name="ordmasculine" unicode="&#xba;" horiz-adv-x="300" 
d="M264 445c28.667 31.333 43.001 72.999 43.001 124.999c0 24 -3.5 46.667 -10.5 68s-17.167 39.666 -30.5 54.999s-29.833 27.5 -49.5 36.5s-42.167 13.5 -67.5 13.5s-47.833 -4.5 -67.5 -13.5s-36.167 -21.167 -49.5 -36.5s-23.5 -33.666 -30.5 -54.999
s-10.5 -44 -10.5 -68s3.5 -46.667 10.5 -68s17.167 -39.666 30.5 -54.999s29.833 -27.5 49.5 -36.5s42.167 -13.5 67.5 -13.5c47.333 0 85.666 16 114.999 48zM190.001 639.999c9.33301 -15.333 14 -38.667 14 -70c0 -9.33301 -0.5 -19.333 -1.5 -30
s-3.33301 -20.5 -7 -29.5s-9.16699 -16.5 -16.5 -22.5s-17.333 -9 -30 -9s-22.667 2.83301 -30 8.5s-13 13 -17 22s-6.5 18.833 -7.5 29.5s-1.5 21 -1.5 31s0.5 20.333 1.5 31s3.5 20.5 7.5 29.5s9.66699 16.333 17 22s17.333 8.5 30 8.5c19.333 0 33 -7 41 -21z" />
    <glyph glyph-name="guillemotright" unicode="&#xbb;" horiz-adv-x="556" 
d="M391 89h-140l129 171l-129 171h140l126 -171zM188 89h-140l129 171l-129 171h140l126 -171z" />
    <glyph glyph-name="onequarter" unicode="&#xbc;" horiz-adv-x="916" 
d="M833 89h69v82h-69v273h-112l-216 -264v-91h221l1 -29v-71h106v100zM304 -21l427 765h-114l-426 -765h113zM68 281h262.001v82h-77v379h-83c-15.333 -12.667 -33.333 -20.667 -54 -24s-40.334 -5.33301 -59.001 -6v-72h87v-277h-76v-82zM726.001 322v-151h-119z" />
    <glyph glyph-name="onehalf" unicode="&#xbd;" horiz-adv-x="916" 
d="M509 -11l353.001 -0.00195312v89h-212c16 12.667 32.167 24.834 48.5 36.501l48.5 34.5l42 31.5c14 11 26.333 23.167 37 36.5s19.334 27.833 26.001 43.5s10 33.167 10 52.5c0 24 -5 44.667 -15 62s-23.167 31.5 -39.5 42.5s-34.833 19.167 -55.5 24.5
s-41.334 8 -62.001 8c-45.333 0 -84.333 -11.333 -117 -34c-17.333 -12 -31.166 -26.167 -41.499 -42.5s-17.833 -36.833 -22.5 -61.5l99 -20c5.33301 22.667 14.666 40.167 27.999 52.5s31.666 18.5 54.999 18.5c15.333 0 29.166 -3.66699 41.499 -11
s18.5 -19.666 18.5 -36.999c0 -9.33301 -3.5 -19 -10.5 -29s-15.5 -19.833 -25.5 -29.5s-20.167 -18.5 -30.5 -26.5s-18.833 -14.333 -25.5 -19l-51 -36.5c-16 -11.667 -31 -23.167 -45 -34.5s-25.667 -22.5 -35 -33.5s-15.666 -22.167 -18.999 -33.5v-84zM289.001 -21.002
l427 765h-114l-426 -765h113zM68.001 280.998h262.001v82h-77v379h-83c-15.333 -12.667 -33.333 -20.667 -54 -24s-40.334 -5.33301 -59.001 -6v-72h87v-277h-76v-82z" />
    <glyph glyph-name="threequarters" unicode="&#xbe;" horiz-adv-x="916" 
d="M836 89h69v82h-69v273h-112l-216 -264v-91h221l1 -29v-71h106v100zM320 -21l427 765h-114l-426 -765h113zM321 313c35.333 25.333 52.999 59.3281 52.999 101.995c0 26 -6.33301 48.5 -19 67.5s-30.667 33.833 -54 44.5c17.333 10 31 23 41 39s15 34 15 54
c0 22.667 -5.5 41.834 -16.5 57.501s-25 28.334 -42 38.001s-35.667 16.5 -56 20.5s-39.833 6 -58.5 6c-33.333 0 -63.333 -6.33301 -90 -19s-51.667 -30.667 -75 -54l75 -61c13.333 14 27.166 25.333 41.499 34s31.833 13 52.5 13c6 0 12.5 -0.666992 19.5 -2
s13.333 -3.66602 19 -6.99902s10.5 -7.66602 14.5 -12.999s6 -11.666 6 -18.999c0 -12.667 -4.66699 -22.334 -14 -29.001s-20.166 -11.5 -32.499 -14.5s-25 -4.66699 -38 -5s-23.5 -0.5 -31.5 -0.5h-16v-87h20c9.33301 0 21.333 -0.333008 36 -1s28.834 -3 42.501 -7
s25.334 -10 35.001 -18s14.5 -19.333 14.5 -34c0 -10 -2.16699 -18.5 -6.5 -25.5s-10 -12.667 -17 -17s-14.833 -7.66602 -23.5 -9.99902s-17 -3.5 -25 -3.5c-44.667 0 -78.334 19 -101.001 57l-90 -44c18.667 -33.333 45.5 -58.333 80.5 -75s70.833 -25 107.5 -25
c54.667 0 99 12.667 133 38zM728.999 321.995v-151h-119z" />
    <glyph glyph-name="questiondown" unicode="&#xbf;" horiz-adv-x="444" 
d="M164 389h161v164h-161v-164zM370 -157c18.667 15.333 34.168 33.333 46.501 54s22.166 46.334 29.499 77.001l-137 38c-2.66699 -17.333 -6 -31.333 -10 -42s-9.66699 -19.667 -17 -27c-14 -14.667 -28.667 -22 -44 -22c-12 0 -23.833 4 -35.5 12s-17.5 18.667 -17.5 32
c0 9.33301 3 21.666 9 36.999c8.66699 20.667 19.667 40.334 33 59.001l39 55.5c12.667 18.333 23.5 37.666 32.5 57.999s13.5 43.166 13.5 68.499v67h-132v-48c0 -26.667 -7.16699 -50.334 -21.5 -71.001s-29.5 -40.667 -45.5 -60
c-18.667 -21.333 -36.167 -45.666 -52.5 -72.999s-24.5 -56 -24.5 -86c0 -47.333 16.333 -87.666 49 -120.999c32.667 -34.667 80.667 -52 144 -52c55.333 0 102.333 14.667 141 44z" />
    <glyph glyph-name="Agrave" unicode="&#xc0;" 
d="M452 -11h161l-212 745h-188l-215 -745h160l43 156h211zM309 545l68 -264h-140zM267 750h126l-108 168h-187z" />
    <glyph glyph-name="Aacute" unicode="&#xc1;" 
d="M452 -11h161l-212 745h-188l-215 -745h160l43 156h211zM309 545l68 -264h-140zM315 750l169 168h-187l-108 -168h126z" />
    <glyph glyph-name="Acircumflex" unicode="&#xc2;" 
d="M452 -11h161l-212 745h-188l-215 -745h160l43 156h211zM309 545l68 -264h-140zM350 750h141l-132 168h-134l-132 -168h141l58 75z" />
    <glyph glyph-name="Atilde" unicode="&#xc3;" 
d="M452 -11h161l-212 745h-188l-215 -745h160l43 156h211zM309 545l68 -264h-140zM443 802c11.333 12 20.332 26.333 26.999 43s12 37.667 16 63h-84c-1.33301 -4 -3 -8.33301 -5 -13s-4.33301 -9.16699 -7 -13.5s-6 -8 -10 -11s-8.33301 -4.5 -13 -4.5
c-12 0 -24 1.83301 -36 5.5s-24.167 7.83398 -36.5 12.501s-24.833 8.83398 -37.5 12.501s-25.334 5.5 -38.001 5.5c-31.333 0 -58.666 -12.667 -81.999 -38c-11.333 -12 -20.333 -26.333 -27 -43s-12 -37.667 -16 -63h84c1.33301 4 3 8.33301 5 13s4.33301 9.16699 7 13.5
s5.83398 8 9.50098 11s8.16699 4.5 13.5 4.5c12 0 24 -1.83301 36 -5.5s24.167 -7.83398 36.5 -12.501s24.833 -8.83398 37.5 -12.501s25.334 -5.5 38.001 -5.5c31.333 0 58.666 12.667 81.999 38z" />
    <glyph glyph-name="Adieresis" unicode="&#xc4;" 
d="M452 -11h161l-212 745h-188l-215 -745h160l43 156h211zM309 545l68 -264h-140zM317 760h142v138h-142v-138zM127 760h142v138h-142v-138z" />
    <glyph glyph-name="Aring" unicode="&#xc5;" 
d="M452 -11h161l-212 745h-188l-215 -745h160l43 156h211zM309 545l68 -264h-140zM376 784c23.333 23.333 35 51.333 35 84c0 16.667 -3.16699 32.167 -9.5 46.5s-14.833 26.833 -25.5 37.5s-23.167 19.167 -37.5 25.5s-29.833 9.5 -46.5 9.5s-32.167 -3.16699 -46.5 -9.5
s-26.833 -14.833 -37.5 -25.5s-19.167 -23.167 -25.5 -37.5s-9.5 -29.833 -9.5 -46.5s3.16699 -32.167 9.5 -46.5s14.833 -26.833 25.5 -37.5s23.167 -19.167 37.5 -25.5s29.833 -9.5 46.5 -9.5c32.667 0 60.667 11.667 84 35zM323 899c8 -8 12 -18.333 12 -31
s-4 -23 -12 -31s-18.333 -12 -31 -12c-12 0 -22.167 4.16699 -30.5 12.5s-12.5 18.5 -12.5 30.5s4.16699 22.167 12.5 30.5s18.5 12.5 30.5 12.5c12.667 0 23 -4 31 -12z" />
    <glyph glyph-name="AE" unicode="&#xc6;" horiz-adv-x="944" 
d="M443 -11h478v138h-319v181l215 1v136h-215v150h307v138h-546l-372 -744h170l80 169h202v-169zM443 574v-278h-134z" />
    <glyph glyph-name="Ccedilla" unicode="&#xc7;" 
d="M495 29c23.333 16.667 43.832 37.6689 61.499 63.002s33.834 57 48.501 95l-150 39c-7.33301 -16 -15 -30.667 -23 -44s-17 -24.833 -27 -34.5s-21.833 -17.167 -35.5 -22.5s-30.167 -8 -49.5 -8c-49.333 0 -84.666 19.667 -105.999 59
c-23.333 40.667 -35 100.667 -35 180c0 14.667 0.5 31 1.5 49s3.16699 36.167 6.5 54.5s8.16602 36.166 14.499 53.499s14.5 32.833 24.5 46.5s22.5 24.667 37.5 33s32.5 12.5 52.5 12.5c34.667 0 61.334 -10 80.001 -30s33.334 -45.333 44.001 -76l146 35
c-12.667 43.333 -27.5 78.5 -44.5 105.5s-37.167 47.5 -60.5 61.5c-46 28 -99.333 42 -160 42c-56 0 -103.333 -10.667 -142 -32s-69.834 -49.833 -93.501 -85.5s-40.667 -76.5 -51 -122.5s-15.5 -93.333 -15.5 -142c0 -49.333 5.16699 -96.833 15.5 -142.5
s27.166 -86.334 50.499 -122.001s54.333 -64.167 93 -85.5s86 -32 142 -32c70.667 0 129 16.667 175 50zM392.999 -210.998c26.667 19.333 39.999 44.998 39.999 76.998c0 14.667 -2.66699 27.5 -8 38.5s-12.5 20 -21.5 27s-19.667 12.333 -32 16s-25.166 5.5 -38.499 5.5
l-12 -2l41 60h-80l-67 -102l30 -31l49 7c8 0 14.833 -1.16699 20.5 -3.5s8.5 -8.16602 8.5 -17.499c0 -13.333 -3.5 -21.666 -10.5 -24.999s-16.833 -5 -29.5 -5c-16 0 -30.333 1.83301 -43 5.5l-42 12.5l-27 -61c20 -8 40.167 -15.167 60.5 -21.5s41.5 -9.5 63.5 -9.5
c39.333 0 72 9.66699 98 29z" />
    <glyph glyph-name="Egrave" unicode="&#xc8;" 
d="M73 -11h511v138h-352v181l248 1v136h-248v150h340v138h-499v-744zM289 750h126l-108 168h-187z" />
    <glyph glyph-name="Eacute" unicode="&#xc9;" 
d="M73 -11h511v138h-352v181l248 1v136h-248v150h340v138h-499v-744zM337 750l169 168h-187l-108 -168h126z" />
    <glyph glyph-name="Ecircumflex" unicode="&#xca;" 
d="M73 -11h511v138h-352v181l248 1v136h-248v150h340v138h-499v-744zM372 750h141l-132 168h-134l-132 -168h141l58 75z" />
    <glyph glyph-name="Edieresis" unicode="&#xcb;" 
d="M73 -11h511v138h-352v181l248 1v136h-248v150h340v138h-499v-744zM339 760h142v138h-142v-138zM149 760h142v138h-142v-138z" />
    <glyph glyph-name="Igrave" unicode="&#xcc;" horiz-adv-x="333" 
d="M86 -11h160v744h-160v-744zM228 750h126l-108 168h-187z" />
    <glyph glyph-name="Iacute" unicode="&#xcd;" horiz-adv-x="333" 
d="M86 -11h160v744h-160v-744zM192 750l169 168h-187l-108 -168h126z" />
    <glyph glyph-name="Icircumflex" unicode="&#xce;" horiz-adv-x="333" 
d="M86 -11h160v744h-160v-744zM320 750h141l-132 168h-134l-132 -168h141l58 75z" />
    <glyph glyph-name="Idieresis" unicode="&#xcf;" horiz-adv-x="333" 
d="M86 -11h160v744h-160v-744zM265 760h142v138h-142v-138zM75 760h142v138h-142v-138z" />
    <glyph glyph-name="Eth" unicode="&#xd0;" horiz-adv-x="667" 
d="M565 86c57.333 63.333 86 154.667 86 274c0 56.667 -6.66699 108 -20 154s-33.833 85.167 -61.5 117.5s-63 57.333 -106 75s-94.167 26.5 -153.5 26.5l-243 1v-289h-67v-146h67v-310h245c110 0 194.333 32.333 253 97zM445 537.001c30 -39.333 45 -97.667 45 -175
c0 -32 -2.66699 -62.167 -8 -90.5s-14.666 -53.333 -27.999 -75s-31.833 -38.667 -55.5 -51s-53.834 -18.5 -90.501 -18.5h-82v172h150v146h-150v150h84c60.667 0 105.667 -19.333 135 -58z" />
    <glyph glyph-name="Ntilde" unicode="&#xd1;" horiz-adv-x="722" 
d="M503 -11h149v744h-152v-466l-269 466h-161v-744h152v488zM501 802c11.333 12 20.332 26.333 26.999 43s12 37.667 16 63h-84c-1.33301 -4 -3 -8.33301 -5 -13s-4.33301 -9.16699 -7 -13.5s-6 -8 -10 -11s-8.33301 -4.5 -13 -4.5c-12 0 -24 1.83301 -36 5.5
s-24.167 7.83398 -36.5 12.501s-24.833 8.83398 -37.5 12.501s-25.334 5.5 -38.001 5.5c-31.333 0 -58.666 -12.667 -81.999 -38c-11.333 -12 -20.333 -26.333 -27 -43s-12 -37.667 -16 -63h84c1.33301 4 3 8.33301 5 13s4.33301 9.16699 7 13.5s5.83398 8 9.50098 11
s8.16699 4.5 13.5 4.5c12 0 24 -1.83301 36 -5.5s24.167 -7.83398 36.5 -12.501s24.833 -8.83398 37.5 -12.501s25.334 -5.5 38.001 -5.5c31.333 0 58.666 12.667 81.999 38z" />
    <glyph glyph-name="Ograve" unicode="&#xd2;" horiz-adv-x="667" 
d="M568 81c53.333 66 80 159.332 80 279.999c0 51.333 -5.5 100.166 -16.5 146.499s-29 87 -54 122s-57.333 62.667 -97 83s-88.5 30.5 -146.5 30.5s-107 -10.167 -147 -30.5s-72.5 -48 -97.5 -83s-43 -75.667 -54 -122s-16.5 -95.166 -16.5 -146.499
s5.5 -100.166 16.5 -146.499s29 -87 54 -122s57.5 -62.667 97.5 -83s89 -30.5 147 -30.5c102 0 180 34 234 102zM450 544.999c25.333 -41.333 38 -102.666 38 -183.999s-12.667 -142.666 -38 -183.999c-24 -40 -62.667 -60 -116 -60c-54 0 -93 20 -117 60
c-25.333 41.333 -38 102.666 -38 183.999s12.667 142.666 38 183.999c24 40 63 60 117 60c53.333 0 92 -20 116 -60zM299 749.999h126l-108 168h-187z" />
    <glyph glyph-name="Oacute" unicode="&#xd3;" horiz-adv-x="667" 
d="M568 81c53.333 66 80 159.332 80 279.999c0 51.333 -5.5 100.166 -16.5 146.499s-29 87 -54 122s-57.333 62.667 -97 83s-88.5 30.5 -146.5 30.5s-107 -10.167 -147 -30.5s-72.5 -48 -97.5 -83s-43 -75.667 -54 -122s-16.5 -95.166 -16.5 -146.499
s5.5 -100.166 16.5 -146.499s29 -87 54 -122s57.5 -62.667 97.5 -83s89 -30.5 147 -30.5c102 0 180 34 234 102zM450 544.999c25.333 -41.333 38 -102.666 38 -183.999s-12.667 -142.666 -38 -183.999c-24 -40 -62.667 -60 -116 -60c-54 0 -93 20 -117 60
c-25.333 41.333 -38 102.666 -38 183.999s12.667 142.666 38 183.999c24 40 63 60 117 60c53.333 0 92 -20 116 -60zM347 749.999l169 168h-187l-108 -168h126z" />
    <glyph glyph-name="Ocircumflex" unicode="&#xd4;" horiz-adv-x="667" 
d="M568 81c53.333 66 80 159.332 80 279.999c0 51.333 -5.5 100.166 -16.5 146.499s-29 87 -54 122s-57.333 62.667 -97 83s-88.5 30.5 -146.5 30.5s-107 -10.167 -147 -30.5s-72.5 -48 -97.5 -83s-43 -75.667 -54 -122s-16.5 -95.166 -16.5 -146.499
s5.5 -100.166 16.5 -146.499s29 -87 54 -122s57.5 -62.667 97.5 -83s89 -30.5 147 -30.5c102 0 180 34 234 102zM450 544.999c25.333 -41.333 38 -102.666 38 -183.999s-12.667 -142.666 -38 -183.999c-24 -40 -62.667 -60 -116 -60c-54 0 -93 20 -117 60
c-25.333 41.333 -38 102.666 -38 183.999s12.667 142.666 38 183.999c24 40 63 60 117 60c53.333 0 92 -20 116 -60zM382 749.999h141l-132 168h-134l-132 -168h141l58 75z" />
    <glyph glyph-name="Otilde" unicode="&#xd5;" horiz-adv-x="667" 
d="M568 81c53.333 66 80 159.332 80 279.999c0 51.333 -5.5 100.166 -16.5 146.499s-29 87 -54 122s-57.333 62.667 -97 83s-88.5 30.5 -146.5 30.5s-107 -10.167 -147 -30.5s-72.5 -48 -97.5 -83s-43 -75.667 -54 -122s-16.5 -95.166 -16.5 -146.499
s5.5 -100.166 16.5 -146.499s29 -87 54 -122s57.5 -62.667 97.5 -83s89 -30.5 147 -30.5c102 0 180 34 234 102zM450 544.999c25.333 -41.333 38 -102.666 38 -183.999s-12.667 -142.666 -38 -183.999c-24 -40 -62.667 -60 -116 -60c-54 0 -93 20 -117 60
c-25.333 41.333 -38 102.666 -38 183.999s12.667 142.666 38 183.999c24 40 63 60 117 60c53.333 0 92 -20 116 -60zM475 801.999c11.333 12 20.332 26.333 26.999 43s12 37.667 16 63h-84c-1.33301 -4 -3 -8.33301 -5 -13s-4.33301 -9.16699 -7 -13.5s-6 -8 -10 -11
s-8.33301 -4.5 -13 -4.5c-12 0 -24 1.83301 -36 5.5s-24.167 7.83398 -36.5 12.501s-24.833 8.83398 -37.5 12.501s-25.334 5.5 -38.001 5.5c-31.333 0 -58.666 -12.667 -81.999 -38c-11.333 -12 -20.333 -26.333 -27 -43s-12 -37.667 -16 -63h84c1.33301 4 3 8.33301 5 13
s4.33301 9.16699 7 13.5s5.83398 8 9.50098 11s8.16699 4.5 13.5 4.5c12 0 24 -1.83301 36 -5.5s24.167 -7.83398 36.5 -12.501s24.833 -8.83398 37.5 -12.501s25.334 -5.5 38.001 -5.5c31.333 0 58.666 12.667 81.999 38z" />
    <glyph glyph-name="Odieresis" unicode="&#xd6;" horiz-adv-x="667" 
d="M568 81c53.333 66 80 159.332 80 279.999c0 51.333 -5.5 100.166 -16.5 146.499s-29 87 -54 122s-57.333 62.667 -97 83s-88.5 30.5 -146.5 30.5s-107 -10.167 -147 -30.5s-72.5 -48 -97.5 -83s-43 -75.667 -54 -122s-16.5 -95.166 -16.5 -146.499
s5.5 -100.166 16.5 -146.499s29 -87 54 -122s57.5 -62.667 97.5 -83s89 -30.5 147 -30.5c102 0 180 34 234 102zM450 544.999c25.333 -41.333 38 -102.666 38 -183.999s-12.667 -142.666 -38 -183.999c-24 -40 -62.667 -60 -116 -60c-54 0 -93 20 -117 60
c-25.333 41.333 -38 102.666 -38 183.999s12.667 142.666 38 183.999c24 40 63 60 117 60c53.333 0 92 -20 116 -60zM349 759.999h142v138h-142v-138zM159 759.999h142v138h-142v-138z" />
    <glyph glyph-name="multiply" unicode="&#xd7;" horiz-adv-x="600" 
d="M483 -16l93 93l-183 183l183 183l-93 93l-183 -183l-183 183l-93 -93l183 -183l-183 -183l93 -93l183 183z" />
    <glyph glyph-name="Oslash" unicode="&#xd8;" horiz-adv-x="667" 
d="M578 626l99 147.999h-142l-44 -67c-19.333 12.667 -42 21.834 -68 27.501s-55.667 8.5 -89 8.5c-58 0 -107 -10.167 -147 -30.5s-72.5 -48 -97.5 -83s-43 -75.667 -54 -122s-16.5 -95.166 -16.5 -146.499c0 -111.333 22.333 -198.666 67 -261.999l-118 -176h142l62 94
c38.667 -25.333 92.667 -38 162 -38c58 0 106.833 10.167 146.5 30.5s72 48 97 83s43 75.667 54 122s16.5 95.166 16.5 146.499c0 113.333 -23.333 201.666 -70 264.999zM334 604.999c33.333 0 58.667 -5.99902 76 -17.999l-222 -334c-6 26.667 -9 62.667 -9 108
c0 81.333 12.667 142.666 38 183.999c24 40 63 60 117 60zM477.001 475c7.33301 -30.667 10.999 -68.668 10.999 -114.001c0 -81.333 -12.667 -142.666 -38 -183.999c-24 -40 -62.667 -60 -116 -60c-35.333 0 -62.666 7 -81.999 21z" />
    <glyph glyph-name="Ugrave" unicode="&#xd9;" horiz-adv-x="722" 
d="M574 54c49.333 50 73.999 122.332 73.999 216.999v462h-159v-460c0 -57.333 -9.66699 -97.666 -29 -120.999c-9.33301 -11.333 -22.166 -20 -38.499 -26s-37.166 -9 -62.499 -9c-47.333 0 -80 12 -98 36c-19.333 23.333 -29 64 -29 122v458h-159v-469
c0 -92 25.167 -162.5 75.5 -211.5s121.166 -73.5 212.499 -73.5c92.667 0 163.667 25 213 75zM322.999 749.999h126l-108 168h-187z" />
    <glyph glyph-name="Uacute" unicode="&#xda;" horiz-adv-x="722" 
d="M574 54c49.333 50 73.999 122.332 73.999 216.999v462h-159v-460c0 -57.333 -9.66699 -97.666 -29 -120.999c-9.33301 -11.333 -22.166 -20 -38.499 -26s-37.166 -9 -62.499 -9c-47.333 0 -80 12 -98 36c-19.333 23.333 -29 64 -29 122v458h-159v-469
c0 -92 25.167 -162.5 75.5 -211.5s121.166 -73.5 212.499 -73.5c92.667 0 163.667 25 213 75zM370.999 749.999l169 168h-187l-108 -168h126z" />
    <glyph glyph-name="Ucircumflex" unicode="&#xdb;" horiz-adv-x="722" 
d="M574 54c49.333 50 73.999 122.332 73.999 216.999v462h-159v-460c0 -57.333 -9.66699 -97.666 -29 -120.999c-9.33301 -11.333 -22.166 -20 -38.499 -26s-37.166 -9 -62.499 -9c-47.333 0 -80 12 -98 36c-19.333 23.333 -29 64 -29 122v458h-159v-469
c0 -92 25.167 -162.5 75.5 -211.5s121.166 -73.5 212.499 -73.5c92.667 0 163.667 25 213 75zM405.999 749.999h141l-132 168h-134l-132 -168h141l58 75z" />
    <glyph glyph-name="Udieresis" unicode="&#xdc;" horiz-adv-x="722" 
d="M574 54c49.333 50 73.999 122.332 73.999 216.999v462h-159v-460c0 -57.333 -9.66699 -97.666 -29 -120.999c-9.33301 -11.333 -22.166 -20 -38.499 -26s-37.166 -9 -62.499 -9c-47.333 0 -80 12 -98 36c-19.333 23.333 -29 64 -29 122v458h-159v-469
c0 -92 25.167 -162.5 75.5 -211.5s121.166 -73.5 212.499 -73.5c92.667 0 163.667 25 213 75zM372.999 759.999h142v138h-142v-138zM182.999 759.999h142v138h-142v-138z" />
    <glyph glyph-name="Yacute" unicode="&#xdd;" horiz-adv-x="556" 
d="M358 287l205 446h-168l-117 -269l-117 269h-168l206 -449v-295h159v298zM286 750l169 168h-187l-108 -168h126z" />
    <glyph glyph-name="Thorn" unicode="&#xde;" 
d="M528 205c47.333 38.667 71.001 95.001 71.001 169.001c0 40 -6.16699 74.333 -18.5 103s-29.5 52 -51.5 70s-48.5 31.333 -79.5 40s-65.167 13 -102.5 13h-132v133h-159v-744l159 1v476h101c17.333 0 33.5 -1.16699 48.5 -3.5s28 -6.83301 39 -13.5
s19.5 -16.167 25.5 -28.5s9 -28.5 9 -48.5c0 -19.333 -3.33301 -34.833 -10 -46.5s-15.5 -20.834 -26.5 -27.501s-24 -11 -39 -13s-30.5 -3 -46.5 -3h-123v-133h137c42 0 79.667 4.5 113 13.5s61.666 23.167 84.999 42.5z" />
    <glyph glyph-name="germandbls" unicode="&#xdf;" horiz-adv-x="500" 
d="M448 38c29.333 39.333 43.999 92.3291 43.999 158.996c0 20.667 -1.83301 41.167 -5.5 61.5s-9.66699 39.333 -18 57s-19.5 33.667 -33.5 48s-31 26.166 -51 35.499c25.333 16.667 42.166 37.834 50.499 63.501s12.5 52.834 12.5 81.501c0 32 -5 59.833 -15 83.5
s-24 43.334 -42 59.001s-39.5 27.334 -64.5 35.001s-52.833 11.5 -83.5 11.5c-61.333 0 -110 -15.333 -146 -46s-54 -78 -54 -142v-556h146v563c2 20.667 6.5 35.667 13.5 45s21.167 14 42.5 14c12.667 0 22.834 -2.66699 30.501 -8s13.834 -12.166 18.501 -20.499
s7.83398 -17.666 9.50098 -27.999s2.5 -20.5 2.5 -30.5c0 -7.33301 -0.5 -15.5 -1.5 -24.5s-3.16699 -17.333 -6.5 -25s-8 -14.167 -14 -19.5s-14 -8 -24 -8h-30v-122h39c16.667 0 30.167 -3.83301 40.5 -11.5s18.166 -17.334 23.499 -29.001s8.83301 -24.5 10.5 -38.5
s2.5 -27.667 2.5 -41c0 -34.667 -4.33301 -61 -13 -79c-6.66699 -16.667 -18.667 -25 -36 -25c-10 0 -18.833 1.5 -26.5 4.5s-16.167 7.16699 -25.5 12.5l-37 -108c13.333 -9.33301 28.333 -16.833 45 -22.5s33 -8.5 49 -8.5c68.667 0 117.667 19.667 147 59z" />
    <glyph glyph-name="agrave" unicode="&#xe0;" horiz-adv-x="500" 
d="M320 -11l130.003 -0.00195312v22l3.5 2.5c2.33301 1.66699 2.83301 4.5 1.5 8.5c-2.66699 11.333 -4 26 -4 44v256c0 74.667 -16.167 129.834 -48.5 165.501s-86.5 53.5 -162.5 53.5c-43.333 0 -83.166 -8.83301 -119.499 -26.5s-66.166 -45.167 -89.499 -82.5l98 -74
c14 21.333 29.167 38.166 45.5 50.499s38.166 18.5 65.499 18.5c18 0 33.333 -4.33301 46 -13s19 -22.667 19 -42v-31c-16.667 -1.33301 -31.334 -3.33301 -44.001 -6c-34.667 -6.66699 -68.5 -15 -101.5 -25s-63.833 -26.333 -92.5 -49
c-40 -33.333 -60 -77.666 -60 -132.999c0 -22 3.66699 -42 11 -60s17.666 -33.667 30.999 -47s29.166 -23.666 47.499 -30.999s38.5 -11 60.5 -11c30 0 57.167 3.83301 81.5 11.5s49.166 19.5 74.499 35.5zM305.003 235.998l-0.000976562 -94.001
c-13.333 -10.667 -29.5 -21.5 -48.5 -32.5s-37.5 -16.5 -55.5 -16.5c-15.333 0 -27.166 4.5 -35.499 13.5s-12.5 20.833 -12.5 35.5c0 17.333 5.5 31.5 16.5 42.5s24.333 19.833 40 26.5s32.167 11.834 49.5 15.501zM214.002 574.997h126l-108 168h-187z" />
    <glyph glyph-name="aacute" unicode="&#xe1;" horiz-adv-x="500" 
d="M320 -11l130.003 -0.00195312v22l3.5 2.5c2.33301 1.66699 2.83301 4.5 1.5 8.5c-2.66699 11.333 -4 26 -4 44v256c0 74.667 -16.167 129.834 -48.5 165.501s-86.5 53.5 -162.5 53.5c-43.333 0 -83.166 -8.83301 -119.499 -26.5s-66.166 -45.167 -89.499 -82.5l98 -74
c14 21.333 29.167 38.166 45.5 50.499s38.166 18.5 65.499 18.5c18 0 33.333 -4.33301 46 -13s19 -22.667 19 -42v-31c-16.667 -1.33301 -31.334 -3.33301 -44.001 -6c-34.667 -6.66699 -68.5 -15 -101.5 -25s-63.833 -26.333 -92.5 -49
c-40 -33.333 -60 -77.666 -60 -132.999c0 -22 3.66699 -42 11 -60s17.666 -33.667 30.999 -47s29.166 -23.666 47.499 -30.999s38.5 -11 60.5 -11c30 0 57.167 3.83301 81.5 11.5s49.166 19.5 74.499 35.5zM305.003 235.998l-0.000976562 -94.001
c-13.333 -10.667 -29.5 -21.5 -48.5 -32.5s-37.5 -16.5 -55.5 -16.5c-15.333 0 -27.166 4.5 -35.499 13.5s-12.5 20.833 -12.5 35.5c0 17.333 5.5 31.5 16.5 42.5s24.333 19.833 40 26.5s32.167 11.834 49.5 15.501zM262.002 574.997l169 168h-187l-108 -168h126z" />
    <glyph glyph-name="acircumflex" unicode="&#xe2;" horiz-adv-x="500" 
d="M320 -11l130.003 -0.00195312v22l3.5 2.5c2.33301 1.66699 2.83301 4.5 1.5 8.5c-2.66699 11.333 -4 26 -4 44v256c0 74.667 -16.167 129.834 -48.5 165.501s-86.5 53.5 -162.5 53.5c-43.333 0 -83.166 -8.83301 -119.499 -26.5s-66.166 -45.167 -89.499 -82.5l98 -74
c14 21.333 29.167 38.166 45.5 50.499s38.166 18.5 65.499 18.5c18 0 33.333 -4.33301 46 -13s19 -22.667 19 -42v-31c-16.667 -1.33301 -31.334 -3.33301 -44.001 -6c-34.667 -6.66699 -68.5 -15 -101.5 -25s-63.833 -26.333 -92.5 -49
c-40 -33.333 -60 -77.666 -60 -132.999c0 -22 3.66699 -42 11 -60s17.666 -33.667 30.999 -47s29.166 -23.666 47.499 -30.999s38.5 -11 60.5 -11c30 0 57.167 3.83301 81.5 11.5s49.166 19.5 74.499 35.5zM305.003 235.998l-0.000976562 -94.001
c-13.333 -10.667 -29.5 -21.5 -48.5 -32.5s-37.5 -16.5 -55.5 -16.5c-15.333 0 -27.166 4.5 -35.499 13.5s-12.5 20.833 -12.5 35.5c0 17.333 5.5 31.5 16.5 42.5s24.333 19.833 40 26.5s32.167 11.834 49.5 15.501zM297.002 574.997h141l-132 168h-134l-132 -168h141l58 75
z" />
    <glyph glyph-name="atilde" unicode="&#xe3;" horiz-adv-x="500" 
d="M320 -11l130.003 -0.00195312v22l3.5 2.5c2.33301 1.66699 2.83301 4.5 1.5 8.5c-2.66699 11.333 -4 26 -4 44v256c0 74.667 -16.167 129.834 -48.5 165.501s-86.5 53.5 -162.5 53.5c-43.333 0 -83.166 -8.83301 -119.499 -26.5s-66.166 -45.167 -89.499 -82.5l98 -74
c14 21.333 29.167 38.166 45.5 50.499s38.166 18.5 65.499 18.5c18 0 33.333 -4.33301 46 -13s19 -22.667 19 -42v-31c-16.667 -1.33301 -31.334 -3.33301 -44.001 -6c-34.667 -6.66699 -68.5 -15 -101.5 -25s-63.833 -26.333 -92.5 -49
c-40 -33.333 -60 -77.666 -60 -132.999c0 -22 3.66699 -42 11 -60s17.666 -33.667 30.999 -47s29.166 -23.666 47.499 -30.999s38.5 -11 60.5 -11c30 0 57.167 3.83301 81.5 11.5s49.166 19.5 74.499 35.5zM305.003 235.998l-0.000976562 -94.001
c-13.333 -10.667 -29.5 -21.5 -48.5 -32.5s-37.5 -16.5 -55.5 -16.5c-15.333 0 -27.166 4.5 -35.499 13.5s-12.5 20.833 -12.5 35.5c0 17.333 5.5 31.5 16.5 42.5s24.333 19.833 40 26.5s32.167 11.834 49.5 15.501zM390.002 626.997c11.333 12 20.332 26.333 26.999 43
s12 37.667 16 63h-84c-1.33301 -4 -3 -8.33301 -5 -13s-4.33301 -9.16699 -7 -13.5s-6 -8 -10 -11s-8.33301 -4.5 -13 -4.5c-12 0 -24 1.83301 -36 5.5s-24.167 7.83398 -36.5 12.501s-24.833 8.83398 -37.5 12.501s-25.334 5.5 -38.001 5.5
c-31.333 0 -58.666 -12.667 -81.999 -38c-11.333 -12 -20.333 -26.333 -27 -43s-12 -37.667 -16 -63h84c1.33301 4 3 8.33301 5 13s4.33301 9.16699 7 13.5s5.83398 8 9.50098 11s8.16699 4.5 13.5 4.5c12 0 24 -1.83301 36 -5.5s24.167 -7.83398 36.5 -12.501
s24.833 -8.83398 37.5 -12.501s25.334 -5.5 38.001 -5.5c31.333 0 58.666 12.667 81.999 38z" />
    <glyph glyph-name="adieresis" unicode="&#xe4;" horiz-adv-x="500" 
d="M320 -11l130.003 -0.00195312v22l3.5 2.5c2.33301 1.66699 2.83301 4.5 1.5 8.5c-2.66699 11.333 -4 26 -4 44v256c0 74.667 -16.167 129.834 -48.5 165.501s-86.5 53.5 -162.5 53.5c-43.333 0 -83.166 -8.83301 -119.499 -26.5s-66.166 -45.167 -89.499 -82.5l98 -74
c14 21.333 29.167 38.166 45.5 50.499s38.166 18.5 65.499 18.5c18 0 33.333 -4.33301 46 -13s19 -22.667 19 -42v-31c-16.667 -1.33301 -31.334 -3.33301 -44.001 -6c-34.667 -6.66699 -68.5 -15 -101.5 -25s-63.833 -26.333 -92.5 -49
c-40 -33.333 -60 -77.666 -60 -132.999c0 -22 3.66699 -42 11 -60s17.666 -33.667 30.999 -47s29.166 -23.666 47.499 -30.999s38.5 -11 60.5 -11c30 0 57.167 3.83301 81.5 11.5s49.166 19.5 74.499 35.5zM305.003 235.998l-0.000976562 -94.001
c-13.333 -10.667 -29.5 -21.5 -48.5 -32.5s-37.5 -16.5 -55.5 -16.5c-15.333 0 -27.166 4.5 -35.499 13.5s-12.5 20.833 -12.5 35.5c0 17.333 5.5 31.5 16.5 42.5s24.333 19.833 40 26.5s32.167 11.834 49.5 15.501zM264.002 584.997h142v138h-142v-138zM74.002 584.997h142
v138h-142v-138z" />
    <glyph glyph-name="aring" unicode="&#xe5;" horiz-adv-x="500" 
d="M320 -11l130.003 -0.00195312v22l3.5 2.5c2.33301 1.66699 2.83301 4.5 1.5 8.5c-2.66699 11.333 -4 26 -4 44v256c0 74.667 -16.167 129.834 -48.5 165.501s-86.5 53.5 -162.5 53.5c-43.333 0 -83.166 -8.83301 -119.499 -26.5s-66.166 -45.167 -89.499 -82.5l98 -74
c14 21.333 29.167 38.166 45.5 50.499s38.166 18.5 65.499 18.5c18 0 33.333 -4.33301 46 -13s19 -22.667 19 -42v-31c-16.667 -1.33301 -31.334 -3.33301 -44.001 -6c-34.667 -6.66699 -68.5 -15 -101.5 -25s-63.833 -26.333 -92.5 -49
c-40 -33.333 -60 -77.666 -60 -132.999c0 -22 3.66699 -42 11 -60s17.666 -33.667 30.999 -47s29.166 -23.666 47.499 -30.999s38.5 -11 60.5 -11c30 0 57.167 3.83301 81.5 11.5s49.166 19.5 74.499 35.5zM305.003 235.998l-0.000976562 -94.001
c-13.333 -10.667 -29.5 -21.5 -48.5 -32.5s-37.5 -16.5 -55.5 -16.5c-15.333 0 -27.166 4.5 -35.499 13.5s-12.5 20.833 -12.5 35.5c0 17.333 5.5 31.5 16.5 42.5s24.333 19.833 40 26.5s32.167 11.834 49.5 15.501zM323.002 608.997c23.333 23.333 35 51.333 35 84
c0 16.667 -3.16699 32.167 -9.5 46.5s-14.833 26.833 -25.5 37.5s-23.167 19.167 -37.5 25.5s-29.833 9.5 -46.5 9.5s-32.167 -3.16699 -46.5 -9.5s-26.833 -14.833 -37.5 -25.5s-19.167 -23.167 -25.5 -37.5s-9.5 -29.833 -9.5 -46.5s3.16699 -32.167 9.5 -46.5
s14.833 -26.833 25.5 -37.5s23.167 -19.167 37.5 -25.5s29.833 -9.5 46.5 -9.5c32.667 0 60.667 11.667 84 35zM270.002 723.997c8 -8 12 -18.333 12 -31s-4 -23 -12 -31s-18.333 -12 -31 -12c-12 0 -22.167 4.16699 -30.5 12.5s-12.5 18.5 -12.5 30.5
s4.16699 22.167 12.5 30.5s18.5 12.5 30.5 12.5c12.667 0 23 -4 31 -12z" />
    <glyph glyph-name="ae" unicode="&#xe6;" horiz-adv-x="778" 
d="M658 4c19.333 9.33301 37.4941 21.3311 54.4941 35.998s34.167 34.334 51.5 59.001l-108 67c-15.333 -18.667 -31.666 -34.167 -48.999 -46.5s-39 -18.5 -65 -18.5c-20 0 -36 3.66699 -48 11s-21.5 17 -28.5 29s-12 25.667 -15 41s-5.5 31 -7.5 47h315l1 70
c0.666992 34 -5.16602 65.167 -17.499 93.5s-28.5 54.166 -48.5 77.499c-40 47.333 -91.667 71 -155 71c-28 0 -54.167 -3.66699 -78.5 -11s-46.833 -20.666 -67.5 -39.999c-10 10.667 -21.5 19.334 -34.5 26.001s-26.5 11.834 -40.5 15.501s-28.333 6.16699 -43 7.5
s-29 2 -43 2c-42 0 -80 -9.16699 -114 -27.5s-62.667 -45.5 -86 -81.5l98 -74c14.667 21.333 30.334 38.166 47.001 50.499s38.667 18.5 66 18.5c18 0 33.667 -4.16699 47 -12.5s20 -22.5 20 -42.5v-31c-16 -1.33301 -31 -3.33301 -45 -6
c-35.333 -6.66699 -69.666 -15 -102.999 -25s-64.333 -26.333 -93 -49c-40.667 -32.667 -61 -77 -61 -133c0 -22 3.83301 -42.167 11.5 -60.5s18.334 -34 32.001 -47s29.834 -23.167 48.501 -30.5s39 -11 61 -11c40.667 0 77.167 7 109.5 21s64.5 32.667 96.5 56
c19.333 -26 42.333 -45.333 69 -58s56 -19 88 -19c52.667 0 97.667 8.33301 135 25zM595.994 400.998c14 -16 23.001 -37.999 27.001 -65.999h-179c2 12.667 4.83301 24.667 8.5 36s8.83398 21.166 15.501 29.499s15.167 14.833 25.5 19.5s23.166 7 38.499 7
c27.333 0 48.666 -8.66699 63.999 -26zM308.995 235.999l0.000976562 -94.001c-14 -11.333 -30.5 -22.333 -49.5 -33s-37.833 -16 -56.5 -16c-15.333 0 -27.5 4.33301 -36.5 13s-13.5 20.667 -13.5 36c0 17.333 5.66699 31.5 17 42.5s25.166 19.833 41.499 26.5
s33.333 11.834 51 15.501z" />
    <glyph glyph-name="ccedilla" unicode="&#xe7;" horiz-adv-x="500" 
d="M377 10c16.667 10.667 32.6699 25.001 48.0029 43.001s31.333 41.667 48 71l-113 64l-20 -32.5c-6.66699 -10.333 -14.167 -19.5 -22.5 -27.5s-17.666 -14.5 -27.999 -19.5s-22.5 -7.5 -36.5 -7.5c-33.333 0 -57 12.667 -71 38c-15.333 27.333 -23 67.666 -23 120.999
c0 54 7.66699 94.333 23 121c13.333 25.333 36.333 38 69 38c14 0 25.833 -2.16699 35.5 -6.5s18.167 -10.166 25.5 -17.499s13.666 -16 18.999 -26s10.333 -20.667 15 -32l123 48c-11.333 30.667 -24.333 55.834 -39 75.501s-32.334 35.167 -53.001 46.5
c-39.333 22.667 -81.666 34 -126.999 34c-72.667 0 -130.334 -25.333 -173.001 -76s-64 -119.334 -64 -206.001c0 -38 4.66699 -73.833 14 -107.5s23.666 -63.334 42.999 -89.001s44.166 -46 74.499 -61s66.166 -22.5 107.499 -22.5c50.667 0 92.334 10.333 125.001 31z
M328.003 -210.999c26.667 19.333 39.999 44.998 39.999 76.998c0 14.667 -2.66699 27.5 -8 38.5s-12.5 20 -21.5 27s-19.667 12.333 -32 16s-25.166 5.5 -38.499 5.5l-12 -2l41 60h-80l-67 -102l30 -31l49 7c8 0 14.833 -1.16699 20.5 -3.5s8.5 -8.16602 8.5 -17.499
c0 -13.333 -3.5 -21.666 -10.5 -24.999s-16.833 -5 -29.5 -5c-16 0 -30.333 1.83301 -43 5.5l-42 12.5l-27 -61c20 -8 40.167 -15.167 60.5 -21.5s41.5 -9.5 63.5 -9.5c39.333 0 72 9.66699 98 29z" />
    <glyph glyph-name="egrave" unicode="&#xe8;" horiz-adv-x="500" 
d="M376 5c18.667 8.66699 36.166 20.499 52.499 35.499s32.5 34.5 48.5 58.5l-108 68c-14.667 -19.333 -30.5 -35.166 -47.5 -47.499s-38.167 -18.5 -63.5 -18.5c-20 0 -36 3.66699 -48 11s-21.5 17 -28.5 29s-12 25.667 -15 41s-5.5 31 -7.5 47h314v70
c0 35.333 -6.16699 67.333 -18.5 96s-28.5 54.334 -48.5 77.001c-41.333 46 -93.666 69 -156.999 69c-41.333 0 -76.833 -7.66699 -106.5 -23s-54.167 -35.833 -73.5 -61.5s-33.5 -55.5 -42.5 -89.5s-13.5 -69.667 -13.5 -107c0 -36.667 4.5 -71.834 13.5 -105.501
s22.833 -63.5 41.5 -89.5s42.667 -46.833 72 -62.5s64.333 -23.5 105 -23.5c52 0 95.667 8.66699 131 26zM310.999 400.999c14.667 -16.667 23 -38.666 25 -65.999h-176c2 12.667 4.83301 24.667 8.5 36s8.83398 21.166 15.501 29.499s15.167 14.833 25.5 19.5
s23.166 7 38.499 7c26.667 0 47.667 -8.66699 63 -26zM213.999 575h126l-108 168h-187z" />
    <glyph glyph-name="eacute" unicode="&#xe9;" horiz-adv-x="500" 
d="M376 5c18.667 8.66699 36.166 20.499 52.499 35.499s32.5 34.5 48.5 58.5l-108 68c-14.667 -19.333 -30.5 -35.166 -47.5 -47.499s-38.167 -18.5 -63.5 -18.5c-20 0 -36 3.66699 -48 11s-21.5 17 -28.5 29s-12 25.667 -15 41s-5.5 31 -7.5 47h314v70
c0 35.333 -6.16699 67.333 -18.5 96s-28.5 54.334 -48.5 77.001c-41.333 46 -93.666 69 -156.999 69c-41.333 0 -76.833 -7.66699 -106.5 -23s-54.167 -35.833 -73.5 -61.5s-33.5 -55.5 -42.5 -89.5s-13.5 -69.667 -13.5 -107c0 -36.667 4.5 -71.834 13.5 -105.501
s22.833 -63.5 41.5 -89.5s42.667 -46.833 72 -62.5s64.333 -23.5 105 -23.5c52 0 95.667 8.66699 131 26zM310.999 400.999c14.667 -16.667 23 -38.666 25 -65.999h-176c2 12.667 4.83301 24.667 8.5 36s8.83398 21.166 15.501 29.499s15.167 14.833 25.5 19.5
s23.166 7 38.499 7c26.667 0 47.667 -8.66699 63 -26zM261.999 575l169 168h-187l-108 -168h126z" />
    <glyph glyph-name="ecircumflex" unicode="&#xea;" horiz-adv-x="500" 
d="M376 5c18.667 8.66699 36.166 20.499 52.499 35.499s32.5 34.5 48.5 58.5l-108 68c-14.667 -19.333 -30.5 -35.166 -47.5 -47.499s-38.167 -18.5 -63.5 -18.5c-20 0 -36 3.66699 -48 11s-21.5 17 -28.5 29s-12 25.667 -15 41s-5.5 31 -7.5 47h314v70
c0 35.333 -6.16699 67.333 -18.5 96s-28.5 54.334 -48.5 77.001c-41.333 46 -93.666 69 -156.999 69c-41.333 0 -76.833 -7.66699 -106.5 -23s-54.167 -35.833 -73.5 -61.5s-33.5 -55.5 -42.5 -89.5s-13.5 -69.667 -13.5 -107c0 -36.667 4.5 -71.834 13.5 -105.501
s22.833 -63.5 41.5 -89.5s42.667 -46.833 72 -62.5s64.333 -23.5 105 -23.5c52 0 95.667 8.66699 131 26zM310.999 400.999c14.667 -16.667 23 -38.666 25 -65.999h-176c2 12.667 4.83301 24.667 8.5 36s8.83398 21.166 15.501 29.499s15.167 14.833 25.5 19.5
s23.166 7 38.499 7c26.667 0 47.667 -8.66699 63 -26zM296.999 575h141l-132 168h-134l-132 -168h141l58 75z" />
    <glyph glyph-name="edieresis" unicode="&#xeb;" horiz-adv-x="500" 
d="M376 5c18.667 8.66699 36.166 20.499 52.499 35.499s32.5 34.5 48.5 58.5l-108 68c-14.667 -19.333 -30.5 -35.166 -47.5 -47.499s-38.167 -18.5 -63.5 -18.5c-20 0 -36 3.66699 -48 11s-21.5 17 -28.5 29s-12 25.667 -15 41s-5.5 31 -7.5 47h314v70
c0 35.333 -6.16699 67.333 -18.5 96s-28.5 54.334 -48.5 77.001c-41.333 46 -93.666 69 -156.999 69c-41.333 0 -76.833 -7.66699 -106.5 -23s-54.167 -35.833 -73.5 -61.5s-33.5 -55.5 -42.5 -89.5s-13.5 -69.667 -13.5 -107c0 -36.667 4.5 -71.834 13.5 -105.501
s22.833 -63.5 41.5 -89.5s42.667 -46.833 72 -62.5s64.333 -23.5 105 -23.5c52 0 95.667 8.66699 131 26zM310.999 400.999c14.667 -16.667 23 -38.666 25 -65.999h-176c2 12.667 4.83301 24.667 8.5 36s8.83398 21.166 15.501 29.499s15.167 14.833 25.5 19.5
s23.166 7 38.499 7c26.667 0 47.667 -8.66699 63 -26zM263.999 585h142v138h-142v-138zM73.999 585h142v138h-142v-138z" />
    <glyph glyph-name="igrave" unicode="&#xec;" horiz-adv-x="278" 
d="M66 -11h146v542h-146v-542zM208 575h126l-108 168h-187z" />
    <glyph glyph-name="iacute" unicode="&#xed;" horiz-adv-x="278" 
d="M66 -11h146v542h-146v-542zM172 575l169 168h-187l-108 -168h126z" />
    <glyph glyph-name="icircumflex" unicode="&#xee;" horiz-adv-x="278" 
d="M66 -11h146v542h-146v-542zM300 575h141l-132 168h-134l-132 -168h141l58 75z" />
    <glyph glyph-name="idieresis" unicode="&#xef;" horiz-adv-x="278" 
d="M66 -11h146v542h-146v-542zM245 585h142v138h-142v-138zM55 585h142v138h-142v-138z" />
    <glyph glyph-name="eth" unicode="&#xf0;" horiz-adv-x="500" 
d="M422 51c43.333 49.333 65.0029 111.668 65.0029 187.001c0 103.333 -24.333 200.666 -73 291.999c-19.333 34.667 -35.333 61.667 -48 81l87 42l-46 83l-104 -50l-28 27c-8.66699 8 -17.667 15 -27 21l-133 -42c17.333 -14 31.166 -25.667 41.499 -35
s19.833 -18.666 28.5 -27.999l-88 -42l46 -83l103 49c5.33301 -8 10.333 -16 15 -24l13 -23l-23 3c-40 0 -74.833 -7 -104.5 -21s-54.334 -33.167 -74.001 -57.5s-34.5 -52.833 -44.5 -85.5s-15 -67.334 -15 -104.001c0 -36 5.16699 -70 15.5 -102
s25.666 -59.833 45.999 -83.5s45.333 -42.5 75 -56.5s63.5 -21 101.5 -21c70 0 127 24.333 171 73zM318.003 352.002c15.333 -25.333 23.001 -61.667 23.001 -109c0 -15.333 -1 -31.333 -3 -48s-6.33301 -32 -13 -46s-15.834 -25.5 -27.501 -34.5s-27.5 -13.5 -47.5 -13.5
s-36 4.66699 -48 14s-21.167 21 -27.5 35s-10.5 29.5 -12.5 46.5s-3 33.167 -3 48.5s1 31.333 3 48s6.33301 32 13 46s16 25.5 28 34.5s27.667 13.5 47 13.5c31.333 0 54 -11.667 68 -35z" />
    <glyph glyph-name="ntilde" unicode="&#xf1;" horiz-adv-x="556" 
d="M356 -11l146.001 -0.00292969v365c0 26 -3.16699 50.5 -9.5 73.5s-16 42.833 -29 59.5s-29.667 29.834 -50 39.501s-44.833 14.5 -73.5 14.5c-28 0 -54.667 -5.16699 -80 -15.5s-49 -23.5 -71 -39.5v45h-136v-542h146v382c14 14.667 29.833 26.334 47.5 35.001
s36.834 13 57.501 13c19.333 0 32.666 -6 39.999 -18c3.33301 -7.33301 6.16602 -16.666 8.49902 -27.999s3.5 -25.333 3.5 -42v-342zM414.001 626.997c11.333 12 20.332 26.333 26.999 43s12 37.667 16 63h-84c-1.33301 -4 -3 -8.33301 -5 -13s-4.33301 -9.16699 -7 -13.5
s-6 -8 -10 -11s-8.33301 -4.5 -13 -4.5c-12 0 -24 1.83301 -36 5.5s-24.167 7.83398 -36.5 12.501s-24.833 8.83398 -37.5 12.501s-25.334 5.5 -38.001 5.5c-31.333 0 -58.666 -12.667 -81.999 -38c-11.333 -12 -20.333 -26.333 -27 -43s-12 -37.667 -16 -63h84
c1.33301 4 3 8.33301 5 13s4.33301 9.16699 7 13.5s5.83398 8 9.50098 11s8.16699 4.5 13.5 4.5c12 0 24 -1.83301 36 -5.5s24.167 -7.83398 36.5 -12.501s24.833 -8.83398 37.5 -12.501s25.334 -5.5 38.001 -5.5c31.333 0 58.666 12.667 81.999 38z" />
    <glyph glyph-name="ograve" unicode="&#xf2;" horiz-adv-x="500" 
d="M424 57c42.667 51.333 64 119 64 203s-21.333 151.667 -64 203c-43.333 52 -101.333 78 -174 78s-130.334 -26 -173.001 -78c-42.667 -51.333 -64 -119 -64 -203s21.333 -151.667 64 -203c42.667 -52 100.334 -78 173.001 -78s130.667 26 174 78zM319 381
c15.333 -27.333 22.999 -67.665 22.999 -120.998c0 -15.333 -0.833008 -32.333 -2.5 -51s-5.66699 -36 -12 -52s-15.666 -29.333 -27.999 -40s-28.833 -16 -49.5 -16s-37 5.5 -49 16.5s-21.167 24.5 -27.5 40.5s-10.333 33.167 -12 51.5s-2.5 35.166 -2.5 50.499
s0.833008 32.166 2.5 50.499s5.66699 35.5 12 51.5s15.5 29.5 27.5 40.5s28.333 16.5 49 16.5c32 0 55 -12.667 69 -38zM211.999 575.001h126l-108 168h-187z" />
    <glyph glyph-name="oacute" unicode="&#xf3;" horiz-adv-x="500" 
d="M424 57c42.667 51.333 64 119 64 203s-21.333 151.667 -64 203c-43.333 52 -101.333 78 -174 78s-130.334 -26 -173.001 -78c-42.667 -51.333 -64 -119 -64 -203s21.333 -151.667 64 -203c42.667 -52 100.334 -78 173.001 -78s130.667 26 174 78zM319 381
c15.333 -27.333 22.999 -67.665 22.999 -120.998c0 -15.333 -0.833008 -32.333 -2.5 -51s-5.66699 -36 -12 -52s-15.666 -29.333 -27.999 -40s-28.833 -16 -49.5 -16s-37 5.5 -49 16.5s-21.167 24.5 -27.5 40.5s-10.333 33.167 -12 51.5s-2.5 35.166 -2.5 50.499
s0.833008 32.166 2.5 50.499s5.66699 35.5 12 51.5s15.5 29.5 27.5 40.5s28.333 16.5 49 16.5c32 0 55 -12.667 69 -38zM259.999 575.001l169 168h-187l-108 -168h126z" />
    <glyph glyph-name="ocircumflex" unicode="&#xf4;" horiz-adv-x="500" 
d="M424 57c42.667 51.333 64 119 64 203s-21.333 151.667 -64 203c-43.333 52 -101.333 78 -174 78s-130.334 -26 -173.001 -78c-42.667 -51.333 -64 -119 -64 -203s21.333 -151.667 64 -203c42.667 -52 100.334 -78 173.001 -78s130.667 26 174 78zM319 381
c15.333 -27.333 22.999 -67.665 22.999 -120.998c0 -15.333 -0.833008 -32.333 -2.5 -51s-5.66699 -36 -12 -52s-15.666 -29.333 -27.999 -40s-28.833 -16 -49.5 -16s-37 5.5 -49 16.5s-21.167 24.5 -27.5 40.5s-10.333 33.167 -12 51.5s-2.5 35.166 -2.5 50.499
s0.833008 32.166 2.5 50.499s5.66699 35.5 12 51.5s15.5 29.5 27.5 40.5s28.333 16.5 49 16.5c32 0 55 -12.667 69 -38zM294.999 575.001h141l-132 168h-134l-132 -168h141l58 75z" />
    <glyph glyph-name="otilde" unicode="&#xf5;" horiz-adv-x="500" 
d="M424 57c42.667 51.333 64 119 64 203s-21.333 151.667 -64 203c-43.333 52 -101.333 78 -174 78s-130.334 -26 -173.001 -78c-42.667 -51.333 -64 -119 -64 -203s21.333 -151.667 64 -203c42.667 -52 100.334 -78 173.001 -78s130.667 26 174 78zM319 381
c15.333 -27.333 22.999 -67.665 22.999 -120.998c0 -15.333 -0.833008 -32.333 -2.5 -51s-5.66699 -36 -12 -52s-15.666 -29.333 -27.999 -40s-28.833 -16 -49.5 -16s-37 5.5 -49 16.5s-21.167 24.5 -27.5 40.5s-10.333 33.167 -12 51.5s-2.5 35.166 -2.5 50.499
s0.833008 32.166 2.5 50.499s5.66699 35.5 12 51.5s15.5 29.5 27.5 40.5s28.333 16.5 49 16.5c32 0 55 -12.667 69 -38zM387.999 627.001c11.333 12 20.332 26.333 26.999 43s12 37.667 16 63h-84c-1.33301 -4 -3 -8.33301 -5 -13s-4.33301 -9.16699 -7 -13.5s-6 -8 -10 -11
s-8.33301 -4.5 -13 -4.5c-12 0 -24 1.83301 -36 5.5s-24.167 7.83398 -36.5 12.501s-24.833 8.83398 -37.5 12.501s-25.334 5.5 -38.001 5.5c-31.333 0 -58.666 -12.667 -81.999 -38c-11.333 -12 -20.333 -26.333 -27 -43s-12 -37.667 -16 -63h84c1.33301 4 3 8.33301 5 13
s4.33301 9.16699 7 13.5s5.83398 8 9.50098 11s8.16699 4.5 13.5 4.5c12 0 24 -1.83301 36 -5.5s24.167 -7.83398 36.5 -12.501s24.833 -8.83398 37.5 -12.501s25.334 -5.5 38.001 -5.5c31.333 0 58.666 12.667 81.999 38z" />
    <glyph glyph-name="odieresis" unicode="&#xf6;" horiz-adv-x="500" 
d="M424 57c42.667 51.333 64 119 64 203s-21.333 151.667 -64 203c-43.333 52 -101.333 78 -174 78s-130.334 -26 -173.001 -78c-42.667 -51.333 -64 -119 -64 -203s21.333 -151.667 64 -203c42.667 -52 100.334 -78 173.001 -78s130.667 26 174 78zM319 381
c15.333 -27.333 22.999 -67.665 22.999 -120.998c0 -15.333 -0.833008 -32.333 -2.5 -51s-5.66699 -36 -12 -52s-15.666 -29.333 -27.999 -40s-28.833 -16 -49.5 -16s-37 5.5 -49 16.5s-21.167 24.5 -27.5 40.5s-10.333 33.167 -12 51.5s-2.5 35.166 -2.5 50.499
s0.833008 32.166 2.5 50.499s5.66699 35.5 12 51.5s15.5 29.5 27.5 40.5s28.333 16.5 49 16.5c32 0 55 -12.667 69 -38zM261.999 585.001h142v138h-142v-138zM71.999 585.001h142v138h-142v-138z" />
    <glyph glyph-name="divide" unicode="&#xf7;" horiz-adv-x="600" 
d="M218 367h161v165h-161v-165zM29 196h543v128h-543v-128zM218 -14h161v165h-161v-165z" />
    <glyph glyph-name="oslash" unicode="&#xf8;" horiz-adv-x="500" 
d="M420 456l92.001 166.999h-117l-54 -98c-23.333 10.667 -54 16 -92 16c-72.667 0 -130.334 -26 -173.001 -78c-42.667 -51.333 -64 -119 -64 -203c0 -37.333 5 -74.333 15 -111s27.667 -69.334 53 -98.001l-89 -162l117 1l57 103c11.333 -5.33301 24 -9 38 -11
s29.333 -3 46 -3c72.667 0 130.667 26 174 78c42.667 51.333 64 119 64 203s-21.667 151.667 -65 203c-0.666992 0.666992 -1.16699 1.33398 -1.5 2.00098s-0.833008 1.33398 -1.5 2.00098zM249.001 418.999c7.33301 0 13.668 -0.332031 19.001 -0.999023
s9.66602 -1.66699 12.999 -3l-119 -217c-1.33301 8.66699 -2.33301 18.167 -3 28.5s-1 21.5 -1 33.5c0 15.333 0.833008 32.166 2.5 50.499s5.66699 35.5 12 51.5s15.5 29.5 27.5 40.5s28.333 16.5 49 16.5zM339.003 309c0.666992 -7.33301 1.16699 -15 1.5 -23
s0.5 -16.667 0.5 -26c0 -15.333 -0.833008 -32.333 -2.5 -51s-5.66699 -36 -12 -52s-15.666 -29.333 -27.999 -40s-28.833 -16 -49.5 -16c-8.66699 0 -16.334 0.666992 -23.001 2z" />
    <glyph glyph-name="ugrave" unicode="&#xf9;" horiz-adv-x="556" 
d="M367 -11l135 -0.00195312v542h-146v-383c-12.667 -13.333 -28 -24.5 -46 -33.5s-36.667 -13.5 -56 -13.5c-21.333 0 -35.333 5.66699 -42 17c-8.66699 12 -13 33 -13 63v350h-146v-369c0 -26 3.16699 -50.167 9.5 -72.5s16.333 -41.666 30 -57.999
s30.667 -29.166 51 -38.499s44.5 -14 72.5 -14c29.333 0 56 5.5 80 16.5s47.667 24.167 71 39.5v-46zM242 574.998h126l-108 168h-187z" />
    <glyph glyph-name="uacute" unicode="&#xfa;" horiz-adv-x="556" 
d="M367 -11l135 -0.00195312v542h-146v-383c-12.667 -13.333 -28 -24.5 -46 -33.5s-36.667 -13.5 -56 -13.5c-21.333 0 -35.333 5.66699 -42 17c-8.66699 12 -13 33 -13 63v350h-146v-369c0 -26 3.16699 -50.167 9.5 -72.5s16.333 -41.666 30 -57.999
s30.667 -29.166 51 -38.499s44.5 -14 72.5 -14c29.333 0 56 5.5 80 16.5s47.667 24.167 71 39.5v-46zM290 574.998l169 168h-187l-108 -168h126z" />
    <glyph glyph-name="ucircumflex" unicode="&#xfb;" horiz-adv-x="556" 
d="M367 -11l135 -0.00195312v542h-146v-383c-12.667 -13.333 -28 -24.5 -46 -33.5s-36.667 -13.5 -56 -13.5c-21.333 0 -35.333 5.66699 -42 17c-8.66699 12 -13 33 -13 63v350h-146v-369c0 -26 3.16699 -50.167 9.5 -72.5s16.333 -41.666 30 -57.999
s30.667 -29.166 51 -38.499s44.5 -14 72.5 -14c29.333 0 56 5.5 80 16.5s47.667 24.167 71 39.5v-46zM325 574.998h141l-132 168h-134l-132 -168h141l58 75z" />
    <glyph glyph-name="udieresis" unicode="&#xfc;" horiz-adv-x="556" 
d="M367 -11l135 -0.00195312v542h-146v-383c-12.667 -13.333 -28 -24.5 -46 -33.5s-36.667 -13.5 -56 -13.5c-21.333 0 -35.333 5.66699 -42 17c-8.66699 12 -13 33 -13 63v350h-146v-369c0 -26 3.16699 -50.167 9.5 -72.5s16.333 -41.666 30 -57.999
s30.667 -29.166 51 -38.499s44.5 -14 72.5 -14c29.333 0 56 5.5 80 16.5s47.667 24.167 71 39.5v-46zM292 584.998h142v138h-142v-138zM102 584.998h142v138h-142v-138z" />
    <glyph glyph-name="yacute" unicode="&#xfd;" horiz-adv-x="444" 
d="M277 -15l174 546h-148l-82 -293l-79 293h-148l158 -505l1 -18c-6 -22.667 -14.333 -42.667 -25 -60c-5.33301 -8 -13 -14.5 -23 -19.5s-23.667 -6.83301 -41 -5.5l-65 5v-124l71 -5c28.667 -2 54.167 2 76.5 12s42 23.833 59 41.5s31.333 38.167 43 61.5
s21.167 47 28.5 71zM231 575l169 168h-187l-108 -168h126z" />
    <glyph glyph-name="thorn" unicode="&#xfe;" horiz-adv-x="556" 
d="M474 57c41.333 51.333 62 115.001 62 191.001c0 87.333 -19.333 157.666 -58 210.999c-38.667 54.667 -92.667 82 -162 82c-41.333 0 -80.333 -10.333 -117 -31v223h-146v-934h146v225c16 -14 34.333 -25 55 -33s41.667 -12 63 -12c62.667 0 115 26 157 78zM361 379.001
c9.33301 -14 16.335 -30.832 21.002 -50.499s7 -42.5 7 -68.5c0 -17.333 -1.5 -35.333 -4.5 -54s-8.33301 -35.834 -16 -51.501s-18.334 -28.5 -32.001 -38.5s-31.5 -15 -53.5 -15c-16 0 -31.167 3.83301 -45.5 11.5s-27.166 16.5 -38.499 26.5v240
c13.333 12.667 26.166 22.5 38.499 29.5s28.166 10.5 47.499 10.5c34 0 59.333 -13.333 76 -40z" />
    <glyph glyph-name="ydieresis" unicode="&#xff;" horiz-adv-x="444" 
d="M277 -15l174 546h-148l-82 -293l-79 293h-148l158 -505l1 -18c-6 -22.667 -14.333 -42.667 -25 -60c-5.33301 -8 -13 -14.5 -23 -19.5s-23.667 -6.83301 -41 -5.5l-65 5v-124l71 -5c28.667 -2 54.167 2 76.5 12s42 23.833 59 41.5s31.333 38.167 43 61.5
s21.167 47 28.5 71zM233 585h142v138h-142v-138zM43 585h142v138h-142v-138z" />
    <glyph glyph-name="OE" unicode="&#x152;" horiz-adv-x="944" 
d="M509 -11l418.999 0.00195312v138h-321v181l217 1v136h-217v150h309v138h-437c-36 0 -71.833 1.33301 -107.5 4s-70.5 2.5 -104.5 -0.5s-66.667 -11 -98 -24s-60.333 -35.167 -87 -66.5c-54 -64 -81 -159 -81 -285c0 -64.667 6.83301 -120.834 20.5 -168.501
s34.834 -87.5 63.501 -119.5c28 -31.333 58.833 -53.333 92.5 -66s69 -20.334 106 -23.001s74.667 -2.5 113 0.5s75.833 4.5 112.5 4.5zM447.999 461.002l-0.000976562 -209.995c0 -28.667 -2.66699 -51.667 -8 -69s-12.666 -30 -21.999 -38
c-10 -8.66699 -23.667 -15.334 -41 -20.001s-39.333 -7 -66 -7c-54 0 -92 19.667 -114 59c-23.333 41.333 -35 103.666 -35 186.999s11.667 144.666 35 183.999c11.333 19.333 26.5 33.833 45.5 43.5s42.5 14.5 70.5 14.5s50.5 -2.33301 67.5 -7
s30.167 -11.334 39.5 -20.001c8.66699 -8.66699 15.5 -22.334 20.5 -41.001s7.5 -44 7.5 -76z" />
    <glyph glyph-name="oe" unicode="&#x153;" horiz-adv-x="778" 
d="M669 5c18 8.66699 34.6689 20.5 50.002 35.5s30.666 34.5 45.999 58.5l-108 68c-13.333 -19.333 -28.333 -35.166 -45 -47.499s-37.334 -18.5 -62.001 -18.5c-19.333 0 -34.666 3.83301 -45.999 11.5s-20.333 17.667 -27 30s-11.5 26 -14.5 41s-5.16699 30.167 -6.5 45.5
h305v70c0 34 -6 65.167 -18 93.5s-27.667 54.166 -47 77.499c-39.333 47.333 -90.333 71 -153 71c-31.333 0 -58.833 -4.5 -82.5 -13.5s-46.167 -24.833 -67.5 -47.5c-21.333 22 -46 37.667 -74 47s-57 14 -87 14c-40.667 0 -75.5 -7.83301 -104.5 -23.5
s-52.833 -36.667 -71.5 -63s-32.5 -56.333 -41.5 -90s-13.5 -68.5 -13.5 -104.5c0 -84 20.333 -151.667 61 -203c42 -52 98.333 -78 169 -78c30 0 59.667 4.5 89 13.5s54.333 25.167 75 48.5c20.667 -23.333 44.667 -39.333 72 -48c31.333 -9.33301 57.666 -14 78.999 -14
c23.333 0 45.333 2 66 6s39.667 10.667 57 20zM601.002 401c13.333 -16.667 21.001 -38.666 23.001 -65.999h-167c2 12 4.66699 23.667 8 35s8 21.166 14 29.499s14 15 24 20s22.333 7.5 37 7.5c25.333 0 45.666 -8.66699 60.999 -26zM299.003 381.001
c14.667 -28 22 -68.333 22 -121s-7.33301 -93 -22 -121c-13.333 -25.333 -35 -38 -65 -38s-51.667 12.667 -65 38c-14.667 28 -22 68.333 -22 121s7.33301 93 22 121c13.333 25.333 35 38 65 38s51.667 -12.667 65 -38z" />
    <glyph glyph-name="Scaron" unicode="&#x160;" 
d="M500 37c46.667 40 70.001 96.3369 70.001 169.004c0 67.333 -23.667 118.666 -71 153.999c-44.667 34.667 -95.334 61.667 -152.001 81c-40 14 -76 30 -108 48c-15.333 8.66699 -26.166 17.667 -32.499 27s-9.5 19 -9.5 29c0 12.667 2.83301 23.5 8.5 32.5s13 16 22 21
s19 8.66699 30 11s21.833 3.5 32.5 3.5c33.333 0 59.166 -8.83301 77.499 -26.5s33.5 -40.834 45.5 -69.501l147 45c-14.667 34 -31 62 -49 84s-38.667 40 -62 54c-46.667 28.667 -99.334 43 -158.001 43c-70 0 -128.333 -19.333 -175 -58s-70 -87.667 -70 -147
c0 -60 20 -107 60 -141c38 -31.333 95.667 -61.666 173 -90.999c39.333 -14.667 73 -31.334 101 -50.001c25.333 -16.667 38 -37.334 38 -62.001c0 -16.667 -3 -30.5 -9 -41.5s-14.167 -19.667 -24.5 -26s-22.166 -10.833 -35.499 -13.5s-27 -4 -41 -4
c-20 0 -37.833 2.83301 -53.5 8.5s-29.5 13.5 -41.5 23.5s-22.667 22.167 -32 36.5s-18 30.166 -26 47.499l-133 -58c15.333 -36 33 -65.5 53 -88.5s43.667 -41.833 71 -56.5c51.333 -28.667 104 -43 158 -43c84 0 149.333 19.333 196 58zM351.001 750.004l132 168h-141
l-58 -75l-58 75h-141l132 -168h134z" />
    <glyph glyph-name="scaron" unicode="&#x161;" horiz-adv-x="444" 
d="M365 22c38 30 57.0029 68.668 57.0029 116.001c0 46 -12.333 84.333 -37 115c-12.667 14.667 -27.167 26.667 -43.5 36s-33.333 17.166 -51 23.499l-53.5 18.5c-18 6 -35.333 13.667 -52 23c-16 9.33301 -24 20.333 -24 33c0 16.667 6.33301 27.5 19 32.5s26 7.5 40 7.5
c19.333 0 37.166 -6.5 53.499 -19.5s30.5 -26.5 42.5 -40.5l95 83c-28.667 32 -58.334 55.167 -89.001 69.5s-67.334 21.5 -110.001 21.5c-24 0 -47.167 -3.5 -69.5 -10.5s-41.833 -17.333 -58.5 -31s-30 -30.5 -40 -50.5s-15 -43 -15 -69c0 -52 16.333 -90.333 49 -115
c32 -23.333 67 -42 105 -56l52.5 -21c14.333 -6 25.5 -11.333 33.5 -16c13.333 -7.33301 20 -18 20 -32c0 -8.66699 -2 -16 -6 -22s-9.16699 -10.833 -15.5 -14.5s-13.333 -6.33398 -21 -8.00098s-15.167 -2.5 -22.5 -2.5c-12.667 0 -24.667 2.33301 -36 7
s-21.833 10.834 -31.5 18.501s-18.667 16.167 -27 25.5s-15.5 19 -21.5 29l-101 -76c17.333 -24 34.166 -43.5 50.499 -58.5s33.833 -26.833 52.5 -35.5c36 -16 73.333 -24 112 -24c58.667 0 106.334 14.333 143.001 43zM276.003 575.001l132 168h-141l-58 -75l-58 75h-141
l132 -168h134z" />
    <glyph glyph-name="Ydieresis" unicode="&#x178;" horiz-adv-x="556" 
d="M358 287l205 446h-168l-117 -269l-117 269h-168l206 -449v-295h159v298zM288 760h142v138h-142v-138zM98 760h142v138h-142v-138z" />
    <glyph glyph-name="florin" unicode="&#x192;" 
d="M119 -73l-51.0059 9.99609l-24 -128l77 -10c59.333 0 105.666 17.667 138.999 53c16.667 17.333 31.834 42.333 45.501 75s25.167 72.667 34.5 120l59 308h122v116h-101c1.33301 10 3 23.167 5 39.5s5.33301 32.333 10 48s11.334 29.334 20.001 41.001
s20.334 17.5 35.001 17.5c10 0 19.5 -1.66699 28.5 -5l27.5 -10l18 129c-14.667 4.66699 -29.667 7.83398 -45 9.50098s-30.666 2.5 -45.999 2.5c-57.333 0 -99.666 -19.667 -126.999 -59c-10 -13.333 -18.667 -29 -26 -47s-13.666 -36.5 -18.999 -55.5
s-10.166 -38.167 -14.499 -57.5l-11.5 -53h-121v-116h95l-70 -350c-2.66699 -7.33301 -5.66699 -15.166 -9 -23.499s-7.33301 -16.166 -12 -23.499s-10.167 -13.833 -16.5 -19.5s-13.833 -9.5 -22.5 -11.5z" />
    <glyph glyph-name="circumflex" unicode="&#x2c6;" horiz-adv-x="278" 
d="M197 575h141l-132 168h-134l-132 -168h141l58 75z" />
    <glyph glyph-name="tilde" unicode="&#x2dc;" horiz-adv-x="278" 
d="M292 627c11.333 12 20.332 26.333 26.999 43s12 37.667 16 63h-84c-1.33301 -4 -3 -8.33301 -5 -13s-4.33301 -9.16699 -7 -13.5s-6 -8 -10 -11s-8.33301 -4.5 -13 -4.5c-12 0 -24 1.83301 -36 5.5s-24.167 7.83398 -36.5 12.501s-24.833 8.83398 -37.5 12.501
s-25.334 5.5 -38.001 5.5c-31.333 0 -58.666 -12.667 -81.999 -38c-11.333 -12 -20.333 -26.333 -27 -43s-12 -37.667 -16 -63h84c1.33301 4 3 8.33301 5 13s4.33301 9.16699 7 13.5s5.83398 8 9.50098 11s8.16699 4.5 13.5 4.5c12 0 24 -1.83301 36 -5.5
s24.167 -7.83398 36.5 -12.501s24.833 -8.83398 37.5 -12.501s25.334 -5.5 38.001 -5.5c31.333 0 58.666 12.667 81.999 38z" />
    <glyph glyph-name="endash" unicode="&#x2013;" horiz-adv-x="500" 
d="M-11 207h522v106h-522v-106z" />
    <glyph glyph-name="emdash" unicode="&#x2014;" horiz-adv-x="1000" 
d="M-11 207h1022v106h-1022v-106z" />
    <glyph glyph-name="quoteleft" unicode="&#x2018;" horiz-adv-x="278" 
d="M59 429h160v164h-56l51 150h-87l-68 -159v-155z" />
    <glyph glyph-name="quoteright" unicode="&#x2019;" horiz-adv-x="278" 
d="M151 419l68 159v155h-160v-164h56l-51 -150h87z" />
    <glyph glyph-name="quotesinglbase" unicode="&#x201a;" horiz-adv-x="278" 
d="M151 -161l68 159v155h-160v-164h56l-51 -150h87z" />
    <glyph glyph-name="quotedblleft" unicode="&#x201c;" horiz-adv-x="444" 
d="M254 429v155l68 159h87l-51 -150h56v-164h-160zM31 429v155l68 159h87l-51 -150h56v-164h-160z" />
    <glyph glyph-name="quotedblright" unicode="&#x201d;" horiz-adv-x="444" 
d="M345 419h-87l51 150h-56v164h160v-155zM122 419h-87l51 150h-56v164h160v-155z" />
    <glyph glyph-name="quotedblbase" unicode="&#x201e;" horiz-adv-x="444" 
d="M345 -161h-87l51 150h-56v164h160v-155zM122 -161h-87l51 150h-56v164h160v-155z" />
    <glyph glyph-name="dagger" unicode="&#x2020;" horiz-adv-x="500" 
d="M287 480l156 -29v132l-156 -29l26 189h-126l26 -189l-156 29v-132l156 29l-24 -149l33 -416h56l33 416z" />
    <glyph glyph-name="daggerdbl" unicode="&#x2021;" horiz-adv-x="500" 
d="M287 96l156 -29v132l-156 -29l24 151l-24 167l156 -29v132l-156 -29l26 181h-126l26 -181l-156 29v-132l156 29l-24 -167l24 -151l-156 29v-132l156 29l-26 -181h126z" />
    <glyph glyph-name="bullet" unicode="&#x2022;" horiz-adv-x="500" 
d="M72 177h160v164h-160v-164z" />
    <glyph glyph-name="ellipsis" unicode="&#x2026;" horiz-adv-x="1000" 
d="M420 -11h160v164h-160v-164zM753 -11h160v164h-160v-164zM87 -11h160v164h-160v-164z" />
    <glyph glyph-name="perthousand" unicode="&#x2030;" horiz-adv-x="1000" 
d="M949 36c32 30.667 48.001 67.667 48.001 111c0 22 -4.16699 42.667 -12.5 62s-19.666 36.333 -33.999 51s-31.166 26.167 -50.499 34.5s-40 12.5 -62 12.5c-21.333 0 -41.666 -4.16699 -60.999 -12.5s-36.333 -19.5 -51 -33.5s-26.334 -30.5 -35.001 -49.5
s-13 -39.5 -13 -61.5s4.16699 -42.833 12.5 -62.5s19.666 -36.667 33.999 -51s31.166 -25.833 50.499 -34.5s40 -13 62 -13c43.333 0 80.666 15.667 111.999 47zM274.001 461c31.333 31.333 46.999 68.332 46.999 110.999c0 22 -4.16699 42.833 -12.5 62.5
s-19.666 36.667 -33.999 51s-31.166 25.833 -50.499 34.5s-40 13 -62 13c-21.333 0 -41.666 -4.16699 -60.999 -12.5s-36.333 -19.666 -51 -33.999s-26.167 -31 -34.5 -50s-12.5 -39.5 -12.5 -61.5s4.16699 -42.833 12.5 -62.5s19.666 -36.667 33.999 -51
s31.166 -25.833 50.499 -34.5s40 -13 62 -13c42 0 79.333 15.667 112 47zM161 -21.001l422 764h-109l-422 -764h109zM582 35.999c32 30.667 48.001 67.667 48.001 111c0 22 -4.16699 42.667 -12.5 62s-19.666 36.333 -33.999 51s-31.166 26.167 -50.499 34.5
s-40 12.5 -62 12.5c-21.333 0 -41.666 -4.16699 -60.999 -12.5s-36.333 -19.5 -51 -33.5s-26.334 -30.5 -35.001 -49.5s-13 -39.5 -13 -61.5s4.16699 -42.833 12.5 -62.5s19.666 -36.667 33.999 -51s31.166 -25.833 50.499 -34.5s40 -13 62 -13
c43.333 0 80.666 15.667 111.999 47zM877.001 186.999c10.667 -10 16 -22.666 16 -37.999c0 -14.667 -5.33301 -27.667 -16 -39s-23.667 -17 -39 -17s-28.5 5.16699 -39.5 15.5s-16.5 23.166 -16.5 38.499s5.5 28.5 16.5 39.5s24.167 16.5 39.5 16.5s28.333 -5.33301 39 -16
zM201.001 613c10.667 -10.667 15.999 -23.665 15.999 -38.998c0 -14.667 -5.16699 -27.667 -15.5 -39s-23.166 -17 -38.499 -17s-28.5 5.16699 -39.5 15.5s-16.5 23.166 -16.5 38.499s5.33301 28.666 16 39.999s23.667 17 39 17c16 0 29 -5.33301 39 -16zM510 187.002
c10.667 -10 16 -22.666 16 -37.999c0 -14.667 -5.33301 -27.667 -16 -39s-23.667 -17 -39 -17s-28.5 5.16699 -39.5 15.5s-16.5 23.166 -16.5 38.499s5.5 28.5 16.5 39.5s24.167 16.5 39.5 16.5s28.333 -5.33301 39 -16z" />
    <glyph glyph-name="guilsinglleft" unicode="&#x2039;" horiz-adv-x="333" 
d="M155 89h140l-131 171l131 171h-140l-128 -171z" />
    <glyph glyph-name="guilsinglright" unicode="&#x203a;" horiz-adv-x="333" 
d="M179 89l126 171l-126 171h-140l129 -171l-129 -171h140z" />
    <glyph glyph-name="trademark" unicode="&#x2122;" horiz-adv-x="1000" 
d="M819 299h122v434h-168l-85 -239l-86 239h-168v-434h122v240l85 -240h93l85 240v-240zM253 627h120v106h-362v-106h120v-328h122v328z" />
    <glyph glyph-name="HT" unicode="&#xe000;" horiz-adv-x="305" 
 />
    <glyph glyph-name="nonmarkingreturn" unicode="&#xe001;" horiz-adv-x="305" 
 />
    <glyph glyph-name="minus" unicode="&#xe002;" horiz-adv-x="600" 
d="M29 196h543v128h-543v-128z" />
    <glyph glyph-name="notequal" unicode="&#xe003;" horiz-adv-x="600" 
d="M296 86h276v128h-225l36 92h189v128h-138l36 91h-129l-36 -91h-276v-128h225l-36 -92h-189v-128h138l-36 -91h129z" />
    <glyph glyph-name="infinity" unicode="&#xe004;" horiz-adv-x="713" 
d="M652 155c32 28.667 48 65 48 109c0 43.333 -16 79.666 -48 108.999c-32 28 -67 42 -105 42c-20 0 -38.5 -2.83301 -55.5 -8.5s-33.167 -13.167 -48.5 -22.5s-30 -20.166 -44 -32.499l-42 -37.5l-42 37.5c-14 12.333 -28.667 23.166 -44 32.499s-31.5 16.833 -48.5 22.5
s-35.5 8.5 -55.5 8.5c-38 0 -73 -14 -105 -42c-32 -29.333 -48 -65.666 -48 -108.999c0 -44 16 -80.333 48 -109c32 -28 67 -42 105 -42c18.667 0 36.667 3 54 9s34 13.833 50 23.5s31 20.5 45 32.5l41 36c12.667 -12 26.167 -24 40.5 -36s29.5 -22.833 45.5 -32.5
s32.5 -17.5 49.5 -23.5s35.167 -9 54.5 -9c38 0 73 14 105 42zM605 317c14.667 -16.667 22 -34.3301 22 -52.9971c0 -25.333 -7.16699 -44.666 -21.5 -57.999s-33.833 -20 -58.5 -20c-14 0 -27.333 2.33301 -40 7s-24.667 10.667 -36 18s-22.166 15.666 -32.499 24.999
s-19.833 18.666 -28.5 27.999c8.66699 9.33301 18.167 18.666 28.5 27.999s21.166 17.666 32.499 24.999s23.333 13.333 36 18s26 7 40 7c24.667 0 44 -8.33301 58 -25zM242 318.004c11.333 -8 22 -16.501 32 -25.501s20 -18.5 30 -28.5l-29 -28
c-10 -9.33301 -20.667 -17.666 -32 -24.999s-23.333 -13.333 -36 -18s-26 -7 -40 -7c-24.667 0 -44.167 6.66699 -58.5 20s-21.5 32.666 -21.5 57.999c0 18.667 7.33301 36.334 22 53.001c14 16.667 33.333 25 58 25c26.667 0 51.667 -8 75 -24z" />
    <glyph glyph-name="lessequal" unicode="&#xe005;" horiz-adv-x="600" 
d="M29 309l541 -232v135l-354 150l354 150v135l-541 -232v-106zM29 -11h541v119h-541v-119z" />
    <glyph glyph-name="greaterequal" unicode="&#xe006;" horiz-adv-x="600" 
d="M29 77l541 232v106l-541 232v-135l354 -150l-354 -150v-135zM29 -11h541v119h-541v-119z" />
    <glyph glyph-name="partialdiff" unicode="&#xe007;" horiz-adv-x="494" 
d="M410 107c42 90 63 185.332 63 285.999c0 108 -26.667 196 -80 264c-54.667 68.667 -120.334 103 -197.001 103c-28.667 0 -54.167 -3.66699 -76.5 -11s-46.166 -16.666 -71.499 -27.999l53 -68c20 10 38.833 18.5 56.5 25.5s37.834 10.5 60.501 10.5
c31.333 0 57.166 -8.16699 77.499 -24.5s36.333 -36.666 48 -60.999s19.667 -50.833 24 -79.5s6.5 -55 6.5 -79c0 -15.333 -0.5 -30.5 -1.5 -45.5s-2.83301 -29.833 -5.5 -44.5c-22.667 18 -44.667 32.167 -66 42.5s-47 15.5 -77 15.5
c-57.333 0 -106.666 -23.333 -147.999 -70c-40.667 -46.667 -61 -102.334 -61 -167.001c0 -68 21.667 -119.667 65 -155c42.667 -35.333 87.667 -53 135 -53c44 0 82.167 11.667 114.5 35s59.166 58 80.499 104zM317 334.999c7.33301 -6 14.168 -12.1689 20.501 -18.502
s12.166 -13.166 17.499 -20.499c-12 -95.333 -31 -165.666 -57 -210.999c-24.667 -43.333 -56.667 -65 -96 -65c-27.333 0 -47 11.667 -59 35c-13.333 25.333 -20 56.333 -20 93c0 62.667 14.667 112.667 44 150c28 36 58.333 54 91 54c24 0 43.667 -5.66699 59 -17z" />
    <glyph glyph-name="summation" unicode="&#xe008;" horiz-adv-x="713" 
d="M680 -2c3.33301 17.333 7.16504 35.999 11.498 55.999s10.166 44.333 17.499 73h-44c-11.333 -27.333 -21.166 -48.333 -29.499 -63s-16.166 -25.334 -23.499 -32.001c-7.33301 -5.33301 -17.166 -9.66602 -29.499 -12.999s-27.5 -5 -45.5 -5h-347l284 328l-265 347h241
c30 0 53.333 -2.33301 70 -7s28.334 -11 35.001 -19c8 -9.33301 15.167 -20.833 21.5 -34.5s12.166 -31.5 17.499 -53.5h40l-6 181h-508l-127 9l356 -467l-360 -410l83 4h503c14.667 0 29.167 -1.5 43.5 -4.5s28.833 -5.83301 43.5 -8.5l9 66
c2.66699 18.667 5.66699 36.334 9 53.001z" />
    <glyph glyph-name="product" unicode="&#xe009;" horiz-adv-x="823" 
d="M486 -112l327.999 0.00195312v45c-25.333 0 -44 1.5 -56 4.5s-20.333 6.83301 -25 11.5c-10.667 10.667 -16 28.667 -16 54v626c0 34 7.5 57.167 22.5 69.5s38.833 18.5 71.5 18.5v45h-795v-45c32.667 0 56.667 -6.16699 72 -18.5s23 -35.5 23 -69.5v-626
c0 -13.333 -1.33301 -24.333 -4 -33s-6.33398 -15.667 -11.001 -21c-4.66699 -4.66699 -13.167 -8.5 -25.5 -11.5s-31.166 -4.5 -56.499 -4.5v-45h329v45c-25.333 0.666992 -44 2.5 -56 5.5s-20.333 6.83301 -25 11.5c-5.33301 5.33301 -9.33301 12.166 -12 20.499
s-4 19.166 -4 32.499v682h336v-682c0 -16.667 -2.16699 -29.667 -6.5 -39s-10.666 -16.333 -18.999 -21s-18.5 -7.5 -30.5 -8.5s-25.333 -1.5 -40 -1.5v-45z" />
    <glyph glyph-name="pi" unicode="&#xe00a;" horiz-adv-x="549" 
d="M502 22c12.667 16.667 22.165 36.1689 28.498 58.502s9.83301 49.5 10.5 81.5h-44c0 -16.667 -1.16699 -29.334 -3.5 -38.001s-6.16602 -15.667 -11.499 -21c-10 -10.667 -21 -16 -33 -16c-11.333 0 -23 6 -35 18c-12.667 11.333 -19 31.666 -19 60.999
c0 36 0.833008 73.333 2.5 112s4.5 76 8.5 112h127v108h-384c-40.667 0 -73 -16.333 -97 -49c-11.333 -15.333 -21.5 -32.5 -30.5 -51.5s-17.833 -42.5 -26.5 -70.5h38c4.66699 8 9.5 15.833 14.5 23.5s10.667 14.5 17 20.5s13.5 10.667 21.5 14s17.333 5 28 5h35l-28 -217
c-2 -15.333 -7 -28.666 -15 -39.999s-16.5 -22 -25.5 -32s-17 -20.167 -24 -30.5s-10.5 -22.166 -10.5 -35.499c0 -17.333 6.5 -32.5 19.5 -45.5s28.167 -19.5 45.5 -19.5c11.333 0 21.333 2.16699 30 6.5s16 10.166 22 17.499s11 15.666 15 24.999s7 19 9 29l45 342h91
c-4.66699 -40 -9 -79.667 -13 -119s-6 -79 -6 -119c0 -28 2.33301 -52.833 7 -74.5s12.334 -40.167 23.001 -55.5c20.667 -32.667 46.334 -49 77.001 -49c35.333 0 65.666 16.333 90.999 49z" />
    <glyph glyph-name="integral" unicode="&#xe00b;" horiz-adv-x="274" 
d="M286 823c10.667 12 15.998 24.3359 15.998 37.0029c0 21.333 -8 37.833 -24 49.5s-33.667 17.5 -53 17.5c-28 0 -49.833 -10.5 -65.5 -31.5s-26.5 -50.167 -32.5 -87.5c-12 -74 -18 -182.333 -18 -325c0 -168 1 -273 3 -315c2 -41.333 3 -72.666 3 -93.999
c0 -20 -0.666992 -36.833 -2 -50.5s-3 -24.167 -5 -31.5c-1.33301 -5.33301 -2.5 -9.5 -3.5 -12.5s-2.5 -4.5 -4.5 -4.5c-2.66699 0 -5.33398 1.66699 -8.00098 5s-6 7.16602 -10 11.499s-9 8.16602 -15 11.499s-13 5 -21 5c-14.667 0 -27.5 -5.5 -38.5 -16.5
s-16.5 -23.833 -16.5 -38.5c0 -22 8.33301 -39.333 25 -52c14.667 -12.667 30 -19 46 -19c30.667 0 55.334 11.333 74.001 34s32.334 54.667 41.001 96c9.33301 41.333 16 94 20 158s6 140.333 6 229c0 47.333 -1 92.666 -3 135.999s-4.66699 85.666 -8 126.999
c-3.33301 40.667 -5.83301 74 -7.5 100s-2.5 44.667 -2.5 56c0 2.66699 0.333008 5.16699 1 7.5s2.66699 3.5 6 3.5s6.33301 -1.33301 9 -4s5.83398 -5.5 9.50098 -8.5s8 -5.66699 13 -8s11.5 -3.5 19.5 -3.5c18.667 0 34 6 46 18z" />
    <glyph glyph-name="Omega" unicode="&#xe00c;" horiz-adv-x="768" 
d="M429 -11l318.001 -0.00195312v184h-35c-4 -16 -7.5 -27.833 -10.5 -35.5s-5.83301 -13.167 -8.5 -16.5c-2 -2.66699 -6 -4.83398 -12 -6.50098s-14.667 -2.5 -26 -2.5h-146v8c68 16.667 121 51.334 159 104.001c39.333 53.333 59 111.666 59 174.999
c0 95.333 -34.333 169.333 -103 222c-68 52 -147.667 78 -239 78c-92.667 0 -172.667 -26.333 -240 -79c-68 -54 -102 -127.667 -102 -221c0 -34.667 5 -67.167 15 -97.5s24.5 -57.5 43.5 -81.5s41.833 -44.5 68.5 -61.5s57 -29.833 91 -38.5v-8h-146
c-11.333 0 -19.833 0.833008 -25.5 2.5s-9.83398 3.83398 -12.501 6.50098s-5.5 7.83398 -8.5 15.501s-6.5 19.834 -10.5 36.501h-35v-184h318l-18 172c-28 8 -51 20.167 -69 36.5s-32.333 35.333 -43 57s-18.167 45.167 -22.5 70.5s-6.5 51 -6.5 77
c0 82.667 18.667 143.667 56 183c36 40 85 60 147 60c61.333 0 110.666 -20.333 147.999 -61c36.667 -42 55 -102.667 55 -182c0 -71.333 -13.667 -126.333 -41 -165c-27.333 -38 -60.666 -63.667 -99.999 -77z" />
    <glyph glyph-name="radical" unicode="&#xe00d;" horiz-adv-x="549" 
d="M370 -74l158 995l-57 8l-123 -774l-187 382l-166 -82l26 -53l96 47z" />
    <glyph glyph-name="approxequal" unicode="&#xe00e;" horiz-adv-x="600" 
d="M498 306c14 7.33301 26.502 16.332 37.502 26.999s21.167 24.667 30.5 42l-74 94c-8.66699 -16 -19 -30.5 -31 -43.5s-28 -19.5 -48 -19.5c-5.33301 0 -16.333 2 -33 6s-39 10.667 -67 20c-57.333 17.333 -97.333 26 -120 26c-36 0 -65.833 -8 -89.5 -24
s-45.834 -38 -66.501 -66l74 -97l14.5 23c5 8 10.5 15.333 16.5 22s13 12.167 21 16.5s17 6.5 27 6.5c7.33301 0 19.666 -2.16699 36.999 -6.5s40.666 -11.166 69.999 -20.499c28.667 -9.33301 52.834 -16.333 72.501 -21s35.167 -7 46.5 -7c28 0 55.333 7.33301 82 22z
M498.002 85.999c14 7.33301 26.502 16.332 37.502 26.999s21.167 24.667 30.5 42l-74 94c-8.66699 -16 -19 -30.5 -31 -43.5s-28 -19.5 -48 -19.5c-5.33301 0 -16.333 2 -33 6s-39 10.667 -67 20c-57.333 17.333 -97.333 26 -120 26c-36 0 -65.833 -8 -89.5 -24
s-45.834 -38 -66.501 -66l74 -97l14.5 23c5 8 10.5 15.333 16.5 22s13 12.167 21 16.5s17 6.5 27 6.5c7.33301 0 19.666 -2.16699 36.999 -6.5s40.666 -11.166 69.999 -20.499c28.667 -9.33301 52.834 -16.333 72.501 -21s35.167 -7 46.5 -7c28 0 55.333 7.33301 82 22z" />
    <glyph glyph-name="Delta" unicode="&#xe00f;" horiz-adv-x="612" 
d="M-11 -11h635l-297 726zM289 490l179 -430h-379z" />
    <glyph glyph-name="nonbreakingspace" unicode="&#xe010;" 
 />
    <glyph glyph-name="lozenge" unicode="&#xe011;" horiz-adv-x="494" 
d="M279 -11l199 388l-199 379h-74l-199 -379l199 -388h74zM242 667l152 -290l-152 -299l-152 299z" />
    <glyph glyph-name="apple" unicode="&#xe012;" horiz-adv-x="750" 
d="M67 0h-67v-210h737v210h-65l-248 450l214 283h-185l-226 -298v298h-160v-733zM493 0h-266v212l88 111z" />
    <glyph glyph-name="franc" unicode="&#xe013;" horiz-adv-x="556" 
d="M226 595h323v138h-482v-472h-63v-137h63v-135h159v135h63v137h-63v47l242 1l-1 136h-241v150z" />
    <glyph glyph-name="Gbreve" unicode="&#xe014;" horiz-adv-x="667" 
d="M494 -11l122.998 0.000976562v387h-293v-138h137c-3.33301 -32.667 -16 -60 -38 -82c-25.333 -26 -58.666 -39 -99.999 -39c-30 0 -54.5 8 -73.5 24s-33.667 36 -44 60s-17.333 49.833 -21 77.5s-5.5 52.834 -5.5 75.501c0 22 1.5 47.5 4.5 76.5s9.5 56.5 19.5 82.5
s24.167 47.833 42.5 65.5s42.833 26.5 73.5 26.5c38.667 0 67.834 -8.83301 87.501 -26.5s37.167 -43.5 52.5 -77.5l148 39c-13.333 40 -29 72.667 -47 98s-39.333 45.666 -64 60.999c-48.667 29.333 -101 44 -157 44c-59.333 0 -109.5 -10.833 -150.5 -32.5
s-74 -50.667 -99 -87s-43 -78.333 -54 -126s-16.5 -97.834 -16.5 -150.501c0 -48 5.5 -94.167 16.5 -138.5s28.5 -83.5 52.5 -117.5s55 -61.167 93 -81.5s84 -30.5 138 -30.5c36 0 67.667 5 95 15s54 27.667 80 53v-58zM434.998 784.001
c17.333 12 30.8301 28.833 40.4971 50.5s16.167 49.5 19.5 83.5h-87c-3.33301 -17.333 -7.66602 -30.166 -12.999 -38.499s-11.666 -14.5 -18.999 -18.5c-19.333 -8.66699 -40 -13 -62 -13s-42.667 4.33301 -62 13c-7.33301 4 -13.666 10.167 -18.999 18.5
s-9.66602 21.166 -12.999 38.499h-87c3.33301 -34 9.66602 -61.833 18.999 -83.5s22.666 -38.5 39.999 -50.5c32.667 -22.667 73.334 -34 122.001 -34c48 0 88.333 11.333 121 34z" />
    <glyph glyph-name="gbreve" unicode="&#xe015;" horiz-adv-x="500" 
d="M74 35c-23.333 -7.33301 -41.332 -19.501 -53.999 -36.501s-19 -38.167 -19 -63.5c0 -30 8.66699 -54 26 -72s38.5 -31.667 63.5 -41s51.667 -15.5 80 -18.5s53.166 -4.5 74.499 -4.5c65.333 0 122.666 14.333 171.999 43c52.667 30.667 79 69 79 115
c0 30 -5 54.5 -15 73.5s-23.5 34 -40.5 45s-36.333 18.833 -58 23.5s-44.167 8.16699 -67.5 10.5s-46.666 4 -69.999 5s-45 3.5 -65 7.5c-10.667 2 -17.667 4.83301 -21 8.5s-5 7.83398 -5 12.501s3.5 8.5 10.5 11.5s14.833 5 23.5 6s17 1.66699 25 2s13.333 0.5 16 0.5
c30 0 58.333 3.16699 85 9.5s49.667 16.666 69 30.999s34.666 33 45.999 56s17 51.167 17 84.5c0 31.333 -7 59.666 -21 84.999c9.33301 4 21.333 6 36 6h37v106c-25.333 0 -49.833 -2 -73.5 -6s-44.5 -16 -62.5 -36c-37.333 28 -78.666 42 -123.999 42
c-28 0 -55 -4.16699 -81 -12.5s-49 -20.666 -69 -36.999s-36 -36.166 -48 -59.499s-18 -50 -18 -80c0 -28 5.83301 -53.667 17.5 -77s28.167 -43.666 49.5 -60.999c-18 -10.667 -34.333 -23.834 -49 -39.501s-22 -35.167 -22 -58.5c0 -33.333 18.667 -60.333 56 -81z
M290.001 404.999c14 -14 20.999 -32 20.999 -54c0 -19.333 -7.16699 -36.5 -21.5 -51.5s-31.5 -22.5 -51.5 -22.5c-21.333 0 -40 6.66699 -56 20s-24 31.333 -24 54c0 23.333 7.33301 41.833 22 55.5s33.667 20.5 57 20.5c20.667 0 38.334 -7.33301 53.001 -22zM319 -15.001
c16 -5.33301 26.835 -11.001 32.502 -17.001s8.5 -12 8.5 -18c0 -9.33301 -3.83301 -17 -11.5 -23s-16.834 -10.667 -27.501 -14s-21.5 -5.83301 -32.5 -7.5s-19.5 -2.5 -25.5 -2.5c-25.333 0 -46.333 1.16699 -63 3.5s-29.667 5.5 -39 9.5
c-16 8.66699 -24 20.334 -24 35.001c0 13.333 7 25 21 35c9.33301 7.33301 26.666 12 51.999 14c24 -1.33301 45 -3.33301 63 -6s33.333 -5.66699 46 -9zM361.002 608.998c17.333 12 30.8301 28.833 40.4971 50.5s16.167 49.5 19.5 83.5h-87
c-3.33301 -17.333 -7.66602 -30.166 -12.999 -38.499s-11.666 -14.5 -18.999 -18.5c-19.333 -8.66699 -40 -13 -62 -13s-42.667 4.33301 -62 13c-7.33301 4 -13.666 10.167 -18.999 18.5s-9.66602 21.166 -12.999 38.499h-87c3.33301 -34 9.66602 -61.833 18.999 -83.5
s22.666 -38.5 39.999 -50.5c32.667 -22.667 73.334 -34 122.001 -34c48 0 88.333 11.333 121 34z" />
    <glyph glyph-name="Idotaccent" unicode="&#xe016;" horiz-adv-x="333" 
d="M86 -11h160v744h-160v-744zM85 760h142v138h-142v-138z" />
    <glyph glyph-name="Scedilla" unicode="&#xe017;" 
d="M500 37c46.667 40 70.001 96.3369 70.001 169.004c0 67.333 -23.667 118.666 -71 153.999c-44.667 34.667 -95.334 61.667 -152.001 81c-40 14 -76 30 -108 48c-15.333 8.66699 -26.166 17.667 -32.499 27s-9.5 19 -9.5 29c0 12.667 2.83301 23.5 8.5 32.5s13 16 22 21
s19 8.66699 30 11s21.833 3.5 32.5 3.5c33.333 0 59.166 -8.83301 77.499 -26.5s33.5 -40.834 45.5 -69.501l147 45c-14.667 34 -31 62 -49 84s-38.667 40 -62 54c-46.667 28.667 -99.334 43 -158.001 43c-70 0 -128.333 -19.333 -175 -58s-70 -87.667 -70 -147
c0 -60 20 -107 60 -141c38 -31.333 95.667 -61.666 173 -90.999c39.333 -14.667 73 -31.334 101 -50.001c25.333 -16.667 38 -37.334 38 -62.001c0 -16.667 -3 -30.5 -9 -41.5s-14.167 -19.667 -24.5 -26s-22.166 -10.833 -35.499 -13.5s-27 -4 -41 -4
c-20 0 -37.833 2.83301 -53.5 8.5s-29.5 13.5 -41.5 23.5s-22.667 22.167 -32 36.5s-18 30.166 -26 47.499l-133 -58c15.333 -36 33 -65.5 53 -88.5s43.667 -41.833 71 -56.5c51.333 -28.667 104 -43 158 -43c84 0 149.333 19.333 196 58zM379.001 -210.996
c26.667 19.333 39.999 44.998 39.999 76.998c0 14.667 -2.66699 27.5 -8 38.5s-12.5 20 -21.5 27s-19.667 12.333 -32 16s-25.166 5.5 -38.499 5.5l-12 -2l41 60h-80l-67 -102l30 -31l49 7c8 0 14.833 -1.16699 20.5 -3.5s8.5 -8.16602 8.5 -17.499
c0 -13.333 -3.5 -21.666 -10.5 -24.999s-16.833 -5 -29.5 -5c-16 0 -30.333 1.83301 -43 5.5l-42 12.5l-27 -61c20 -8 40.167 -15.167 60.5 -21.5s41.5 -9.5 63.5 -9.5c39.333 0 72 9.66699 98 29z" />
    <glyph glyph-name="scedilla" unicode="&#xe018;" horiz-adv-x="444" 
d="M365 22c38 30 57.0029 68.668 57.0029 116.001c0 46 -12.333 84.333 -37 115c-12.667 14.667 -27.167 26.667 -43.5 36s-33.333 17.166 -51 23.499l-53.5 18.5c-18 6 -35.333 13.667 -52 23c-16 9.33301 -24 20.333 -24 33c0 16.667 6.33301 27.5 19 32.5s26 7.5 40 7.5
c19.333 0 37.166 -6.5 53.499 -19.5s30.5 -26.5 42.5 -40.5l95 83c-28.667 32 -58.334 55.167 -89.001 69.5s-67.334 21.5 -110.001 21.5c-24 0 -47.167 -3.5 -69.5 -10.5s-41.833 -17.333 -58.5 -31s-30 -30.5 -40 -50.5s-15 -43 -15 -69c0 -52 16.333 -90.333 49 -115
c32 -23.333 67 -42 105 -56l52.5 -21c14.333 -6 25.5 -11.333 33.5 -16c13.333 -7.33301 20 -18 20 -32c0 -8.66699 -2 -16 -6 -22s-9.16699 -10.833 -15.5 -14.5s-13.333 -6.33398 -21 -8.00098s-15.167 -2.5 -22.5 -2.5c-12.667 0 -24.667 2.33301 -36 7
s-21.833 10.834 -31.5 18.501s-18.667 16.167 -27 25.5s-15.5 19 -21.5 29l-101 -76c17.333 -24 34.166 -43.5 50.499 -58.5s33.833 -26.833 52.5 -35.5c36 -16 73.333 -24 112 -24c58.667 0 106.334 14.333 143.001 43zM292.003 -210.999
c26.667 19.333 39.999 44.998 39.999 76.998c0 14.667 -2.66699 27.5 -8 38.5s-12.5 20 -21.5 27s-19.667 12.333 -32 16s-25.166 5.5 -38.499 5.5l-12 -2l41 60h-80l-67 -102l30 -31l49 7c8 0 14.833 -1.16699 20.5 -3.5s8.5 -8.16602 8.5 -17.499
c0 -13.333 -3.5 -21.666 -10.5 -24.999s-16.833 -5 -29.5 -5c-16 0 -30.333 1.83301 -43 5.5l-42 12.5l-27 -61c20 -8 40.167 -15.167 60.5 -21.5s41.5 -9.5 63.5 -9.5c39.333 0 72 9.66699 98 29z" />
    <glyph glyph-name="Cacute" unicode="&#xe019;" 
d="M495 29c23.333 16.667 43.832 37.6689 61.499 63.002s33.834 57 48.501 95l-150 39c-7.33301 -16 -15 -30.667 -23 -44s-17 -24.833 -27 -34.5s-21.833 -17.167 -35.5 -22.5s-30.167 -8 -49.5 -8c-49.333 0 -84.666 19.667 -105.999 59
c-23.333 40.667 -35 100.667 -35 180c0 14.667 0.5 31 1.5 49s3.16699 36.167 6.5 54.5s8.16602 36.166 14.499 53.499s14.5 32.833 24.5 46.5s22.5 24.667 37.5 33s32.5 12.5 52.5 12.5c34.667 0 61.334 -10 80.001 -30s33.334 -45.333 44.001 -76l146 35
c-12.667 43.333 -27.5 78.5 -44.5 105.5s-37.167 47.5 -60.5 61.5c-46 28 -99.333 42 -160 42c-56 0 -103.333 -10.667 -142 -32s-69.834 -49.833 -93.501 -85.5s-40.667 -76.5 -51 -122.5s-15.5 -93.333 -15.5 -142c0 -49.333 5.16699 -96.833 15.5 -142.5
s27.166 -86.334 50.499 -122.001s54.333 -64.167 93 -85.5s86 -32 142 -32c70.667 0 129 16.667 175 50zM318.999 750.002l169 168h-187l-108 -168h126z" />
    <glyph glyph-name="cacute" unicode="&#xe01a;" horiz-adv-x="500" 
d="M377 10c16.667 10.667 32.6699 25.001 48.0029 43.001s31.333 41.667 48 71l-113 64l-20 -32.5c-6.66699 -10.333 -14.167 -19.5 -22.5 -27.5s-17.666 -14.5 -27.999 -19.5s-22.5 -7.5 -36.5 -7.5c-33.333 0 -57 12.667 -71 38c-15.333 27.333 -23 67.666 -23 120.999
c0 54 7.66699 94.333 23 121c13.333 25.333 36.333 38 69 38c14 0 25.833 -2.16699 35.5 -6.5s18.167 -10.166 25.5 -17.499s13.666 -16 18.999 -26s10.333 -20.667 15 -32l123 48c-11.333 30.667 -24.333 55.834 -39 75.501s-32.334 35.167 -53.001 46.5
c-39.333 22.667 -81.666 34 -126.999 34c-72.667 0 -130.334 -25.333 -173.001 -76s-64 -119.334 -64 -206.001c0 -38 4.66699 -73.833 14 -107.5s23.666 -63.334 42.999 -89.001s44.166 -46 74.499 -61s66.166 -22.5 107.499 -22.5c50.667 0 92.334 10.333 125.001 31z
M260.003 575.001l169 168h-187l-108 -168h126z" />
    <glyph glyph-name="Ccaron" unicode="&#xe01b;" 
d="M495 29c23.333 16.667 43.832 37.6689 61.499 63.002s33.834 57 48.501 95l-150 39c-7.33301 -16 -15 -30.667 -23 -44s-17 -24.833 -27 -34.5s-21.833 -17.167 -35.5 -22.5s-30.167 -8 -49.5 -8c-49.333 0 -84.666 19.667 -105.999 59
c-23.333 40.667 -35 100.667 -35 180c0 14.667 0.5 31 1.5 49s3.16699 36.167 6.5 54.5s8.16602 36.166 14.499 53.499s14.5 32.833 24.5 46.5s22.5 24.667 37.5 33s32.5 12.5 52.5 12.5c34.667 0 61.334 -10 80.001 -30s33.334 -45.333 44.001 -76l146 35
c-12.667 43.333 -27.5 78.5 -44.5 105.5s-37.167 47.5 -60.5 61.5c-46 28 -99.333 42 -160 42c-56 0 -103.333 -10.667 -142 -32s-69.834 -49.833 -93.501 -85.5s-40.667 -76.5 -51 -122.5s-15.5 -93.333 -15.5 -142c0 -49.333 5.16699 -96.833 15.5 -142.5
s27.166 -86.334 50.499 -122.001s54.333 -64.167 93 -85.5s86 -32 142 -32c70.667 0 129 16.667 175 50zM362.999 750.002l132 168h-141l-58 -75l-58 75h-141l132 -168h134z" />
    <glyph glyph-name="ccaron" unicode="&#xe01c;" horiz-adv-x="500" 
d="M377 10c16.667 10.667 32.6699 25.001 48.0029 43.001s31.333 41.667 48 71l-113 64l-20 -32.5c-6.66699 -10.333 -14.167 -19.5 -22.5 -27.5s-17.666 -14.5 -27.999 -19.5s-22.5 -7.5 -36.5 -7.5c-33.333 0 -57 12.667 -71 38c-15.333 27.333 -23 67.666 -23 120.999
c0 54 7.66699 94.333 23 121c13.333 25.333 36.333 38 69 38c14 0 25.833 -2.16699 35.5 -6.5s18.167 -10.166 25.5 -17.499s13.666 -16 18.999 -26s10.333 -20.667 15 -32l123 48c-11.333 30.667 -24.333 55.834 -39 75.501s-32.334 35.167 -53.001 46.5
c-39.333 22.667 -81.666 34 -126.999 34c-72.667 0 -130.334 -25.333 -173.001 -76s-64 -119.334 -64 -206.001c0 -38 4.66699 -73.833 14 -107.5s23.666 -63.334 42.999 -89.001s44.166 -46 74.499 -61s66.166 -22.5 107.499 -22.5c50.667 0 92.334 10.333 125.001 31z
M304.003 575.001l132 168h-141l-58 -75l-58 75h-141l132 -168h134z" />
    <glyph glyph-name="dmacron" unicode="&#xe01d;" horiz-adv-x="556" 
d="M504 582l58 -0.000976562v77h-58v74h-146v-74h-63v-77h63v-85c-16 13.333 -34.5 24 -55.5 32s-42.167 12 -63.5 12c-62.667 0 -115 -26 -157 -78c-40.667 -51.333 -61 -114.666 -61 -189.999c0 -88.667 19 -159.334 57 -212.001c38.667 -54.667 92.667 -82 162 -82
c26 0 49.833 4.83301 71.5 14.5s42.167 22.834 61.5 39.501l5 -44h126v593zM358 380.999v-240.002c-14 -12.667 -26.833 -22.5 -38.5 -29.5s-27.167 -10.5 -46.5 -10.5c-22 0 -39.833 5 -53.5 15s-24.334 22.833 -32.001 38.5s-13 32.834 -16 51.501s-4.5 36.667 -4.5 54
s1.5 35.333 4.5 54s8.33301 35.834 16 51.501s18.334 28.5 32.001 38.5s31.5 15 53.5 15c15.333 0 30.5 -3.66699 45.5 -11s28.167 -16.333 39.5 -27z" />
    <glyph glyph-name="sfthyphen" unicode="&#xe01e;" horiz-adv-x="333" 
d="M33 195h267v130h-267v-130z" />
    <glyph glyph-name="Amacron" unicode="&#xe01f;" 
d="M452 -11h161l-212 745h-188l-215 -745h160l43 156h211zM309 545l68 -264h-140zM106 782h369v96h-369v-96z" />
    <glyph glyph-name="amacron" unicode="&#xe020;" horiz-adv-x="500" 
d="M320 -11l130.003 -0.00195312v22l3.5 2.5c2.33301 1.66699 2.83301 4.5 1.5 8.5c-2.66699 11.333 -4 26 -4 44v256c0 74.667 -16.167 129.834 -48.5 165.501s-86.5 53.5 -162.5 53.5c-43.333 0 -83.166 -8.83301 -119.499 -26.5s-66.166 -45.167 -89.499 -82.5l98 -74
c14 21.333 29.167 38.166 45.5 50.499s38.166 18.5 65.499 18.5c18 0 33.333 -4.33301 46 -13s19 -22.667 19 -42v-31c-16.667 -1.33301 -31.334 -3.33301 -44.001 -6c-34.667 -6.66699 -68.5 -15 -101.5 -25s-63.833 -26.333 -92.5 -49
c-40 -33.333 -60 -77.666 -60 -132.999c0 -22 3.66699 -42 11 -60s17.666 -33.667 30.999 -47s29.166 -23.666 47.499 -30.999s38.5 -11 60.5 -11c30 0 57.167 3.83301 81.5 11.5s49.166 19.5 74.499 35.5zM305.003 235.998l-0.000976562 -94.001
c-13.333 -10.667 -29.5 -21.5 -48.5 -32.5s-37.5 -16.5 -55.5 -16.5c-15.333 0 -27.166 4.5 -35.499 13.5s-12.5 20.833 -12.5 35.5c0 17.333 5.5 31.5 16.5 42.5s24.333 19.833 40 26.5s32.167 11.834 49.5 15.501zM53.002 606.997h369v96h-369v-96z" />
    <glyph glyph-name="Abreve" unicode="&#xe021;" 
d="M452 -11h161l-212 745h-188l-215 -745h160l43 156h211zM309 545l68 -264h-140zM403 784c17.333 12 30.8301 28.833 40.4971 50.5s16.167 49.5 19.5 83.5h-87c-3.33301 -17.333 -7.66602 -30.166 -12.999 -38.499s-11.666 -14.5 -18.999 -18.5
c-19.333 -8.66699 -40 -13 -62 -13s-42.667 4.33301 -62 13c-7.33301 4 -13.666 10.167 -18.999 18.5s-9.66602 21.166 -12.999 38.499h-87c3.33301 -34 9.66602 -61.833 18.999 -83.5s22.666 -38.5 39.999 -50.5c32.667 -22.667 73.334 -34 122.001 -34
c48 0 88.333 11.333 121 34z" />
    <glyph glyph-name="abreve" unicode="&#xe022;" horiz-adv-x="500" 
d="M320 -11l130.003 -0.00195312v22l3.5 2.5c2.33301 1.66699 2.83301 4.5 1.5 8.5c-2.66699 11.333 -4 26 -4 44v256c0 74.667 -16.167 129.834 -48.5 165.501s-86.5 53.5 -162.5 53.5c-43.333 0 -83.166 -8.83301 -119.499 -26.5s-66.166 -45.167 -89.499 -82.5l98 -74
c14 21.333 29.167 38.166 45.5 50.499s38.166 18.5 65.499 18.5c18 0 33.333 -4.33301 46 -13s19 -22.667 19 -42v-31c-16.667 -1.33301 -31.334 -3.33301 -44.001 -6c-34.667 -6.66699 -68.5 -15 -101.5 -25s-63.833 -26.333 -92.5 -49
c-40 -33.333 -60 -77.666 -60 -132.999c0 -22 3.66699 -42 11 -60s17.666 -33.667 30.999 -47s29.166 -23.666 47.499 -30.999s38.5 -11 60.5 -11c30 0 57.167 3.83301 81.5 11.5s49.166 19.5 74.499 35.5zM305.003 235.998l-0.000976562 -94.001
c-13.333 -10.667 -29.5 -21.5 -48.5 -32.5s-37.5 -16.5 -55.5 -16.5c-15.333 0 -27.166 4.5 -35.499 13.5s-12.5 20.833 -12.5 35.5c0 17.333 5.5 31.5 16.5 42.5s24.333 19.833 40 26.5s32.167 11.834 49.5 15.501zM350.002 608.997c17.333 12 30.8301 28.833 40.4971 50.5
s16.167 49.5 19.5 83.5h-87c-3.33301 -17.333 -7.66602 -30.166 -12.999 -38.499s-11.666 -14.5 -18.999 -18.5c-19.333 -8.66699 -40 -13 -62 -13s-42.667 4.33301 -62 13c-7.33301 4 -13.666 10.167 -18.999 18.5s-9.66602 21.166 -12.999 38.499h-87
c3.33301 -34 9.66602 -61.833 18.999 -83.5s22.666 -38.5 39.999 -50.5c32.667 -22.667 73.334 -34 122.001 -34c48 0 88.333 11.333 121 34z" />
    <glyph glyph-name="Aogonek" unicode="&#xe023;" 
d="M452 -11h161l-212 745h-188l-215 -745h160l43 156h211zM309 545l68 -264h-140zM535 -209c13.333 6 26.333 12.499 39 19.499s26.667 16.167 42 27.5l-30 55l-21 -14c-8 -5.33301 -16.5 -10.333 -25.5 -15s-18 -8.66699 -27 -12s-17.5 -5 -25.5 -5
c-12 0 -22 2.83301 -30 8.5s-12 15.167 -12 28.5c0 16 5.16699 30.167 15.5 42.5s22.833 23.333 37.5 33s30 18 46 25s30 12.5 42 16.5v33c-51.333 -8 -93 -17.167 -125 -27.5s-56.667 -22.5 -74 -36.5c-34.667 -27.333 -52 -60 -52 -98
c0 -17.333 3.16699 -32.166 9.5 -44.499s15 -22.5 26 -30.5s23.5 -14 37.5 -18s28.667 -6 44 -6c28 0 55.667 6 83 18z" />
    <glyph glyph-name="aogonek" unicode="&#xe024;" horiz-adv-x="500" 
d="M320 -11l130.003 -0.00195312v22l3.5 2.5c2.33301 1.66699 2.83301 4.5 1.5 8.5c-2.66699 11.333 -4 26 -4 44v256c0 74.667 -16.167 129.834 -48.5 165.501s-86.5 53.5 -162.5 53.5c-43.333 0 -83.166 -8.83301 -119.499 -26.5s-66.166 -45.167 -89.499 -82.5l98 -74
c14 21.333 29.167 38.166 45.5 50.499s38.166 18.5 65.499 18.5c18 0 33.333 -4.33301 46 -13s19 -22.667 19 -42v-31c-16.667 -1.33301 -31.334 -3.33301 -44.001 -6c-34.667 -6.66699 -68.5 -15 -101.5 -25s-63.833 -26.333 -92.5 -49
c-40 -33.333 -60 -77.666 -60 -132.999c0 -22 3.66699 -42 11 -60s17.666 -33.667 30.999 -47s29.166 -23.666 47.499 -30.999s38.5 -11 60.5 -11c30 0 57.167 3.83301 81.5 11.5s49.166 19.5 74.499 35.5zM305.003 235.998l-0.000976562 -94.001
c-13.333 -10.667 -29.5 -21.5 -48.5 -32.5s-37.5 -16.5 -55.5 -16.5c-15.333 0 -27.166 4.5 -35.499 13.5s-12.5 20.833 -12.5 35.5c0 17.333 5.5 31.5 16.5 42.5s24.333 19.833 40 26.5s32.167 11.834 49.5 15.501zM393.002 -209.003c13.333 6 26.333 12.499 39 19.499
s26.667 16.167 42 27.5l-30 55l-21 -14c-8 -5.33301 -16.5 -10.333 -25.5 -15s-18 -8.66699 -27 -12s-17.5 -5 -25.5 -5c-12 0 -22 2.83301 -30 8.5s-12 15.167 -12 28.5c0 16 5.16699 30.167 15.5 42.5s22.833 23.333 37.5 33s30 18 46 25s30 12.5 42 16.5v33
c-51.333 -8 -93 -17.167 -125 -27.5s-56.667 -22.5 -74 -36.5c-34.667 -27.333 -52 -60 -52 -98c0 -17.333 3.16699 -32.166 9.5 -44.499s15 -22.5 26 -30.5s23.5 -14 37.5 -18s28.667 -6 44 -6c28 0 55.667 6 83 18z" />
    <glyph glyph-name="Dhacek" unicode="&#xe025;" horiz-adv-x="667" 
d="M566 86c30 32 52 70.8301 66 116.497s21 98.167 21 157.5c0 56.667 -6.66699 107.834 -20 153.501s-34 84.834 -62 117.501s-63.5 57.834 -106.5 75.501s-94.167 26.5 -153.5 26.5h-244v-744h246c110.667 0 195 32.333 253 97zM447 536.997
c14.667 -19.333 25.8359 -43.5 33.5029 -72.5s11.5 -63.167 11.5 -102.5c0 -32 -2.66699 -62.167 -8 -90.5s-14.833 -53.333 -28.5 -75s-32.334 -38.667 -56.001 -51s-53.834 -18.5 -90.501 -18.5h-82v468h84c61.333 0 106.666 -19.333 135.999 -58zM381.002 749.997
l132 168h-141l-58 -75l-58 75h-141l132 -168h134z" />
    <glyph glyph-name="dhacek" unicode="&#xe026;" horiz-adv-x="556" 
d="M377 -11l127.001 -0.000976562v744h-147v-236c-16 13.333 -34.5 24 -55.5 32s-41.833 12 -62.5 12c-62.667 0 -115 -26 -157 -78c-40.667 -51.333 -61 -114.666 -61 -189.999c0 -88.667 19 -159.334 57 -212.001c38.667 -54.667 92.667 -82 162 -82
c26 0 49.667 4.83301 71 14.5s41.666 22.834 60.999 39.501zM357.001 380.999v-240.001c-13.333 -12 -26 -21.667 -38 -29s-27.333 -11 -46 -11c-22 0 -39.833 5 -53.5 15s-24.5 22.667 -32.5 38s-13.333 32.5 -16 51.5s-4 37.167 -4 54.5s1.33301 35.333 4 54
s8 35.834 16 51.501s18.833 28.5 32.5 38.5s31.5 15 53.5 15c15.333 0 30.333 -3.66699 45 -11s27.667 -16.333 39 -27zM598.001 418.998l68 159v155h-160v-164h56l-51 -150h87z" />
    <glyph glyph-name="Dbar" unicode="&#xe027;" horiz-adv-x="667" 
d="M565 86c57.333 63.333 86 154.667 86 274c0 56.667 -6.66699 108 -20 154s-33.833 85.167 -61.5 117.5s-63 57.333 -106 75s-94.167 26.5 -153.5 26.5l-243 1v-289h-67v-146h67v-310h245c110 0 194.333 32.333 253 97zM445 537.001c30 -39.333 45 -97.667 45 -175
c0 -32 -2.66699 -62.167 -8 -90.5s-14.666 -53.333 -27.999 -75s-31.833 -38.667 -55.5 -51s-53.834 -18.5 -90.501 -18.5h-82v172h150v146h-150v150h84c60.667 0 105.667 -19.333 135 -58z" />
    <glyph glyph-name="Emacron" unicode="&#xe028;" 
d="M73 -11h511v138h-352v181l248 1v136h-248v150h340v138h-499v-744zM128 782h369v96h-369v-96z" />
    <glyph glyph-name="emacron" unicode="&#xe029;" horiz-adv-x="500" 
d="M376 5c18.667 8.66699 36.166 20.499 52.499 35.499s32.5 34.5 48.5 58.5l-108 68c-14.667 -19.333 -30.5 -35.166 -47.5 -47.499s-38.167 -18.5 -63.5 -18.5c-20 0 -36 3.66699 -48 11s-21.5 17 -28.5 29s-12 25.667 -15 41s-5.5 31 -7.5 47h314v70
c0 35.333 -6.16699 67.333 -18.5 96s-28.5 54.334 -48.5 77.001c-41.333 46 -93.666 69 -156.999 69c-41.333 0 -76.833 -7.66699 -106.5 -23s-54.167 -35.833 -73.5 -61.5s-33.5 -55.5 -42.5 -89.5s-13.5 -69.667 -13.5 -107c0 -36.667 4.5 -71.834 13.5 -105.501
s22.833 -63.5 41.5 -89.5s42.667 -46.833 72 -62.5s64.333 -23.5 105 -23.5c52 0 95.667 8.66699 131 26zM310.999 400.999c14.667 -16.667 23 -38.666 25 -65.999h-176c2 12.667 4.83301 24.667 8.5 36s8.83398 21.166 15.501 29.499s15.167 14.833 25.5 19.5
s23.166 7 38.499 7c26.667 0 47.667 -8.66699 63 -26zM52.999 607h369v96h-369v-96z" />
    <glyph glyph-name="Edot" unicode="&#xe02a;" 
d="M73 -11h511v138h-352v181l248 1v136h-248v150h340v138h-499v-744zM245 760h142v138h-142v-138z" />
    <glyph glyph-name="edot" unicode="&#xe02b;" horiz-adv-x="500" 
d="M376 5c18.667 8.66699 36.166 20.499 52.499 35.499s32.5 34.5 48.5 58.5l-108 68c-14.667 -19.333 -30.5 -35.166 -47.5 -47.499s-38.167 -18.5 -63.5 -18.5c-20 0 -36 3.66699 -48 11s-21.5 17 -28.5 29s-12 25.667 -15 41s-5.5 31 -7.5 47h314v70
c0 35.333 -6.16699 67.333 -18.5 96s-28.5 54.334 -48.5 77.001c-41.333 46 -93.666 69 -156.999 69c-41.333 0 -76.833 -7.66699 -106.5 -23s-54.167 -35.833 -73.5 -61.5s-33.5 -55.5 -42.5 -89.5s-13.5 -69.667 -13.5 -107c0 -36.667 4.5 -71.834 13.5 -105.501
s22.833 -63.5 41.5 -89.5s42.667 -46.833 72 -62.5s64.333 -23.5 105 -23.5c52 0 95.667 8.66699 131 26zM310.999 400.999c14.667 -16.667 23 -38.666 25 -65.999h-176c2 12.667 4.83301 24.667 8.5 36s8.83398 21.166 15.501 29.499s15.167 14.833 25.5 19.5
s23.166 7 38.499 7c26.667 0 47.667 -8.66699 63 -26zM169.999 585h142v138h-142v-138z" />
    <glyph glyph-name="Eogonek" unicode="&#xe02c;" 
d="M73 -11h511v138h-352v181l248 1v136h-248v150h340v138h-499v-744zM396 -209c13.333 6 26.333 12.499 39 19.499s26.667 16.167 42 27.5l-30 55l-21 -14c-8 -5.33301 -16.5 -10.333 -25.5 -15s-18 -8.66699 -27 -12s-17.5 -5 -25.5 -5c-12 0 -22 2.83301 -30 8.5
s-12 15.167 -12 28.5c0 16 5.16699 30.167 15.5 42.5s22.833 23.333 37.5 33s30 18 46 25s30 12.5 42 16.5v33c-51.333 -8 -93 -17.167 -125 -27.5s-56.667 -22.5 -74 -36.5c-34.667 -27.333 -52 -60 -52 -98c0 -17.333 3.16699 -32.166 9.5 -44.499s15 -22.5 26 -30.5
s23.5 -14 37.5 -18s28.667 -6 44 -6c28 0 55.667 6 83 18z" />
    <glyph glyph-name="eogonek" unicode="&#xe02d;" horiz-adv-x="500" 
d="M376 5c18.667 8.66699 36.166 20.499 52.499 35.499s32.5 34.5 48.5 58.5l-108 68c-14.667 -19.333 -30.5 -35.166 -47.5 -47.499s-38.167 -18.5 -63.5 -18.5c-20 0 -36 3.66699 -48 11s-21.5 17 -28.5 29s-12 25.667 -15 41s-5.5 31 -7.5 47h314v70
c0 35.333 -6.16699 67.333 -18.5 96s-28.5 54.334 -48.5 77.001c-41.333 46 -93.666 69 -156.999 69c-41.333 0 -76.833 -7.66699 -106.5 -23s-54.167 -35.833 -73.5 -61.5s-33.5 -55.5 -42.5 -89.5s-13.5 -69.667 -13.5 -107c0 -36.667 4.5 -71.834 13.5 -105.501
s22.833 -63.5 41.5 -89.5s42.667 -46.833 72 -62.5s64.333 -23.5 105 -23.5c52 0 95.667 8.66699 131 26zM310.999 400.999c14.667 -16.667 23 -38.666 25 -65.999h-176c2 12.667 4.83301 24.667 8.5 36s8.83398 21.166 15.501 29.499s15.167 14.833 25.5 19.5
s23.166 7 38.499 7c26.667 0 47.667 -8.66699 63 -26zM306.999 -209c13.333 6 26.333 12.499 39 19.499s26.667 16.167 42 27.5l-30 55l-21 -14c-8 -5.33301 -16.5 -10.333 -25.5 -15s-18 -8.66699 -27 -12s-17.5 -5 -25.5 -5c-12 0 -22 2.83301 -30 8.5
s-12 15.167 -12 28.5c0 16 5.16699 30.167 15.5 42.5s22.833 23.333 37.5 33s30 18 46 25s30 12.5 42 16.5v33c-51.333 -8 -93 -17.167 -125 -27.5s-56.667 -22.5 -74 -36.5c-34.667 -27.333 -52 -60 -52 -98c0 -17.333 3.16699 -32.166 9.5 -44.499s15 -22.5 26 -30.5
s23.5 -14 37.5 -18s28.667 -6 44 -6c28 0 55.667 6 83 18z" />
    <glyph glyph-name="Ehacek" unicode="&#xe02e;" 
d="M73 -11h511v138h-352v181l248 1v136h-248v150h340v138h-499v-744zM381 750l132 168h-141l-58 -75l-58 75h-141l132 -168h134z" />
    <glyph glyph-name="ehacek" unicode="&#xe02f;" horiz-adv-x="500" 
d="M376 5c18.667 8.66699 36.166 20.499 52.499 35.499s32.5 34.5 48.5 58.5l-108 68c-14.667 -19.333 -30.5 -35.166 -47.5 -47.499s-38.167 -18.5 -63.5 -18.5c-20 0 -36 3.66699 -48 11s-21.5 17 -28.5 29s-12 25.667 -15 41s-5.5 31 -7.5 47h314v70
c0 35.333 -6.16699 67.333 -18.5 96s-28.5 54.334 -48.5 77.001c-41.333 46 -93.666 69 -156.999 69c-41.333 0 -76.833 -7.66699 -106.5 -23s-54.167 -35.833 -73.5 -61.5s-33.5 -55.5 -42.5 -89.5s-13.5 -69.667 -13.5 -107c0 -36.667 4.5 -71.834 13.5 -105.501
s22.833 -63.5 41.5 -89.5s42.667 -46.833 72 -62.5s64.333 -23.5 105 -23.5c52 0 95.667 8.66699 131 26zM310.999 400.999c14.667 -16.667 23 -38.666 25 -65.999h-176c2 12.667 4.83301 24.667 8.5 36s8.83398 21.166 15.501 29.499s15.167 14.833 25.5 19.5
s23.166 7 38.499 7c26.667 0 47.667 -8.66699 63 -26zM305.999 575l132 168h-141l-58 -75l-58 75h-141l132 -168h134z" />
    <glyph glyph-name="Gcedilla" unicode="&#xe030;" horiz-adv-x="667" 
d="M494 -11l122.998 0.000976562v387h-293v-138h137c-3.33301 -32.667 -16 -60 -38 -82c-25.333 -26 -58.666 -39 -99.999 -39c-30 0 -54.5 8 -73.5 24s-33.667 36 -44 60s-17.333 49.833 -21 77.5s-5.5 52.834 -5.5 75.501c0 22 1.5 47.5 4.5 76.5s9.5 56.5 19.5 82.5
s24.167 47.833 42.5 65.5s42.833 26.5 73.5 26.5c38.667 0 67.834 -8.83301 87.501 -26.5s37.167 -43.5 52.5 -77.5l148 39c-13.333 40 -29 72.667 -47 98s-39.333 45.666 -64 60.999c-48.667 29.333 -101 44 -157 44c-59.333 0 -109.5 -10.833 -150.5 -32.5
s-74 -50.667 -99 -87s-43 -78.333 -54 -126s-16.5 -97.834 -16.5 -150.501c0 -48 5.5 -94.167 16.5 -138.5s28.5 -83.5 52.5 -117.5s55 -61.167 93 -81.5s84 -30.5 138 -30.5c36 0 67.667 5 95 15s54 27.667 80 53v-58zM392.998 -210.999
c26.667 19.333 39.999 44.998 39.999 76.998c0 14.667 -2.66699 27.5 -8 38.5s-12.5 20 -21.5 27s-19.667 12.333 -32 16s-25.166 5.5 -38.499 5.5l-12 -2l41 60h-80l-67 -102l30 -31l49 7c8 0 14.833 -1.16699 20.5 -3.5s8.5 -8.16602 8.5 -17.499
c0 -13.333 -3.5 -21.666 -10.5 -24.999s-16.833 -5 -29.5 -5c-16 0 -30.333 1.83301 -43 5.5l-42 12.5l-27 -61c20 -8 40.167 -15.167 60.5 -21.5s41.5 -9.5 63.5 -9.5c39.333 0 72 9.66699 98 29z" />
    <glyph glyph-name="gcedilla" unicode="&#xe031;" horiz-adv-x="500" 
d="M74 35c-23.333 -7.33301 -41.332 -19.501 -53.999 -36.501s-19 -38.167 -19 -63.5c0 -30 8.66699 -54 26 -72s38.5 -31.667 63.5 -41s51.667 -15.5 80 -18.5s53.166 -4.5 74.499 -4.5c65.333 0 122.666 14.333 171.999 43c52.667 30.667 79 69 79 115
c0 30 -5 54.5 -15 73.5s-23.5 34 -40.5 45s-36.333 18.833 -58 23.5s-44.167 8.16699 -67.5 10.5s-46.666 4 -69.999 5s-45 3.5 -65 7.5c-10.667 2 -17.667 4.83301 -21 8.5s-5 7.83398 -5 12.501s3.5 8.5 10.5 11.5s14.833 5 23.5 6s17 1.66699 25 2s13.333 0.5 16 0.5
c30 0 58.333 3.16699 85 9.5s49.667 16.666 69 30.999s34.666 33 45.999 56s17 51.167 17 84.5c0 31.333 -7 59.666 -21 84.999c9.33301 4 21.333 6 36 6h37v106c-25.333 0 -49.833 -2 -73.5 -6s-44.5 -16 -62.5 -36c-37.333 28 -78.666 42 -123.999 42
c-28 0 -55 -4.16699 -81 -12.5s-49 -20.666 -69 -36.999s-36 -36.166 -48 -59.499s-18 -50 -18 -80c0 -28 5.83301 -53.667 17.5 -77s28.167 -43.666 49.5 -60.999c-18 -10.667 -34.333 -23.834 -49 -39.501s-22 -35.167 -22 -58.5c0 -33.333 18.667 -60.333 56 -81z
M290.001 404.999c14 -14 20.999 -32 20.999 -54c0 -19.333 -7.16699 -36.5 -21.5 -51.5s-31.5 -22.5 -51.5 -22.5c-21.333 0 -40 6.66699 -56 20s-24 31.333 -24 54c0 23.333 7.33301 41.833 22 55.5s33.667 20.5 57 20.5c20.667 0 38.334 -7.33301 53.001 -22zM319 -15.001
c16 -5.33301 26.835 -11.001 32.502 -17.001s8.5 -12 8.5 -18c0 -9.33301 -3.83301 -17 -11.5 -23s-16.834 -10.667 -27.501 -14s-21.5 -5.83301 -32.5 -7.5s-19.5 -2.5 -25.5 -2.5c-25.333 0 -46.333 1.16699 -63 3.5s-29.667 5.5 -39 9.5
c-16 8.66699 -24 20.334 -24 35.001c0 13.333 7 25 21 35c9.33301 7.33301 26.666 12 51.999 14c24 -1.33301 45 -3.33301 63 -6s33.333 -5.66699 46 -9zM273.002 574.998l169 168h-187l-108 -168h126z" />
    <glyph glyph-name="Imacron" unicode="&#xe032;" horiz-adv-x="333" 
d="M86 -11h160v744h-160v-744zM75 782h369v96h-369v-96z" />
    <glyph glyph-name="imacron" unicode="&#xe033;" horiz-adv-x="278" 
d="M66 -11h146v542h-146v-542zM55 607h369v96h-369v-96z" />
    <glyph glyph-name="Iogonek" unicode="&#xe034;" horiz-adv-x="333" 
d="M86 -11h160v744h-160v-744zM275 -209c13.333 6 26.333 12.499 39 19.499s26.667 16.167 42 27.5l-30 55l-21 -14c-8 -5.33301 -16.5 -10.333 -25.5 -15s-18 -8.66699 -27 -12s-17.5 -5 -25.5 -5c-12 0 -22 2.83301 -30 8.5s-12 15.167 -12 28.5
c0 16 5.16699 30.167 15.5 42.5s22.833 23.333 37.5 33s30 18 46 25s30 12.5 42 16.5v33c-51.333 -8 -93 -17.167 -125 -27.5s-56.667 -22.5 -74 -36.5c-34.667 -27.333 -52 -60 -52 -98c0 -17.333 3.16699 -32.166 9.5 -44.499s15 -22.5 26 -30.5s23.5 -14 37.5 -18
s28.667 -6 44 -6c28 0 55.667 6 83 18z" />
    <glyph glyph-name="iogonek" unicode="&#xe035;" horiz-adv-x="278" 
d="M66 605h144v138h-144v-138zM66 -11h146v542h-146v-542zM255 -209c13.333 6 26.333 12.499 39 19.499s26.667 16.167 42 27.5l-30 55l-21 -14c-8 -5.33301 -16.5 -10.333 -25.5 -15s-18 -8.66699 -27 -12s-17.5 -5 -25.5 -5c-12 0 -22 2.83301 -30 8.5
s-12 15.167 -12 28.5c0 16 5.16699 30.167 15.5 42.5s22.833 23.333 37.5 33s30 18 46 25s30 12.5 42 16.5v33c-51.333 -8 -93 -17.167 -125 -27.5s-56.667 -22.5 -74 -36.5c-34.667 -27.333 -52 -60 -52 -98c0 -17.333 3.16699 -32.166 9.5 -44.499s15 -22.5 26 -30.5
s23.5 -14 37.5 -18s28.667 -6 44 -6c28 0 55.667 6 83 18z" />
    <glyph glyph-name="Kcedilla" unicode="&#xe036;" horiz-adv-x="667" 
d="M489 -11h179l-244 461l214 283h-185l-226 -298v298h-160v-744h160v223l88 111zM274 -211c26.667 19.333 39.999 44.998 39.999 76.998c0 14.667 -2.66699 27.5 -8 38.5s-12.5 20 -21.5 27s-19.667 12.333 -32 16s-25.166 5.5 -38.499 5.5l-12 -2l41 60h-80l-67 -102
l30 -31l49 7c8 0 14.833 -1.16699 20.5 -3.5s8.5 -8.16602 8.5 -17.499c0 -13.333 -3.5 -21.666 -10.5 -24.999s-16.833 -5 -29.5 -5c-16 0 -30.333 1.83301 -43 5.5l-42 12.5l-27 -61c20 -8 40.167 -15.167 60.5 -21.5s41.5 -9.5 63.5 -9.5c39.333 0 72 9.66699 98 29z" />
    <glyph glyph-name="kcedilla" unicode="&#xe037;" horiz-adv-x="500" 
d="M359 -11h157l-169 336l163 206h-170l-141 -184v386h-146v-744h146v167l49 57zM260 -211c26.667 19.333 39.999 44.998 39.999 76.998c0 14.667 -2.66699 27.5 -8 38.5s-12.5 20 -21.5 27s-19.667 12.333 -32 16s-25.166 5.5 -38.499 5.5l-12 -2l41 60h-80l-67 -102
l30 -31l49 7c8 0 14.833 -1.16699 20.5 -3.5s8.5 -8.16602 8.5 -17.499c0 -13.333 -3.5 -21.666 -10.5 -24.999s-16.833 -5 -29.5 -5c-16 0 -30.333 1.83301 -43 5.5l-42 12.5l-27 -61c20 -8 40.167 -15.167 60.5 -21.5s41.5 -9.5 63.5 -9.5c39.333 0 72 9.66699 98 29z" />
    <glyph glyph-name="Lacute" unicode="&#xe038;" horiz-adv-x="556" 
d="M67 -11h473v138h-314v606h-159v-744zM197 750l169 168h-187l-108 -168h126z" />
    <glyph glyph-name="lacute" unicode="&#xe039;" horiz-adv-x="278" 
d="M66 -11h146v744h-146v-744zM172 737l169 168h-187l-108 -168h126z" />
    <glyph glyph-name="Lcedilla" unicode="&#xe03a;" horiz-adv-x="556" 
d="M67 -11h473v138h-314v606h-159v-744zM384 -211c26.667 19.333 39.999 44.998 39.999 76.998c0 14.667 -2.66699 27.5 -8 38.5s-12.5 20 -21.5 27s-19.667 12.333 -32 16s-25.166 5.5 -38.499 5.5l-12 -2l41 60h-80l-67 -102l30 -31l49 7c8 0 14.833 -1.16699 20.5 -3.5
s8.5 -8.16602 8.5 -17.499c0 -13.333 -3.5 -21.666 -10.5 -24.999s-16.833 -5 -29.5 -5c-16 0 -30.333 1.83301 -43 5.5l-42 12.5l-27 -61c20 -8 40.167 -15.167 60.5 -21.5s41.5 -9.5 63.5 -9.5c39.333 0 72 9.66699 98 29z" />
    <glyph glyph-name="lcedilla" unicode="&#xe03b;" horiz-adv-x="278" 
d="M66 -11h146v744h-146v-744zM273 -211c26.667 19.333 39.999 44.998 39.999 76.998c0 14.667 -2.66699 27.5 -8 38.5s-12.5 20 -21.5 27s-19.667 12.333 -32 16s-25.166 5.5 -38.499 5.5l-12 -2l41 60h-80l-67 -102l30 -31l49 7c8 0 14.833 -1.16699 20.5 -3.5
s8.5 -8.16602 8.5 -17.499c0 -13.333 -3.5 -21.666 -10.5 -24.999s-16.833 -5 -29.5 -5c-16 0 -30.333 1.83301 -43 5.5l-42 12.5l-27 -61c20 -8 40.167 -15.167 60.5 -21.5s41.5 -9.5 63.5 -9.5c39.333 0 72 9.66699 98 29z" />
    <glyph glyph-name="Lhacek" unicode="&#xe03c;" horiz-adv-x="556" 
d="M67 -11h473v138h-314v606h-159v-744zM411 419l68 159v155h-160v-164h56l-51 -150h87z" />
    <glyph glyph-name="lhacek" unicode="&#xe03d;" horiz-adv-x="278" 
d="M66 -11h146v744h-146v-744zM325 419l68 159v155h-160v-164h56l-51 -150h87z" />
    <glyph glyph-name="Lmiddledot" unicode="&#xe03e;" horiz-adv-x="556" 
d="M67 -11h473v138h-314v606h-159v-744zM298 272h142v138h-142v-138z" />
    <glyph glyph-name="lmiddledot" unicode="&#xe03f;" horiz-adv-x="278" 
d="M66 -11h146v744h-146v-744zM202 272h142v138h-142v-138z" />
    <glyph glyph-name="Nacute" unicode="&#xe040;" horiz-adv-x="722" 
d="M503 -11h149v744h-152v-466l-269 466h-161v-744h152v488zM373 750l169 168h-187l-108 -168h126z" />
    <glyph glyph-name="nacute" unicode="&#xe041;" horiz-adv-x="556" 
d="M356 -11l146.001 -0.00292969v365c0 26 -3.16699 50.5 -9.5 73.5s-16 42.833 -29 59.5s-29.667 29.834 -50 39.501s-44.833 14.5 -73.5 14.5c-28 0 -54.667 -5.16699 -80 -15.5s-49 -23.5 -71 -39.5v45h-136v-542h146v382c14 14.667 29.833 26.334 47.5 35.001
s36.834 13 57.501 13c19.333 0 32.666 -6 39.999 -18c3.33301 -7.33301 6.16602 -16.666 8.49902 -27.999s3.5 -25.333 3.5 -42v-342zM286.001 574.997l169 168h-187l-108 -168h126z" />
    <glyph glyph-name="Ncedilla" unicode="&#xe042;" horiz-adv-x="722" 
d="M503 -11h149v744h-152v-466l-269 466h-161v-744h152v488zM277 -211c26.667 19.333 39.999 44.998 39.999 76.998c0 14.667 -2.66699 27.5 -8 38.5s-12.5 20 -21.5 27s-19.667 12.333 -32 16s-25.166 5.5 -38.499 5.5l-12 -2l41 60h-80l-67 -102l30 -31l49 7
c8 0 14.833 -1.16699 20.5 -3.5s8.5 -8.16602 8.5 -17.499c0 -13.333 -3.5 -21.666 -10.5 -24.999s-16.833 -5 -29.5 -5c-16 0 -30.333 1.83301 -43 5.5l-42 12.5l-27 -61c20 -8 40.167 -15.167 60.5 -21.5s41.5 -9.5 63.5 -9.5c39.333 0 72 9.66699 98 29z" />
    <glyph glyph-name="ncedilla" unicode="&#xe043;" horiz-adv-x="556" 
d="M356 -11l146.001 -0.00292969v365c0 26 -3.16699 50.5 -9.5 73.5s-16 42.833 -29 59.5s-29.667 29.834 -50 39.501s-44.833 14.5 -73.5 14.5c-28 0 -54.667 -5.16699 -80 -15.5s-49 -23.5 -71 -39.5v45h-136v-542h146v382c14 14.667 29.833 26.334 47.5 35.001
s36.834 13 57.501 13c19.333 0 32.666 -6 39.999 -18c3.33301 -7.33301 6.16602 -16.666 8.49902 -27.999s3.5 -25.333 3.5 -42v-342zM260.001 -211.003c26.667 19.333 39.999 44.998 39.999 76.998c0 14.667 -2.66699 27.5 -8 38.5s-12.5 20 -21.5 27
s-19.667 12.333 -32 16s-25.166 5.5 -38.499 5.5l-12 -2l41 60h-80l-67 -102l30 -31l49 7c8 0 14.833 -1.16699 20.5 -3.5s8.5 -8.16602 8.5 -17.499c0 -13.333 -3.5 -21.666 -10.5 -24.999s-16.833 -5 -29.5 -5c-16 0 -30.333 1.83301 -43 5.5l-42 12.5l-27 -61
c20 -8 40.167 -15.167 60.5 -21.5s41.5 -9.5 63.5 -9.5c39.333 0 72 9.66699 98 29z" />
    <glyph glyph-name="Nhacek" unicode="&#xe044;" horiz-adv-x="722" 
d="M503 -11h149v744h-152v-466l-269 466h-161v-744h152v488zM417 750l132 168h-141l-58 -75l-58 75h-141l132 -168h134z" />
    <glyph glyph-name="nhacek" unicode="&#xe045;" horiz-adv-x="556" 
d="M356 -11l146.001 -0.00292969v365c0 26 -3.16699 50.5 -9.5 73.5s-16 42.833 -29 59.5s-29.667 29.834 -50 39.501s-44.833 14.5 -73.5 14.5c-28 0 -54.667 -5.16699 -80 -15.5s-49 -23.5 -71 -39.5v45h-136v-542h146v382c14 14.667 29.833 26.334 47.5 35.001
s36.834 13 57.501 13c19.333 0 32.666 -6 39.999 -18c3.33301 -7.33301 6.16602 -16.666 8.49902 -27.999s3.5 -25.333 3.5 -42v-342zM330.001 574.997l132 168h-141l-58 -75l-58 75h-141l132 -168h134z" />
    <glyph glyph-name="Omacron" unicode="&#xe046;" horiz-adv-x="667" 
d="M568 81c53.333 66 80 159.332 80 279.999c0 51.333 -5.5 100.166 -16.5 146.499s-29 87 -54 122s-57.333 62.667 -97 83s-88.5 30.5 -146.5 30.5s-107 -10.167 -147 -30.5s-72.5 -48 -97.5 -83s-43 -75.667 -54 -122s-16.5 -95.166 -16.5 -146.499
s5.5 -100.166 16.5 -146.499s29 -87 54 -122s57.5 -62.667 97.5 -83s89 -30.5 147 -30.5c102 0 180 34 234 102zM450 544.999c25.333 -41.333 38 -102.666 38 -183.999s-12.667 -142.666 -38 -183.999c-24 -40 -62.667 -60 -116 -60c-54 0 -93 20 -117 60
c-25.333 41.333 -38 102.666 -38 183.999s12.667 142.666 38 183.999c24 40 63 60 117 60c53.333 0 92 -20 116 -60zM138 781.999h369v96h-369v-96z" />
    <glyph glyph-name="omacron" unicode="&#xe047;" horiz-adv-x="500" 
d="M424 57c42.667 51.333 64 119 64 203s-21.333 151.667 -64 203c-43.333 52 -101.333 78 -174 78s-130.334 -26 -173.001 -78c-42.667 -51.333 -64 -119 -64 -203s21.333 -151.667 64 -203c42.667 -52 100.334 -78 173.001 -78s130.667 26 174 78zM319 381
c15.333 -27.333 22.999 -67.665 22.999 -120.998c0 -15.333 -0.833008 -32.333 -2.5 -51s-5.66699 -36 -12 -52s-15.666 -29.333 -27.999 -40s-28.833 -16 -49.5 -16s-37 5.5 -49 16.5s-21.167 24.5 -27.5 40.5s-10.333 33.167 -12 51.5s-2.5 35.166 -2.5 50.499
s0.833008 32.166 2.5 50.499s5.66699 35.5 12 51.5s15.5 29.5 27.5 40.5s28.333 16.5 49 16.5c32 0 55 -12.667 69 -38zM50.999 607.001h369v96h-369v-96z" />
    <glyph glyph-name="Odoubleacute" unicode="&#xe048;" horiz-adv-x="667" 
d="M568 81c53.333 66 80 159.332 80 279.999c0 51.333 -5.5 100.166 -16.5 146.499s-29 87 -54 122s-57.333 62.667 -97 83s-88.5 30.5 -146.5 30.5s-107 -10.167 -147 -30.5s-72.5 -48 -97.5 -83s-43 -75.667 -54 -122s-16.5 -95.166 -16.5 -146.499
s5.5 -100.166 16.5 -146.499s29 -87 54 -122s57.5 -62.667 97.5 -83s89 -30.5 147 -30.5c102 0 180 34 234 102zM450 544.999c25.333 -41.333 38 -102.666 38 -183.999s-12.667 -142.666 -38 -183.999c-24 -40 -62.667 -60 -116 -60c-54 0 -93 20 -117 60
c-25.333 41.333 -38 102.666 -38 183.999s12.667 142.666 38 183.999c24 40 63 60 117 60c53.333 0 92 -20 116 -60zM419 749.999l151 168h-185l-87 -168h121zM225 749.999l151 168h-185l-87 -168h121z" />
    <glyph glyph-name="odoubleacute" unicode="&#xe049;" horiz-adv-x="500" 
d="M424 57c42.667 51.333 64 119 64 203s-21.333 151.667 -64 203c-43.333 52 -101.333 78 -174 78s-130.334 -26 -173.001 -78c-42.667 -51.333 -64 -119 -64 -203s21.333 -151.667 64 -203c42.667 -52 100.334 -78 173.001 -78s130.667 26 174 78zM319 381
c15.333 -27.333 22.999 -67.665 22.999 -120.998c0 -15.333 -0.833008 -32.333 -2.5 -51s-5.66699 -36 -12 -52s-15.666 -29.333 -27.999 -40s-28.833 -16 -49.5 -16s-37 5.5 -49 16.5s-21.167 24.5 -27.5 40.5s-10.333 33.167 -12 51.5s-2.5 35.166 -2.5 50.499
s0.833008 32.166 2.5 50.499s5.66699 35.5 12 51.5s15.5 29.5 27.5 40.5s28.333 16.5 49 16.5c32 0 55 -12.667 69 -38zM331.999 575.001l151 168h-185l-87 -168h121zM137.999 575.001l151 168h-185l-87 -168h121z" />
    <glyph glyph-name="Racute" unicode="&#xe04a;" horiz-adv-x="667" 
d="M464 -11h178.001l-162 327c41.333 14.667 73.166 38.167 95.499 70.5s33.5 70.5 33.5 114.5c0 38 -5.83301 71.5 -17.5 100.5s-28 53.167 -49 72.5s-46.5 34 -76.5 44s-63.333 15 -100 15h-299v-744h159v294h102zM421.001 576
c8.66699 -7.33301 15.332 -17.001 19.999 -29.001s7 -26.667 7 -44c0 -19.333 -3.66699 -34.666 -11 -45.999s-17 -20 -29 -26s-25.667 -9.83301 -41 -11.5s-30.666 -2.5 -45.999 -2.5h-95v182h111c38.667 0 66.667 -7.66699 84 -23zM317.999 749.999l169 168h-187
l-108 -168h126z" />
    <glyph glyph-name="racute" unicode="&#xe04b;" horiz-adv-x="333" 
d="M299 389l29.999 -2v154c-32 0 -60.167 -5.33301 -84.5 -16s-45.5 -29.334 -63.5 -56.001v62h-136v-542h146v327c6.66699 14.667 20.334 30.334 41.001 47.001c22.667 18 45 26.667 67 26zM176.999 575l169 168h-187l-108 -168h126z" />
    <glyph glyph-name="Rcedilla" unicode="&#xe04c;" horiz-adv-x="667" 
d="M464 -11h178.001l-162 327c41.333 14.667 73.166 38.167 95.499 70.5s33.5 70.5 33.5 114.5c0 38 -5.83301 71.5 -17.5 100.5s-28 53.167 -49 72.5s-46.5 34 -76.5 44s-63.333 15 -100 15h-299v-744h159v294h102zM421.001 576
c8.66699 -7.33301 15.332 -17.001 19.999 -29.001s7 -26.667 7 -44c0 -19.333 -3.66699 -34.666 -11 -45.999s-17 -20 -29 -26s-25.667 -9.83301 -41 -11.5s-30.666 -2.5 -45.999 -2.5h-95v182h111c38.667 0 66.667 -7.66699 84 -23zM273.999 -211.001
c26.667 19.333 39.999 44.998 39.999 76.998c0 14.667 -2.66699 27.5 -8 38.5s-12.5 20 -21.5 27s-19.667 12.333 -32 16s-25.166 5.5 -38.499 5.5l-12 -2l41 60h-80l-67 -102l30 -31l49 7c8 0 14.833 -1.16699 20.5 -3.5s8.5 -8.16602 8.5 -17.499
c0 -13.333 -3.5 -21.666 -10.5 -24.999s-16.833 -5 -29.5 -5c-16 0 -30.333 1.83301 -43 5.5l-42 12.5l-27 -61c20 -8 40.167 -15.167 60.5 -21.5s41.5 -9.5 63.5 -9.5c39.333 0 72 9.66699 98 29z" />
    <glyph glyph-name="rcedilla" unicode="&#xe04d;" horiz-adv-x="333" 
d="M299 389l29.999 -2v154c-32 0 -60.167 -5.33301 -84.5 -16s-45.5 -29.334 -63.5 -56.001v62h-136v-542h146v327c6.66699 14.667 20.334 30.334 41.001 47.001c22.667 18 45 26.667 67 26zM251.999 -211c26.667 19.333 39.999 44.998 39.999 76.998
c0 14.667 -2.66699 27.5 -8 38.5s-12.5 20 -21.5 27s-19.667 12.333 -32 16s-25.166 5.5 -38.499 5.5l-12 -2l41 60h-80l-67 -102l30 -31l49 7c8 0 14.833 -1.16699 20.5 -3.5s8.5 -8.16602 8.5 -17.499c0 -13.333 -3.5 -21.666 -10.5 -24.999s-16.833 -5 -29.5 -5
c-16 0 -30.333 1.83301 -43 5.5l-42 12.5l-27 -61c20 -8 40.167 -15.167 60.5 -21.5s41.5 -9.5 63.5 -9.5c39.333 0 72 9.66699 98 29z" />
    <glyph glyph-name="Rhacek" unicode="&#xe04e;" horiz-adv-x="667" 
d="M464 -11h178.001l-162 327c41.333 14.667 73.166 38.167 95.499 70.5s33.5 70.5 33.5 114.5c0 38 -5.83301 71.5 -17.5 100.5s-28 53.167 -49 72.5s-46.5 34 -76.5 44s-63.333 15 -100 15h-299v-744h159v294h102zM421.001 576
c8.66699 -7.33301 15.332 -17.001 19.999 -29.001s7 -26.667 7 -44c0 -19.333 -3.66699 -34.666 -11 -45.999s-17 -20 -29 -26s-25.667 -9.83301 -41 -11.5s-30.666 -2.5 -45.999 -2.5h-95v182h111c38.667 0 66.667 -7.66699 84 -23zM361.999 749.999l132 168h-141l-58 -75
l-58 75h-141l132 -168h134z" />
    <glyph glyph-name="rhacek" unicode="&#xe04f;" horiz-adv-x="333" 
d="M299 389l29.999 -2v154c-32 0 -60.167 -5.33301 -84.5 -16s-45.5 -29.334 -63.5 -56.001v62h-136v-542h146v327c6.66699 14.667 20.334 30.334 41.001 47.001c22.667 18 45 26.667 67 26zM287.999 575l132 168h-141l-58 -75l-58 75h-141l132 -168h134z" />
    <glyph glyph-name="Sacute" unicode="&#xe050;" 
d="M500 37c46.667 40 70.001 96.3369 70.001 169.004c0 67.333 -23.667 118.666 -71 153.999c-44.667 34.667 -95.334 61.667 -152.001 81c-40 14 -76 30 -108 48c-15.333 8.66699 -26.166 17.667 -32.499 27s-9.5 19 -9.5 29c0 12.667 2.83301 23.5 8.5 32.5s13 16 22 21
s19 8.66699 30 11s21.833 3.5 32.5 3.5c33.333 0 59.166 -8.83301 77.499 -26.5s33.5 -40.834 45.5 -69.501l147 45c-14.667 34 -31 62 -49 84s-38.667 40 -62 54c-46.667 28.667 -99.334 43 -158.001 43c-70 0 -128.333 -19.333 -175 -58s-70 -87.667 -70 -147
c0 -60 20 -107 60 -141c38 -31.333 95.667 -61.666 173 -90.999c39.333 -14.667 73 -31.334 101 -50.001c25.333 -16.667 38 -37.334 38 -62.001c0 -16.667 -3 -30.5 -9 -41.5s-14.167 -19.667 -24.5 -26s-22.166 -10.833 -35.499 -13.5s-27 -4 -41 -4
c-20 0 -37.833 2.83301 -53.5 8.5s-29.5 13.5 -41.5 23.5s-22.667 22.167 -32 36.5s-18 30.166 -26 47.499l-133 -58c15.333 -36 33 -65.5 53 -88.5s43.667 -41.833 71 -56.5c51.333 -28.667 104 -43 158 -43c84 0 149.333 19.333 196 58zM307.001 750.004l169 168h-187
l-108 -168h126z" />
    <glyph glyph-name="sacute" unicode="&#xe051;" horiz-adv-x="444" 
d="M365 22c38 30 57.0029 68.668 57.0029 116.001c0 46 -12.333 84.333 -37 115c-12.667 14.667 -27.167 26.667 -43.5 36s-33.333 17.166 -51 23.499l-53.5 18.5c-18 6 -35.333 13.667 -52 23c-16 9.33301 -24 20.333 -24 33c0 16.667 6.33301 27.5 19 32.5s26 7.5 40 7.5
c19.333 0 37.166 -6.5 53.499 -19.5s30.5 -26.5 42.5 -40.5l95 83c-28.667 32 -58.334 55.167 -89.001 69.5s-67.334 21.5 -110.001 21.5c-24 0 -47.167 -3.5 -69.5 -10.5s-41.833 -17.333 -58.5 -31s-30 -30.5 -40 -50.5s-15 -43 -15 -69c0 -52 16.333 -90.333 49 -115
c32 -23.333 67 -42 105 -56l52.5 -21c14.333 -6 25.5 -11.333 33.5 -16c13.333 -7.33301 20 -18 20 -32c0 -8.66699 -2 -16 -6 -22s-9.16699 -10.833 -15.5 -14.5s-13.333 -6.33398 -21 -8.00098s-15.167 -2.5 -22.5 -2.5c-12.667 0 -24.667 2.33301 -36 7
s-21.833 10.834 -31.5 18.501s-18.667 16.167 -27 25.5s-15.5 19 -21.5 29l-101 -76c17.333 -24 34.166 -43.5 50.499 -58.5s33.833 -26.833 52.5 -35.5c36 -16 73.333 -24 112 -24c58.667 0 106.334 14.333 143.001 43zM232.003 575.001l169 168h-187l-108 -168h126z" />
    <glyph glyph-name="Tcedilla" unicode="&#xe052;" horiz-adv-x="556" 
d="M357 596h189v137h-536v-137h188v-607h159v607zM350 -211c26.667 19.333 39.999 44.998 39.999 76.998c0 14.667 -2.66699 27.5 -8 38.5s-12.5 20 -21.5 27s-19.667 12.333 -32 16s-25.166 5.5 -38.499 5.5l-12 -2l41 60h-80l-67 -102l30 -31l49 7
c8 0 14.833 -1.16699 20.5 -3.5s8.5 -8.16602 8.5 -17.499c0 -13.333 -3.5 -21.666 -10.5 -24.999s-16.833 -5 -29.5 -5c-16 0 -30.333 1.83301 -43 5.5l-42 12.5l-27 -61c20 -8 40.167 -15.167 60.5 -21.5s41.5 -9.5 63.5 -9.5c39.333 0 72 9.66699 98 29z" />
    <glyph glyph-name="tcedilla" unicode="&#xe053;" horiz-adv-x="333" 
d="M269 -19c7.33301 0.666992 15 1.5 23 2.5s17.667 2.83301 29 5.5v125l-36 -9c-10.667 -2.66699 -21.667 -4 -33 -4c-10 0 -18 1.33301 -24 4s-9 9.66699 -9 21v283h102v122h-102v172h-146v-172h-72v-122h72v-301c0 -44 12.333 -76.5 37 -97.5s58 -31.5 100 -31.5
c12 0 23 0.166992 33 0.5s18.667 0.833008 26 1.5zM288 -211c26.667 19.333 39.999 44.998 39.999 76.998c0 14.667 -2.66699 27.5 -8 38.5s-12.5 20 -21.5 27s-19.667 12.333 -32 16s-25.166 5.5 -38.499 5.5l-12 -2l41 60h-80l-67 -102l30 -31l49 7
c8 0 14.833 -1.16699 20.5 -3.5s8.5 -8.16602 8.5 -17.499c0 -13.333 -3.5 -21.666 -10.5 -24.999s-16.833 -5 -29.5 -5c-16 0 -30.333 1.83301 -43 5.5l-42 12.5l-27 -61c20 -8 40.167 -15.167 60.5 -21.5s41.5 -9.5 63.5 -9.5c39.333 0 72 9.66699 98 29z" />
    <glyph glyph-name="Thacek" unicode="&#xe054;" horiz-adv-x="556" 
d="M357 596h189v137h-536v-137h188v-607h159v607zM325 750l132 168h-141l-58 -75l-58 75h-141l132 -168h134z" />
    <glyph glyph-name="thacek" unicode="&#xe055;" horiz-adv-x="333" 
d="M269 -19c7.33301 0.666992 15 1.5 23 2.5s17.667 2.83301 29 5.5v125l-36 -9c-10.667 -2.66699 -21.667 -4 -33 -4c-10 0 -18 1.33301 -24 4s-9 9.66699 -9 21v283h102v122h-102v172h-146v-172h-72v-122h72v-301c0 -44 12.333 -76.5 37 -97.5s58 -31.5 100 -31.5
c12 0 23 0.166992 33 0.5s18.667 0.833008 26 1.5zM406 419l68 159v155h-160v-164h56l-51 -150h87z" />
    <glyph glyph-name="Umacron" unicode="&#xe056;" horiz-adv-x="722" 
d="M574 54c49.333 50 73.999 122.332 73.999 216.999v462h-159v-460c0 -57.333 -9.66699 -97.666 -29 -120.999c-9.33301 -11.333 -22.166 -20 -38.499 -26s-37.166 -9 -62.499 -9c-47.333 0 -80 12 -98 36c-19.333 23.333 -29 64 -29 122v458h-159v-469
c0 -92 25.167 -162.5 75.5 -211.5s121.166 -73.5 212.499 -73.5c92.667 0 163.667 25 213 75zM161.999 781.999h369v96h-369v-96z" />
    <glyph glyph-name="umacron" unicode="&#xe057;" horiz-adv-x="556" 
d="M367 -11l135 -0.00195312v542h-146v-383c-12.667 -13.333 -28 -24.5 -46 -33.5s-36.667 -13.5 -56 -13.5c-21.333 0 -35.333 5.66699 -42 17c-8.66699 12 -13 33 -13 63v350h-146v-369c0 -26 3.16699 -50.167 9.5 -72.5s16.333 -41.666 30 -57.999
s30.667 -29.166 51 -38.499s44.5 -14 72.5 -14c29.333 0 56 5.5 80 16.5s47.667 24.167 71 39.5v-46zM81 606.998h369v96h-369v-96z" />
    <glyph glyph-name="Uring" unicode="&#xe058;" horiz-adv-x="722" 
d="M574 54c49.333 50 73.999 122.332 73.999 216.999v462h-159v-460c0 -57.333 -9.66699 -97.666 -29 -120.999c-9.33301 -11.333 -22.166 -20 -38.499 -26s-37.166 -9 -62.499 -9c-47.333 0 -80 12 -98 36c-19.333 23.333 -29 64 -29 122v458h-159v-469
c0 -92 25.167 -162.5 75.5 -211.5s121.166 -73.5 212.499 -73.5c92.667 0 163.667 25 213 75zM431.999 783.999c23.333 23.333 35 51.333 35 84c0 16.667 -3.16699 32.167 -9.5 46.5s-14.833 26.833 -25.5 37.5s-23.167 19.167 -37.5 25.5s-29.833 9.5 -46.5 9.5
s-32.167 -3.16699 -46.5 -9.5s-26.833 -14.833 -37.5 -25.5s-19.167 -23.167 -25.5 -37.5s-9.5 -29.833 -9.5 -46.5s3.16699 -32.167 9.5 -46.5s14.833 -26.833 25.5 -37.5s23.167 -19.167 37.5 -25.5s29.833 -9.5 46.5 -9.5c32.667 0 60.667 11.667 84 35zM378.999 898.999
c8 -8 12 -18.333 12 -31s-4 -23 -12 -31s-18.333 -12 -31 -12c-12 0 -22.167 4.16699 -30.5 12.5s-12.5 18.5 -12.5 30.5s4.16699 22.167 12.5 30.5s18.5 12.5 30.5 12.5c12.667 0 23 -4 31 -12z" />
    <glyph glyph-name="uring" unicode="&#xe059;" horiz-adv-x="556" 
d="M367 -11l135 -0.00195312v542h-146v-383c-12.667 -13.333 -28 -24.5 -46 -33.5s-36.667 -13.5 -56 -13.5c-21.333 0 -35.333 5.66699 -42 17c-8.66699 12 -13 33 -13 63v350h-146v-369c0 -26 3.16699 -50.167 9.5 -72.5s16.333 -41.666 30 -57.999
s30.667 -29.166 51 -38.499s44.5 -14 72.5 -14c29.333 0 56 5.5 80 16.5s47.667 24.167 71 39.5v-46zM351 608.998c23.333 23.333 35 51.333 35 84c0 16.667 -3.16699 32.167 -9.5 46.5s-14.833 26.833 -25.5 37.5s-23.167 19.167 -37.5 25.5s-29.833 9.5 -46.5 9.5
s-32.167 -3.16699 -46.5 -9.5s-26.833 -14.833 -37.5 -25.5s-19.167 -23.167 -25.5 -37.5s-9.5 -29.833 -9.5 -46.5s3.16699 -32.167 9.5 -46.5s14.833 -26.833 25.5 -37.5s23.167 -19.167 37.5 -25.5s29.833 -9.5 46.5 -9.5c32.667 0 60.667 11.667 84 35zM298 723.998
c8 -8 12 -18.333 12 -31s-4 -23 -12 -31s-18.333 -12 -31 -12c-12 0 -22.167 4.16699 -30.5 12.5s-12.5 18.5 -12.5 30.5s4.16699 22.167 12.5 30.5s18.5 12.5 30.5 12.5c12.667 0 23 -4 31 -12z" />
    <glyph glyph-name="Udoubleacute" unicode="&#xe05a;" horiz-adv-x="722" 
d="M574 54c49.333 50 73.999 122.332 73.999 216.999v462h-159v-460c0 -57.333 -9.66699 -97.666 -29 -120.999c-9.33301 -11.333 -22.166 -20 -38.499 -26s-37.166 -9 -62.499 -9c-47.333 0 -80 12 -98 36c-19.333 23.333 -29 64 -29 122v458h-159v-469
c0 -92 25.167 -162.5 75.5 -211.5s121.166 -73.5 212.499 -73.5c92.667 0 163.667 25 213 75zM442.999 749.999l151 168h-185l-87 -168h121zM248.999 749.999l151 168h-185l-87 -168h121z" />
    <glyph glyph-name="udoubleacute" unicode="&#xe05b;" horiz-adv-x="556" 
d="M0 0v-210h737v210h-737z" />
    <glyph glyph-name="Uogonek" unicode="&#xe05c;" horiz-adv-x="722" 
d="M574 54c49.333 50 73.999 122.332 73.999 216.999v462h-159v-460c0 -57.333 -9.66699 -97.666 -29 -120.999c-9.33301 -11.333 -22.166 -20 -38.499 -26s-37.166 -9 -62.499 -9c-47.333 0 -80 12 -98 36c-19.333 23.333 -29 64 -29 122v458h-159v-469
c0 -92 25.167 -162.5 75.5 -211.5s121.166 -73.5 212.499 -73.5c92.667 0 163.667 25 213 75zM425.999 -209.001c13.333 6 26.333 12.499 39 19.499s26.667 16.167 42 27.5l-30 55l-21 -14c-8 -5.33301 -16.5 -10.333 -25.5 -15s-18 -8.66699 -27 -12s-17.5 -5 -25.5 -5
c-12 0 -22 2.83301 -30 8.5s-12 15.167 -12 28.5c0 16 5.16699 30.167 15.5 42.5s22.833 23.333 37.5 33s30 18 46 25s30 12.5 42 16.5v33c-51.333 -8 -93 -17.167 -125 -27.5s-56.667 -22.5 -74 -36.5c-34.667 -27.333 -52 -60 -52 -98
c0 -17.333 3.16699 -32.166 9.5 -44.499s15 -22.5 26 -30.5s23.5 -14 37.5 -18s28.667 -6 44 -6c28 0 55.667 6 83 18z" />
    <glyph glyph-name="uogonek" unicode="&#xe05d;" horiz-adv-x="556" 
d="M367 -11l135 -0.00195312v542h-146v-383c-12.667 -13.333 -28 -24.5 -46 -33.5s-36.667 -13.5 -56 -13.5c-21.333 0 -35.333 5.66699 -42 17c-8.66699 12 -13 33 -13 63v350h-146v-369c0 -26 3.16699 -50.167 9.5 -72.5s16.333 -41.666 30 -57.999
s30.667 -29.166 51 -38.499s44.5 -14 72.5 -14c29.333 0 56 5.5 80 16.5s47.667 24.167 71 39.5v-46zM439 -209.002c13.333 6 26.333 12.499 39 19.499s26.667 16.167 42 27.5l-30 55l-21 -14c-8 -5.33301 -16.5 -10.333 -25.5 -15s-18 -8.66699 -27 -12s-17.5 -5 -25.5 -5
c-12 0 -22 2.83301 -30 8.5s-12 15.167 -12 28.5c0 16 5.16699 30.167 15.5 42.5s22.833 23.333 37.5 33s30 18 46 25s30 12.5 42 16.5v33c-51.333 -8 -93 -17.167 -125 -27.5s-56.667 -22.5 -74 -36.5c-34.667 -27.333 -52 -60 -52 -98
c0 -17.333 3.16699 -32.166 9.5 -44.499s15 -22.5 26 -30.5s23.5 -14 37.5 -18s28.667 -6 44 -6c28 0 55.667 6 83 18z" />
    <glyph glyph-name="Zacute" unicode="&#xe05e;" horiz-adv-x="556" 
d="M5 -11h536v138h-342l338 481v125h-509v-138h304l-327 -474v-132zM281 750l169 168h-187l-108 -168h126z" />
    <glyph glyph-name="zacute" unicode="&#xe05f;" horiz-adv-x="444" 
d="M7 -11h431v122h-242l239 316v104h-408l-1 -122h221l-240 -317v-103zM234 575l169 168h-187l-108 -168h126z" />
    <glyph glyph-name="Zdot" unicode="&#xe060;" horiz-adv-x="556" 
d="M5 -11h536v138h-342l338 481v125h-509v-138h304l-327 -474v-132zM189 760h142v138h-142v-138z" />
    <glyph glyph-name="zdot" unicode="&#xe061;" horiz-adv-x="444" 
d="M7 -11h431v122h-242l239 316v104h-408l-1 -122h221l-240 -317v-103zM142 585h142v138h-142v-138z" />
    <glyph glyph-name="ch337" unicode="&#xe062;" horiz-adv-x="305" 
d="M72 177h160v164h-160v-164z" />
    </font>
</defs>
</svg>
